<svg width="48" height="48" viewBox="0 0 48 48" fill="none" xmlns="http://www.w3.org/2000/svg">
<rect width="48" height="48" rx="8" fill="#B34424" fill-opacity="0.1"/>
<path d="M12.917 16.4167C12.917 14.4918 12.917 13.5293 13.515 12.9313C14.113 12.3333 15.0754 12.3333 17.0003 12.3333C18.9252 12.3333 19.8877 12.3333 20.4857 12.9313C21.0837 13.5293 21.0837 14.4918 21.0837 16.4167C21.0837 18.3416 21.0837 19.304 20.4857 19.902C19.8877 20.5 18.9252 20.5 17.0003 20.5C15.0754 20.5 14.113 20.5 13.515 19.902C12.917 19.304 12.917 18.3416 12.917 16.4167Z" stroke="url(#paint0_linear_65_825)" stroke-width="1.5"/>
<path d="M14.266 28.2664C15.5547 26.9777 16.199 26.3333 16.9997 26.3333C17.8003 26.3333 18.4447 26.9777 19.7333 28.2664C21.022 29.555 21.6663 30.1993 21.6663 31C21.6663 31.8007 21.022 32.445 19.7333 33.7336C18.4447 35.0223 17.8003 35.6667 16.9997 35.6667C16.199 35.6667 15.5547 35.0223 14.266 33.7336C12.9773 32.445 12.333 31.8007 12.333 31C12.333 30.1993 12.9773 29.555 14.266 28.2664Z" stroke="url(#paint1_linear_65_825)" stroke-width="1.5"/>
<path d="M17 20.5V26.3333M21.6667 31H27.5" stroke="url(#paint2_linear_65_825)" stroke-width="1.5" stroke-linecap="round" stroke-linejoin="round"/>
<path d="M27.5 31C27.5 29.0751 27.5 28.1126 28.098 27.5147C28.696 26.9167 29.6585 26.9167 31.5833 26.9167C33.5082 26.9167 34.4707 26.9167 35.0686 27.5147C35.6667 28.1126 35.6667 29.0751 35.6667 31C35.6667 32.9249 35.6667 33.8874 35.0686 34.4853C34.4707 35.0833 33.5082 35.0833 31.5833 35.0833C29.6585 35.0833 28.696 35.0833 28.098 34.4853C27.5 33.8874 27.5 32.9249 27.5 31Z" stroke="url(#paint3_linear_65_825)" stroke-width="1.5"/>
<defs>
<linearGradient id="paint0_linear_65_825" x1="17.0003" y1="12.3333" x2="17.0003" y2="20.5" gradientUnits="userSpaceOnUse">
<stop stop-color="white"/>
<stop offset="1" stop-color="#999999"/>
</linearGradient>
<linearGradient id="paint1_linear_65_825" x1="16.9997" y1="26.3333" x2="16.9997" y2="35.6667" gradientUnits="userSpaceOnUse">
<stop stop-color="white"/>
<stop offset="1" stop-color="#999999"/>
</linearGradient>
<linearGradient id="paint2_linear_65_825" x1="22.25" y1="20.5" x2="22.25" y2="31" gradientUnits="userSpaceOnUse">
<stop stop-color="white"/>
<stop offset="1" stop-color="#999999"/>
</linearGradient>
<linearGradient id="paint3_linear_65_825" x1="31.5833" y1="26.9167" x2="31.5833" y2="35.0833" gradientUnits="userSpaceOnUse">
<stop stop-color="white"/>
<stop offset="1" stop-color="#999999"/>
</linearGradient>
</defs>
</svg>
