<svg width="78" height="78" viewBox="0 0 78 78" fill="none" xmlns="http://www.w3.org/2000/svg">
<circle cx="39" cy="39" r="34.125" fill="#4B4B4B"/>
<path d="M39.5436 27.4773C38.1223 33.3143 38.2133 33.0023 36.9241 38.341C36.896 38.8328 36.4886 39.2206 35.9925 39.2206C35.9383 39.2206 35.8841 39.2163 35.8321 39.2076H35.8386H34.3761C34.3328 39.2163 34.2808 39.2206 34.231 39.2206C33.7911 39.2206 33.4293 38.8935 33.373 38.471V38.4666C32.1228 34.467 30.448 28.9116 29.3213 25.1958C28.9053 23.8243 29.1783 23.8568 30.266 23.885C30.643 23.8958 31.007 23.885 31.3818 23.885C31.4078 23.8828 31.4381 23.8806 31.4706 23.8806C31.8953 23.8806 32.2463 24.1948 32.3048 24.6021V24.6065C32.671 25.9173 32.9136 26.9226 35.0045 35.1798C35.0435 35.3423 35.0955 35.4961 35.1475 35.6456H35.258C35.3078 35.442 35.3685 35.2513 35.4205 35.0455C36.212 31.7045 37.0007 28.3606 37.7865 25.0138C38.0313 23.9738 38.4668 23.8763 39.5198 23.8763H40.2911C40.9845 23.8871 41.2055 24.028 41.3788 24.7191C41.9876 27.096 43.7665 35.0541 44.0893 35.9295C44.6093 34.0705 43.9073 36.7311 46.984 24.8621C47.1963 24.041 47.4 23.8785 48.2341 23.8785H49.5146C50.0628 23.8893 50.2253 24.0605 50.0931 24.6C49.8483 25.5663 49.7985 25.6053 45.9006 38.094C45.5843 39.0993 45.4738 39.1903 44.4186 39.1903H43.3418C42.6008 39.1903 42.408 39.0581 42.226 38.3366C41.7883 36.6921 39.86 28.6191 39.5436 27.4816V27.4773ZM25.755 38.7678C25.9023 39.069 26.2056 39.2726 26.5566 39.2726C26.8036 39.2726 27.0246 39.173 27.1871 39.0105L27.8263 38.5836C28.5196 38.1265 28.5673 37.9445 28.1925 37.2121C27.7895 36.4451 27.5511 35.5373 27.5511 34.5731C27.5511 34.5406 27.5511 34.5081 27.5511 34.4756V34.48C27.5511 34.1636 27.6118 28.825 27.4601 27.6983C27.3258 25.8133 26.0193 24.2663 24.273 23.7745L24.2426 23.768C23.4778 23.5556 22.6003 23.4343 21.6925 23.4343C21.4195 23.4343 21.1465 23.4451 20.88 23.4668L20.9146 23.4646C19.32 23.5275 17.838 23.95 16.5271 24.6498L16.5813 24.6238C16.3841 24.73 16.2368 24.9055 16.1675 25.1156L16.1653 25.1221C16.109 25.3778 16.0765 25.6725 16.0765 25.9736C16.0765 26.1058 16.083 26.238 16.0938 26.368L16.0916 26.3506C16.1523 26.9508 16.356 27.0613 16.9236 26.8706C17.4436 26.6973 17.9398 26.4763 18.4576 26.3225C19.2051 26.0451 20.0675 25.8848 20.9688 25.8848C21.6686 25.8848 22.3446 25.9823 22.986 26.1621L22.934 26.1491C23.6208 26.355 24.156 26.8728 24.3813 27.5336L24.3856 27.5488C24.5525 28.1078 24.65 28.7491 24.65 29.4143C24.65 29.618 24.6413 29.8216 24.624 30.021L24.6261 29.995C24.6261 30.554 24.6153 30.554 24.0671 30.4521C23.1355 30.2203 22.0673 30.086 20.9666 30.086C20.5615 30.086 20.1585 30.1033 19.762 30.1401L19.814 30.1358C18.241 30.2506 16.8673 31.0155 15.9421 32.1573L15.9335 32.1681C15.3701 32.9481 15.0321 33.9253 15.0321 34.9805C15.0321 35.4073 15.0863 35.819 15.1903 36.2133L15.1838 36.1786C15.4091 37.6563 16.4578 38.8393 17.838 39.2596L17.864 39.2661C18.4706 39.4828 19.1705 39.6085 19.9006 39.6085C21.3458 39.6085 22.6783 39.1166 23.7356 38.2911L23.7226 38.302C24.1083 38.0181 24.455 37.6736 24.8493 37.3356C25.1656 37.8426 25.4386 38.3193 25.7528 38.757L25.755 38.7678ZM24.195 32.5126H24.2058C24.4463 32.5126 24.6413 32.7076 24.6413 32.9481C24.6413 32.9785 24.6391 33.0066 24.6326 33.037V33.0348C24.611 33.4205 24.6435 33.8061 24.6023 34.1918C24.494 35.325 23.7855 36.2696 22.804 36.7138L22.7845 36.7225C22.1475 37.0561 21.3956 37.2533 20.5961 37.2533C20.4336 37.2533 20.2733 37.2446 20.1151 37.2295L20.1346 37.2316C18.9885 37.1645 18.085 36.2198 18.085 35.0628C18.085 34.8851 18.1066 34.7118 18.1478 34.545L18.1456 34.5601C18.202 33.3728 19.1423 32.4216 20.321 32.348H20.3275C20.7825 32.2743 21.3068 32.2331 21.8398 32.2331C22.6805 32.2331 23.4995 32.3371 24.2795 32.5321L24.2101 32.517L24.195 32.5126ZM59.6113 39.1231C61.3988 38.523 62.6619 36.8633 62.6619 34.909C62.6619 34.6035 62.6316 34.3045 62.5731 34.0163L62.5774 34.0445C62.3456 32.6296 61.3554 31.4943 60.0446 31.0566L60.0186 31.048C58.0426 30.4283 56.4241 29.8021 54.8554 29.0871L55.1349 29.202C54.6821 28.9745 54.3744 28.5195 54.3636 27.9908C54.3506 27.9106 54.3441 27.8175 54.3441 27.7243C54.3441 26.8165 55.0331 26.0711 55.9171 25.9801H55.9236C56.3808 25.8718 56.9051 25.8111 57.4446 25.8111C57.9148 25.8111 58.3763 25.8588 58.8204 25.9476L58.7771 25.9411C59.5181 26.0841 60.2288 26.368 60.9503 26.5803C61.2341 26.6713 61.5504 26.7926 61.7433 26.4178C61.8429 26.2076 61.9014 25.9606 61.9014 25.7028C61.9014 25.0571 61.5418 24.496 61.0109 24.21L61.0023 24.2056C59.9319 23.6943 58.6753 23.3975 57.3493 23.3975C56.1663 23.3975 55.0396 23.6358 54.0126 24.0648L54.0689 24.0431C52.4981 24.6671 51.4083 26.1751 51.4083 27.9366C51.4083 29.6245 52.4093 31.0805 53.8501 31.7391L53.8761 31.75C54.6583 32.127 55.5098 32.3501 56.3331 32.6535C57.1564 32.9568 57.9776 33.2428 58.7815 33.5765C59.3361 33.8841 59.7066 34.467 59.7066 35.1365C59.7066 35.7561 59.3903 36.3 58.9093 36.6185L58.9028 36.6228C56.0905 38.1828 52.3161 36.378 51.8763 36.2371C51.5426 36.1266 51.339 36.2588 51.2371 36.6141C51.1548 36.807 51.1071 37.0323 51.1071 37.2685C51.1071 38.068 51.6596 38.7396 52.4049 38.9173L52.4158 38.9195C53.5663 39.381 54.8988 39.6475 56.2941 39.6475C57.4771 39.6475 58.6168 39.4546 59.6806 39.0993L59.6048 39.121L59.6113 39.1231ZM43.071 55.644C48.4833 55.0633 53.3973 53.3646 57.7241 50.782L57.5594 50.873C58.3719 50.3963 59.1325 49.833 59.9038 49.2783C60.6448 48.7583 60.2288 47.4106 58.7554 48.039C53.6768 50.2685 47.7791 51.6941 41.5846 51.9845L41.4741 51.9888C40.8241 52.0213 40.0636 52.0386 39.2988 52.0386C36.8028 52.0386 34.3501 51.848 31.956 51.4796L32.2225 51.5143C25.469 50.5415 19.3871 48.3553 13.9596 45.1725L14.1958 45.3003C14.0051 45.1725 13.7863 45.0685 13.5523 44.9991L13.535 44.9948C13.0366 44.8843 12.7528 45.4715 13.2901 45.9785C19.9396 52.1275 28.8663 55.8975 38.6748 55.8975H38.7051H38.703C40.1655 55.8151 41.628 55.8065 43.0688 55.644H43.071ZM60.8094 46.284C62.3131 46.3663 62.7789 46.8841 62.4041 48.3336C62.0184 49.8373 61.4594 51.2998 60.9936 52.7818C60.9026 53.0765 60.5668 53.421 60.9113 53.6766C61.2883 53.941 61.5721 53.5748 61.8256 53.343C62.8114 52.4048 63.5871 51.2586 64.0876 49.9738L64.1093 49.911C64.6683 48.689 64.9933 47.259 64.9933 45.7531C64.9933 45.7185 64.9933 45.686 64.9933 45.6513V45.6556C64.9716 45.0273 64.8113 44.7608 64.2003 44.5896C63.715 44.4401 63.1451 44.3253 62.5601 44.269L62.5254 44.2668C62.1289 44.217 61.6718 44.1888 61.2059 44.1888C59.3946 44.1888 57.6829 44.6156 56.1641 45.3718L56.2291 45.3415C55.8933 45.5235 55.603 45.7228 55.3365 45.9481L55.3451 45.9416C55.2346 46.0326 55.0201 46.479 55.5899 46.5613C55.6419 46.5656 55.7048 46.5678 55.7654 46.5678C55.915 46.5678 56.0623 46.5548 56.2031 46.5288L56.188 46.531C57.3276 46.3685 58.6449 46.2753 59.9818 46.2753C60.2721 46.2753 60.5603 46.2796 60.8484 46.2883H60.8073L60.8094 46.284Z" fill="url(#paint0_linear_72_1914)"/>
<defs>
<linearGradient id="paint0_linear_72_1914" x1="64.9933" y1="39.6475" x2="13" y2="39.6475" gradientUnits="userSpaceOnUse">
<stop stop-color="#FFFDF8"/>
<stop offset="1" stop-color="#FFE7C7" stop-opacity="0.5"/>
</linearGradient>
</defs>
</svg>
