<svg width="2133" height="1548" viewBox="0 0 2133 1548" fill="none" xmlns="http://www.w3.org/2000/svg">
<g clip-path="url(#clip0_72_1750)">
<path d="M19.4414 0H63.8789V44.4375H19.4414V0ZM64.9898 0H109.427V44.4375H64.9898V0ZM110.538 0H154.976V44.4375H110.538V0ZM156.087 0H200.524V44.4375H156.087V0ZM201.635 0H246.073V44.4375H201.635V0ZM247.184 0H291.621V44.4375H247.184V0ZM292.732 0H337.17V44.4375H292.732V0ZM338.28 0H382.718V44.4375H338.28V0ZM383.829 0H428.266V44.4375H383.829V0ZM429.377 0H473.815V44.4375H429.377V0ZM474.926 0H519.363V44.4375H474.926V0ZM520.474 0H564.912V44.4375H520.474V0ZM566.023 0H610.46V44.4375H566.023V0ZM611.571 0H656.009V44.4375H611.571V0ZM657.12 0H701.557V44.4375H657.12V0ZM702.668 0H747.105V44.4375H702.668V0ZM748.216 0H792.654V44.4375H748.216V0ZM793.765 0H838.202V44.4375H793.765V0ZM839.313 0H883.751V44.4375H839.313V0ZM884.862 0H929.299V44.4375H884.862V0ZM930.41 0H974.848V44.4375H930.41V0ZM975.959 0H1020.4V44.4375H975.959V0ZM1021.51 0H1065.94V44.4375H1021.51V0ZM1067.06 0H1111.49V44.4375H1067.06V0ZM1112.6 0H1157.04V44.4375H1112.6V0ZM1158.15 0H1202.59V44.4375H1158.15V0ZM1203.7 0H1248.14V44.4375H1203.7V0ZM1249.25 0H1293.69V44.4375H1249.25V0ZM1294.8 0H1339.24V44.4375H1294.8V0ZM1340.35 0H1384.78V44.4375H1340.35V0ZM1385.89 0H1430.33V44.4375H1385.89V0ZM1431.44 0H1475.88V44.4375H1431.44V0ZM1476.99 0H1521.43V44.4375H1476.99V0ZM1522.54 0H1566.98V44.4375H1522.54V0ZM1568.09 0H1612.53V44.4375H1568.09V0ZM1613.64 0H1658.07V44.4375H1613.64V0ZM1659.19 0H1703.62V44.4375H1659.19V0ZM1704.73 0H1749.17V44.4375H1704.73V0ZM1750.28 0H1794.72V44.4375H1750.28V0ZM1795.83 0H1840.27V44.4375H1795.83V0ZM1841.38 0H1885.82V44.4375H1841.38V0ZM1886.93 0H1931.36V44.4375H1886.93V0ZM1932.48 0H1976.91V44.4375H1932.48V0ZM1978.02 0H2022.46V44.4375H1978.02V0ZM2023.57 0H2068.01V44.4375H2023.57V0ZM2069.12 0H2113.56V44.4375H2069.12V0ZM19.4414 45.5484H63.8789V89.9859H19.4414V45.5484ZM64.9898 45.5484H109.427V89.9859H64.9898V45.5484ZM110.538 45.5484H154.976V89.9859H110.538V45.5484ZM156.087 45.5484H200.524V89.9859H156.087V45.5484ZM201.635 45.5484H246.073V89.9859H201.635V45.5484ZM247.184 45.5484H291.621V89.9859H247.184V45.5484ZM292.732 45.5484H337.17V89.9859H292.732V45.5484ZM338.28 45.5484H382.718V89.9859H338.28V45.5484ZM383.829 45.5484H428.266V89.9859H383.829V45.5484ZM429.377 45.5484H473.815V89.9859H429.377V45.5484ZM474.926 45.5484H519.363V89.9859H474.926V45.5484ZM520.474 45.5484H564.912V89.9859H520.474V45.5484ZM566.023 45.5484H610.46V89.9859H566.023V45.5484ZM611.571 45.5484H656.009V89.9859H611.571V45.5484ZM657.12 45.5484H701.557V89.9859H657.12V45.5484ZM702.668 45.5484H747.105V89.9859H702.668V45.5484ZM748.216 45.5484H792.654V89.9859H748.216V45.5484ZM793.765 45.5484H838.202V89.9859H793.765V45.5484ZM839.313 45.5484H883.751V89.9859H839.313V45.5484ZM884.862 45.5484H929.299V89.9859H884.862V45.5484ZM930.41 45.5484H974.848V89.9859H930.41V45.5484ZM975.959 45.5484H1020.4V89.9859H975.959V45.5484ZM1021.51 45.5484H1065.94V89.9859H1021.51V45.5484ZM1067.06 45.5484H1111.49V89.9859H1067.06V45.5484ZM1112.6 45.5484H1157.04V89.9859H1112.6V45.5484ZM1158.15 45.5484H1202.59V89.9859H1158.15V45.5484ZM1203.7 45.5484H1248.14V89.9859H1203.7V45.5484ZM1249.25 45.5484H1293.69V89.9859H1249.25V45.5484ZM1294.8 45.5484H1339.24V89.9859H1294.8V45.5484ZM1340.35 45.5484H1384.78V89.9859H1340.35V45.5484ZM1385.89 45.5484H1430.33V89.9859H1385.89V45.5484Z" fill="#070708"/>
<path d="M1431.44 45.5485H1475.88V89.986H1431.44V45.5485Z" fill="#0E0E10"/>
<path d="M1476.99 45.5485H1521.43V89.986H1476.99V45.5485ZM1522.54 45.5485H1566.98V89.986H1522.54V45.5485ZM1568.09 45.5485H1612.53V89.986H1568.09V45.5485ZM1613.64 45.5485H1658.07V89.986H1613.64V45.5485ZM1659.19 45.5485H1703.62V89.986H1659.19V45.5485ZM1704.73 45.5485H1749.17V89.986H1704.73V45.5485ZM1750.28 45.5485H1794.72V89.986H1750.28V45.5485ZM1795.83 45.5485H1840.27V89.986H1795.83V45.5485ZM1841.38 45.5485H1885.82V89.986H1841.38V45.5485ZM1886.93 45.5485H1931.36V89.986H1886.93V45.5485ZM1932.48 45.5485H1976.91V89.986H1932.48V45.5485ZM1978.02 45.5485H2022.46V89.986H1978.02V45.5485ZM2023.57 45.5485H2068.01V89.986H2023.57V45.5485ZM2069.12 45.5485H2113.56V89.986H2069.12V45.5485ZM19.4414 91.0969H63.8789V135.534H19.4414V91.0969ZM64.9898 91.0969H109.427V135.534H64.9898V91.0969ZM110.538 91.0969H154.976V135.534H110.538V91.0969ZM156.087 91.0969H200.524V135.534H156.087V91.0969ZM201.635 91.0969H246.073V135.534H201.635V91.0969ZM247.184 91.0969H291.621V135.534H247.184V91.0969ZM292.732 91.0969H337.17V135.534H292.732V91.0969ZM338.28 91.0969H382.718V135.534H338.28V91.0969Z" fill="#070708"/>
<path d="M383.829 91.0969H428.267V135.534H383.829V91.0969Z" fill="#0E0E10"/>
<path d="M429.377 91.0969H473.815V135.534H429.377V91.0969ZM474.926 91.0969H519.363V135.534H474.926V91.0969ZM520.474 91.0969H564.912V135.534H520.474V91.0969ZM566.023 91.0969H610.46V135.534H566.023V91.0969ZM611.571 91.0969H656.009V135.534H611.571V91.0969ZM657.12 91.0969H701.557V135.534H657.12V91.0969ZM702.668 91.0969H747.105V135.534H702.668V91.0969ZM748.216 91.0969H792.654V135.534H748.216V91.0969ZM793.765 91.0969H838.202V135.534H793.765V91.0969ZM839.313 91.0969H883.751V135.534H839.313V91.0969ZM884.862 91.0969H929.299V135.534H884.862V91.0969ZM930.41 91.0969H974.848V135.534H930.41V91.0969ZM975.959 91.0969H1020.4V135.534H975.959V91.0969ZM1021.51 91.0969H1065.94V135.534H1021.51V91.0969ZM1067.06 91.0969H1111.49V135.534H1067.06V91.0969ZM1112.6 91.0969H1157.04V135.534H1112.6V91.0969ZM1158.15 91.0969H1202.59V135.534H1158.15V91.0969ZM1203.7 91.0969H1248.14V135.534H1203.7V91.0969ZM1249.25 91.0969H1293.69V135.534H1249.25V91.0969ZM1294.8 91.0969H1339.24V135.534H1294.8V91.0969ZM1340.35 91.0969H1384.78V135.534H1340.35V91.0969ZM1385.89 91.0969H1430.33V135.534H1385.89V91.0969ZM1431.44 91.0969H1475.88V135.534H1431.44V91.0969ZM1476.99 91.0969H1521.43V135.534H1476.99V91.0969ZM1522.54 91.0969H1566.98V135.534H1522.54V91.0969ZM1568.09 91.0969H1612.53V135.534H1568.09V91.0969ZM1613.64 91.0969H1658.07V135.534H1613.64V91.0969ZM1659.19 91.0969H1703.62V135.534H1659.19V91.0969ZM1704.73 91.0969H1749.17V135.534H1704.73V91.0969ZM1750.28 91.0969H1794.72V135.534H1750.28V91.0969ZM1795.83 91.0969H1840.27V135.534H1795.83V91.0969ZM1841.38 91.0969H1885.82V135.534H1841.38V91.0969ZM1886.93 91.0969H1931.36V135.534H1886.93V91.0969ZM1932.48 91.0969H1976.91V135.534H1932.48V91.0969ZM1978.02 91.0969H2022.46V135.534H1978.02V91.0969ZM2023.57 91.0969H2068.01V135.534H2023.57V91.0969ZM2069.12 91.0969H2113.56V135.534H2069.12V91.0969ZM19.4414 136.645H63.8789V181.083H19.4414V136.645Z" fill="#070708"/>
<path d="M64.9902 136.645H109.428V181.083H64.9902V136.645Z" fill="#0E0E10"/>
<path d="M110.538 136.645H154.976V181.083H110.538V136.645ZM156.087 136.645H200.524V181.083H156.087V136.645ZM201.635 136.645H246.072V181.083H201.635V136.645ZM247.183 136.645H291.621V181.083H247.183V136.645ZM292.732 136.645H337.169V181.083H292.732V136.645ZM338.28 136.645H382.718V181.083H338.28V136.645ZM383.829 136.645H428.266V181.083H383.829V136.645ZM429.377 136.645H473.815V181.083H429.377V136.645ZM474.926 136.645H519.363V181.083H474.926V136.645ZM520.474 136.645H564.911V181.083H520.474V136.645ZM566.022 136.645H610.46V181.083H566.022V136.645ZM611.571 136.645H656.008V181.083H611.571V136.645ZM657.119 136.645H701.557V181.083H657.119V136.645ZM702.668 136.645H747.105V181.083H702.668V136.645ZM748.216 136.645H792.654V181.083H748.216V136.645ZM793.765 136.645H838.202V181.083H793.765V136.645ZM839.313 136.645H883.751V181.083H839.313V136.645ZM884.862 136.645H929.299V181.083H884.862V136.645Z" fill="#070708"/>
<path d="M930.41 136.645H974.848V181.083H930.41V136.645Z" fill="#0E0E10"/>
<path d="M975.959 136.645H1020.4V181.083H975.959V136.645ZM1021.51 136.645H1065.94V181.083H1021.51V136.645ZM1067.06 136.645H1111.49V181.083H1067.06V136.645ZM1112.6 136.645H1157.04V181.083H1112.6V136.645ZM1158.15 136.645H1202.59V181.083H1158.15V136.645ZM1203.7 136.645H1248.14V181.083H1203.7V136.645ZM1249.25 136.645H1293.69V181.083H1249.25V136.645ZM1294.8 136.645H1339.24V181.083H1294.8V136.645ZM1340.35 136.645H1384.78V181.083H1340.35V136.645ZM1385.89 136.645H1430.33V181.083H1385.89V136.645ZM1431.44 136.645H1475.88V181.083H1431.44V136.645ZM1476.99 136.645H1521.43V181.083H1476.99V136.645ZM1522.54 136.645H1566.98V181.083H1522.54V136.645ZM1568.09 136.645H1612.53V181.083H1568.09V136.645ZM1613.64 136.645H1658.07V181.083H1613.64V136.645Z" fill="#070708"/>
<path d="M1659.19 136.645H1703.62V181.083H1659.19V136.645Z" fill="#0E0E10"/>
<path d="M1704.73 136.645H1749.17V181.083H1704.73V136.645ZM1750.28 136.645H1794.72V181.083H1750.28V136.645ZM1795.83 136.645H1840.27V181.083H1795.83V136.645ZM1841.38 136.645H1885.82V181.083H1841.38V136.645ZM1886.93 136.645H1931.36V181.083H1886.93V136.645ZM1932.48 136.645H1976.91V181.083H1932.48V136.645ZM1978.02 136.645H2022.46V181.083H1978.02V136.645ZM2023.57 136.645H2068.01V181.083H2023.57V136.645ZM2069.12 136.645H2113.56V181.083H2069.12V136.645ZM19.4414 182.194H63.8789V226.631H19.4414V182.194ZM64.9898 182.194H109.427V226.631H64.9898V182.194ZM110.538 182.194H154.976V226.631H110.538V182.194ZM156.087 182.194H200.524V226.631H156.087V182.194ZM201.635 182.194H246.073V226.631H201.635V182.194ZM247.184 182.194H291.621V226.631H247.184V182.194ZM292.732 182.194H337.17V226.631H292.732V182.194ZM338.28 182.194H382.718V226.631H338.28V182.194ZM383.829 182.194H428.266V226.631H383.829V182.194ZM429.377 182.194H473.815V226.631H429.377V182.194ZM474.926 182.194H519.363V226.631H474.926V182.194ZM520.474 182.194H564.912V226.631H520.474V182.194Z" fill="#070708"/>
<path d="M566.022 182.194H610.46V226.631H566.022V182.194Z" fill="#0E0E10"/>
<path d="M611.571 182.194H656.009V226.631H611.571V182.194ZM657.12 182.194H701.557V226.631H657.12V182.194ZM702.668 182.194H747.106V226.631H702.668V182.194ZM748.217 182.194H792.654V226.631H748.217V182.194ZM793.765 182.194H838.203V226.631H793.765V182.194ZM839.313 182.194H883.751V226.631H839.313V182.194ZM884.862 182.194H929.299V226.631H884.862V182.194ZM930.41 182.194H974.848V226.631H930.41V182.194ZM975.959 182.194H1020.4V226.631H975.959V182.194ZM1021.51 182.194H1065.94V226.631H1021.51V182.194ZM1067.06 182.194H1111.49V226.631H1067.06V182.194ZM1112.6 182.194H1157.04V226.631H1112.6V182.194Z" fill="#070708"/>
<path d="M1158.15 182.194H1202.59V226.631H1158.15V182.194Z" fill="#0E0E10"/>
<path d="M1203.7 182.194H1248.14V226.631H1203.7V182.194ZM1249.25 182.194H1293.69V226.631H1249.25V182.194ZM1294.8 182.194H1339.24V226.631H1294.8V182.194ZM1340.35 182.194H1384.78V226.631H1340.35V182.194ZM1385.89 182.194H1430.33V226.631H1385.89V182.194ZM1431.44 182.194H1475.88V226.631H1431.44V182.194ZM1476.99 182.194H1521.43V226.631H1476.99V182.194ZM1522.54 182.194H1566.98V226.631H1522.54V182.194ZM1568.09 182.194H1612.53V226.631H1568.09V182.194ZM1613.64 182.194H1658.07V226.631H1613.64V182.194ZM1659.19 182.194H1703.62V226.631H1659.19V182.194ZM1704.73 182.194H1749.17V226.631H1704.73V182.194ZM1750.28 182.194H1794.72V226.631H1750.28V182.194ZM1795.83 182.194H1840.27V226.631H1795.83V182.194ZM1841.38 182.194H1885.82V226.631H1841.38V182.194ZM1886.93 182.194H1931.36V226.631H1886.93V182.194ZM1932.48 182.194H1976.91V226.631H1932.48V182.194ZM1978.02 182.194H2022.46V226.631H1978.02V182.194ZM2023.57 182.194H2068.01V226.631H2023.57V182.194ZM2069.12 182.194H2113.56V226.631H2069.12V182.194ZM19.4414 227.742H63.8789V272.18H19.4414V227.742ZM64.9898 227.742H109.427V272.18H64.9898V227.742ZM110.538 227.742H154.976V272.18H110.538V227.742ZM156.087 227.742H200.524V272.18H156.087V227.742ZM201.635 227.742H246.073V272.18H201.635V227.742ZM247.184 227.742H291.621V272.18H247.184V227.742ZM292.732 227.742H337.17V272.18H292.732V227.742ZM338.28 227.742H382.718V272.18H338.28V227.742ZM383.829 227.742H428.266V272.18H383.829V227.742ZM429.377 227.742H473.815V272.18H429.377V227.742ZM474.926 227.742H519.363V272.18H474.926V227.742ZM520.474 227.742H564.912V272.18H520.474V227.742ZM566.023 227.742H610.46V272.18H566.023V227.742ZM611.571 227.742H656.009V272.18H611.571V227.742ZM657.12 227.742H701.557V272.18H657.12V227.742ZM702.668 227.742H747.105V272.18H702.668V227.742ZM748.216 227.742H792.654V272.18H748.216V227.742ZM793.765 227.742H838.202V272.18H793.765V227.742ZM839.313 227.742H883.751V272.18H839.313V227.742ZM884.862 227.742H929.299V272.18H884.862V227.742ZM930.41 227.742H974.848V272.18H930.41V227.742ZM975.959 227.742H1020.4V272.18H975.959V227.742ZM1021.51 227.742H1065.94V272.18H1021.51V227.742ZM1067.06 227.742H1111.49V272.18H1067.06V227.742ZM1112.6 227.742H1157.04V272.18H1112.6V227.742ZM1158.15 227.742H1202.59V272.18H1158.15V227.742ZM1203.7 227.742H1248.14V272.18H1203.7V227.742ZM1249.25 227.742H1293.69V272.18H1249.25V227.742ZM1294.8 227.742H1339.24V272.18H1294.8V227.742ZM1340.35 227.742H1384.78V272.18H1340.35V227.742ZM1385.89 227.742H1430.33V272.18H1385.89V227.742ZM1431.44 227.742H1475.88V272.18H1431.44V227.742ZM1476.99 227.742H1521.43V272.18H1476.99V227.742ZM1522.54 227.742H1566.98V272.18H1522.54V227.742ZM1568.09 227.742H1612.53V272.18H1568.09V227.742ZM1613.64 227.742H1658.07V272.18H1613.64V227.742ZM1659.19 227.742H1703.62V272.18H1659.19V227.742ZM1704.73 227.742H1749.17V272.18H1704.73V227.742ZM1750.28 227.742H1794.72V272.18H1750.28V227.742ZM1795.83 227.742H1840.27V272.18H1795.83V227.742ZM1841.38 227.742H1885.82V272.18H1841.38V227.742ZM1886.93 227.742H1931.36V272.18H1886.93V227.742ZM1932.48 227.742H1976.91V272.18H1932.48V227.742ZM1978.02 227.742H2022.46V272.18H1978.02V227.742ZM2023.57 227.742H2068.01V272.18H2023.57V227.742ZM2069.12 227.742H2113.56V272.18H2069.12V227.742ZM19.4414 273.291H63.8789V317.728H19.4414V273.291ZM64.9898 273.291H109.427V317.728H64.9898V273.291ZM110.538 273.291H154.976V317.728H110.538V273.291ZM156.087 273.291H200.524V317.728H156.087V273.291ZM201.635 273.291H246.073V317.728H201.635V273.291ZM247.184 273.291H291.621V317.728H247.184V273.291ZM292.732 273.291H337.17V317.728H292.732V273.291Z" fill="#070708"/>
<path d="M338.28 273.291H382.718V317.728H338.28V273.291Z" fill="#0E0E10"/>
<path d="M383.829 273.291H428.266V317.728H383.829V273.291ZM429.377 273.291H473.815V317.728H429.377V273.291ZM474.926 273.291H519.363V317.728H474.926V273.291ZM520.474 273.291H564.912V317.728H520.474V273.291ZM566.023 273.291H610.46V317.728H566.023V273.291ZM611.571 273.291H656.009V317.728H611.571V273.291ZM657.12 273.291H701.557V317.728H657.12V273.291ZM702.668 273.291H747.105V317.728H702.668V273.291ZM748.216 273.291H792.654V317.728H748.216V273.291ZM793.765 273.291H838.202V317.728H793.765V273.291ZM839.313 273.291H883.751V317.728H839.313V273.291ZM884.862 273.291H929.299V317.728H884.862V273.291ZM930.41 273.291H974.848V317.728H930.41V273.291ZM975.959 273.291H1020.4V317.728H975.959V273.291ZM1021.51 273.291H1065.94V317.728H1021.51V273.291ZM1067.06 273.291H1111.49V317.728H1067.06V273.291ZM1112.6 273.291H1157.04V317.728H1112.6V273.291ZM1158.15 273.291H1202.59V317.728H1158.15V273.291ZM1203.7 273.291H1248.14V317.728H1203.7V273.291ZM1249.25 273.291H1293.69V317.728H1249.25V273.291ZM1294.8 273.291H1339.24V317.728H1294.8V273.291ZM1340.35 273.291H1384.78V317.728H1340.35V273.291ZM1385.89 273.291H1430.33V317.728H1385.89V273.291ZM1431.44 273.291H1475.88V317.728H1431.44V273.291ZM1476.99 273.291H1521.43V317.728H1476.99V273.291ZM1522.54 273.291H1566.98V317.728H1522.54V273.291ZM1568.09 273.291H1612.53V317.728H1568.09V273.291ZM1613.64 273.291H1658.07V317.728H1613.64V273.291ZM1659.19 273.291H1703.62V317.728H1659.19V273.291ZM1704.73 273.291H1749.17V317.728H1704.73V273.291ZM1750.28 273.291H1794.72V317.728H1750.28V273.291ZM1795.83 273.291H1840.27V317.728H1795.83V273.291ZM1841.38 273.291H1885.82V317.728H1841.38V273.291ZM1886.93 273.291H1931.36V317.728H1886.93V273.291ZM1932.48 273.291H1976.91V317.728H1932.48V273.291ZM1978.02 273.291H2022.46V317.728H1978.02V273.291ZM2023.57 273.291H2068.01V317.728H2023.57V273.291ZM2069.12 273.291H2113.56V317.728H2069.12V273.291ZM19.4414 318.839H63.8789V363.277H19.4414V318.839ZM64.9898 318.839H109.427V363.277H64.9898V318.839ZM110.538 318.839H154.976V363.277H110.538V318.839ZM156.087 318.839H200.524V363.277H156.087V318.839ZM201.635 318.839H246.073V363.277H201.635V318.839ZM247.184 318.839H291.621V363.277H247.184V318.839ZM292.732 318.839H337.17V363.277H292.732V318.839ZM338.28 318.839H382.718V363.277H338.28V318.839ZM383.829 318.839H428.266V363.277H383.829V318.839ZM429.377 318.839H473.815V363.277H429.377V318.839ZM474.926 318.839H519.363V363.277H474.926V318.839ZM520.474 318.839H564.912V363.277H520.474V318.839ZM566.023 318.839H610.46V363.277H566.023V318.839ZM611.571 318.839H656.009V363.277H611.571V318.839ZM657.12 318.839H701.557V363.277H657.12V318.839ZM702.668 318.839H747.105V363.277H702.668V318.839ZM748.216 318.839H792.654V363.277H748.216V318.839ZM793.765 318.839H838.202V363.277H793.765V318.839ZM839.313 318.839H883.751V363.277H839.313V318.839ZM884.862 318.839H929.299V363.277H884.862V318.839ZM930.41 318.839H974.848V363.277H930.41V318.839ZM975.959 318.839H1020.4V363.277H975.959V318.839ZM1021.51 318.839H1065.94V363.277H1021.51V318.839ZM1067.06 318.839H1111.49V363.277H1067.06V318.839ZM1112.6 318.839H1157.04V363.277H1112.6V318.839ZM1158.15 318.839H1202.59V363.277H1158.15V318.839ZM1203.7 318.839H1248.14V363.277H1203.7V318.839ZM1249.25 318.839H1293.69V363.277H1249.25V318.839ZM1294.8 318.839H1339.24V363.277H1294.8V318.839ZM1340.35 318.839H1384.78V363.277H1340.35V318.839ZM1385.89 318.839H1430.33V363.277H1385.89V318.839ZM1431.44 318.839H1475.88V363.277H1431.44V318.839ZM1476.99 318.839H1521.43V363.277H1476.99V318.839ZM1522.54 318.839H1566.98V363.277H1522.54V318.839ZM1568.09 318.839H1612.53V363.277H1568.09V318.839ZM1613.64 318.839H1658.07V363.277H1613.64V318.839ZM1659.19 318.839H1703.62V363.277H1659.19V318.839ZM1704.73 318.839H1749.17V363.277H1704.73V318.839ZM1750.28 318.839H1794.72V363.277H1750.28V318.839ZM1795.83 318.839H1840.27V363.277H1795.83V318.839Z" fill="#070708"/>
<path d="M1841.38 318.839H1885.82V363.277H1841.38V318.839Z" fill="#0E0E10"/>
<path d="M1886.93 318.839H1931.36V363.277H1886.93V318.839ZM1932.48 318.839H1976.91V363.277H1932.48V318.839ZM1978.02 318.839H2022.46V363.277H1978.02V318.839ZM2023.57 318.839H2068.01V363.277H2023.57V318.839ZM2069.12 318.839H2113.56V363.277H2069.12V318.839ZM19.4414 364.388H63.8789V408.825H19.4414V364.388ZM64.9898 364.388H109.427V408.825H64.9898V364.388ZM110.538 364.388H154.976V408.825H110.538V364.388ZM156.087 364.388H200.524V408.825H156.087V364.388ZM201.635 364.388H246.073V408.825H201.635V364.388ZM247.184 364.388H291.621V408.825H247.184V364.388ZM292.732 364.388H337.17V408.825H292.732V364.388ZM338.28 364.388H382.718V408.825H338.28V364.388ZM383.829 364.388H428.266V408.825H383.829V364.388ZM429.377 364.388H473.815V408.825H429.377V364.388ZM474.926 364.388H519.363V408.825H474.926V364.388ZM520.474 364.388H564.912V408.825H520.474V364.388ZM566.023 364.388H610.46V408.825H566.023V364.388ZM611.571 364.388H656.009V408.825H611.571V364.388ZM657.12 364.388H701.557V408.825H657.12V364.388ZM702.668 364.388H747.105V408.825H702.668V364.388Z" fill="#070708"/>
<path d="M748.217 364.388H792.654V408.825H748.217V364.388Z" fill="#0E0E10"/>
<path d="M793.765 364.388H838.202V408.825H793.765V364.388ZM839.313 364.388H883.751V408.825H839.313V364.388ZM884.862 364.388H929.299V408.825H884.862V364.388ZM930.41 364.388H974.847V408.825H930.41V364.388ZM975.958 364.388H1020.4V408.825H975.958V364.388ZM1021.51 364.388H1065.94V408.825H1021.51V364.388ZM1067.06 364.388H1111.49V408.825H1067.06V364.388ZM1112.6 364.388H1157.04V408.825H1112.6V364.388Z" fill="#070708"/>
<path d="M1158.15 364.388H1202.59V408.825H1158.15V364.388Z" fill="#0E0E10"/>
<path d="M1203.7 364.388H1248.14V408.825H1203.7V364.388ZM1249.25 364.388H1293.69V408.825H1249.25V364.388ZM1294.8 364.388H1339.24V408.825H1294.8V364.388ZM1340.35 364.388H1384.78V408.825H1340.35V364.388ZM1385.89 364.388H1430.33V408.825H1385.89V364.388ZM1431.44 364.388H1475.88V408.825H1431.44V364.388ZM1476.99 364.388H1521.43V408.825H1476.99V364.388ZM1522.54 364.388H1566.98V408.825H1522.54V364.388ZM1568.09 364.388H1612.53V408.825H1568.09V364.388ZM1613.64 364.388H1658.07V408.825H1613.64V364.388ZM1659.19 364.388H1703.62V408.825H1659.19V364.388ZM1704.73 364.388H1749.17V408.825H1704.73V364.388ZM1750.28 364.388H1794.72V408.825H1750.28V364.388ZM1795.83 364.388H1840.27V408.825H1795.83V364.388ZM1841.38 364.388H1885.82V408.825H1841.38V364.388ZM1886.93 364.388H1931.36V408.825H1886.93V364.388ZM1932.48 364.388H1976.91V408.825H1932.48V364.388ZM1978.02 364.388H2022.46V408.825H1978.02V364.388ZM2023.57 364.388H2068.01V408.825H2023.57V364.388ZM2069.12 364.388H2113.56V408.825H2069.12V364.388ZM19.4414 409.936H63.8789V454.373H19.4414V409.936ZM64.9898 409.936H109.427V454.373H64.9898V409.936ZM110.538 409.936H154.976V454.373H110.538V409.936ZM156.087 409.936H200.524V454.373H156.087V409.936ZM201.635 409.936H246.073V454.373H201.635V409.936ZM247.184 409.936H291.621V454.373H247.184V409.936ZM292.732 409.936H337.17V454.373H292.732V409.936ZM338.28 409.936H382.718V454.373H338.28V409.936ZM383.829 409.936H428.266V454.373H383.829V409.936ZM429.377 409.936H473.815V454.373H429.377V409.936ZM474.926 409.936H519.363V454.373H474.926V409.936ZM520.474 409.936H564.912V454.373H520.474V409.936ZM566.023 409.936H610.46V454.373H566.023V409.936ZM611.571 409.936H656.009V454.373H611.571V409.936ZM657.12 409.936H701.557V454.373H657.12V409.936ZM702.668 409.936H747.105V454.373H702.668V409.936ZM748.216 409.936H792.654V454.373H748.216V409.936ZM793.765 409.936H838.202V454.373H793.765V409.936ZM839.313 409.936H883.751V454.373H839.313V409.936ZM884.862 409.936H929.299V454.373H884.862V409.936ZM930.41 409.936H974.848V454.373H930.41V409.936ZM975.959 409.936H1020.4V454.373H975.959V409.936ZM1021.51 409.936H1065.94V454.373H1021.51V409.936ZM1067.06 409.936H1111.49V454.373H1067.06V409.936ZM1112.6 409.936H1157.04V454.373H1112.6V409.936ZM1158.15 409.936H1202.59V454.373H1158.15V409.936ZM1203.7 409.936H1248.14V454.373H1203.7V409.936ZM1249.25 409.936H1293.69V454.373H1249.25V409.936ZM1294.8 409.936H1339.24V454.373H1294.8V409.936ZM1340.35 409.936H1384.78V454.373H1340.35V409.936ZM1385.89 409.936H1430.33V454.373H1385.89V409.936ZM1431.44 409.936H1475.88V454.373H1431.44V409.936ZM1476.99 409.936H1521.43V454.373H1476.99V409.936ZM1522.54 409.936H1566.98V454.373H1522.54V409.936ZM1568.09 409.936H1612.53V454.373H1568.09V409.936ZM1613.64 409.936H1658.07V454.373H1613.64V409.936ZM1659.19 409.936H1703.62V454.373H1659.19V409.936ZM1704.73 409.936H1749.17V454.373H1704.73V409.936ZM1750.28 409.936H1794.72V454.373H1750.28V409.936ZM1795.83 409.936H1840.27V454.373H1795.83V409.936ZM1841.38 409.936H1885.82V454.373H1841.38V409.936ZM1886.93 409.936H1931.36V454.373H1886.93V409.936ZM1932.48 409.936H1976.91V454.373H1932.48V409.936ZM1978.02 409.936H2022.46V454.373H1978.02V409.936ZM2023.57 409.936H2068.01V454.373H2023.57V409.936ZM2069.12 409.936H2113.56V454.373H2069.12V409.936ZM19.4414 455.484H63.8789V499.922H19.4414V455.484ZM64.9898 455.484H109.427V499.922H64.9898V455.484ZM110.538 455.484H154.976V499.922H110.538V455.484ZM156.087 455.484H200.524V499.922H156.087V455.484ZM201.635 455.484H246.073V499.922H201.635V455.484ZM247.184 455.484H291.621V499.922H247.184V455.484ZM292.732 455.484H337.17V499.922H292.732V455.484ZM338.28 455.484H382.718V499.922H338.28V455.484ZM383.829 455.484H428.266V499.922H383.829V455.484Z" fill="#070708"/>
<path d="M429.377 455.484H473.814V499.922H429.377V455.484Z" fill="#0E0E10"/>
<path d="M474.926 455.484H519.363V499.922H474.926V455.484ZM520.474 455.484H564.912V499.922H520.474V455.484ZM566.023 455.484H610.46V499.922H566.023V455.484ZM611.571 455.484H656.009V499.922H611.571V455.484ZM657.12 455.484H701.557V499.922H657.12V455.484ZM702.668 455.484H747.105V499.922H702.668V455.484ZM748.216 455.484H792.654V499.922H748.216V455.484ZM793.765 455.484H838.202V499.922H793.765V455.484ZM839.313 455.484H883.751V499.922H839.313V455.484ZM884.862 455.484H929.299V499.922H884.862V455.484ZM930.41 455.484H974.848V499.922H930.41V455.484ZM975.959 455.484H1020.4V499.922H975.959V455.484ZM1021.51 455.484H1065.94V499.922H1021.51V455.484ZM1067.06 455.484H1111.49V499.922H1067.06V455.484ZM1112.6 455.484H1157.04V499.922H1112.6V455.484ZM1158.15 455.484H1202.59V499.922H1158.15V455.484ZM1203.7 455.484H1248.14V499.922H1203.7V455.484ZM1249.25 455.484H1293.69V499.922H1249.25V455.484ZM1294.8 455.484H1339.24V499.922H1294.8V455.484ZM1340.35 455.484H1384.78V499.922H1340.35V455.484ZM1385.89 455.484H1430.33V499.922H1385.89V455.484ZM1431.44 455.484H1475.88V499.922H1431.44V455.484Z" fill="#070708"/>
<path d="M1476.99 455.484H1521.43V499.922H1476.99V455.484Z" fill="#0E0E10"/>
<path d="M1522.54 455.484H1566.98V499.922H1522.54V455.484ZM1568.09 455.484H1612.53V499.922H1568.09V455.484ZM1613.64 455.484H1658.07V499.922H1613.64V455.484ZM1659.19 455.484H1703.62V499.922H1659.19V455.484ZM1704.73 455.484H1749.17V499.922H1704.73V455.484ZM1750.28 455.484H1794.72V499.922H1750.28V455.484ZM1795.83 455.484H1840.27V499.922H1795.83V455.484ZM1841.38 455.484H1885.82V499.922H1841.38V455.484ZM1886.93 455.484H1931.36V499.922H1886.93V455.484ZM1932.48 455.484H1976.91V499.922H1932.48V455.484ZM1978.02 455.484H2022.46V499.922H1978.02V455.484ZM2023.57 455.484H2068.01V499.922H2023.57V455.484ZM2069.12 455.484H2113.56V499.922H2069.12V455.484ZM19.4414 501.033H63.8789V545.47H19.4414V501.033ZM64.9898 501.033H109.427V545.47H64.9898V501.033ZM110.538 501.033H154.976V545.47H110.538V501.033ZM156.087 501.033H200.524V545.47H156.087V501.033ZM201.635 501.033H246.073V545.47H201.635V501.033ZM247.184 501.033H291.621V545.47H247.184V501.033ZM292.732 501.033H337.17V545.47H292.732V501.033ZM338.28 501.033H382.718V545.47H338.28V501.033ZM383.829 501.033H428.266V545.47H383.829V501.033ZM429.377 501.033H473.815V545.47H429.377V501.033ZM474.926 501.033H519.363V545.47H474.926V501.033ZM520.474 501.033H564.912V545.47H520.474V501.033ZM566.023 501.033H610.46V545.47H566.023V501.033ZM611.571 501.033H656.009V545.47H611.571V501.033ZM657.12 501.033H701.557V545.47H657.12V501.033ZM702.668 501.033H747.105V545.47H702.668V501.033ZM748.216 501.033H792.654V545.47H748.216V501.033ZM793.765 501.033H838.202V545.47H793.765V501.033ZM839.313 501.033H883.751V545.47H839.313V501.033ZM884.862 501.033H929.299V545.47H884.862V501.033ZM930.41 501.033H974.848V545.47H930.41V501.033ZM975.959 501.033H1020.4V545.47H975.959V501.033ZM1021.51 501.033H1065.94V545.47H1021.51V501.033ZM1067.06 501.033H1111.49V545.47H1067.06V501.033ZM1112.6 501.033H1157.04V545.47H1112.6V501.033ZM1158.15 501.033H1202.59V545.47H1158.15V501.033ZM1203.7 501.033H1248.14V545.47H1203.7V501.033ZM1249.25 501.033H1293.69V545.47H1249.25V501.033ZM1294.8 501.033H1339.24V545.47H1294.8V501.033ZM1340.35 501.033H1384.78V545.47H1340.35V501.033ZM1385.89 501.033H1430.33V545.47H1385.89V501.033ZM1431.44 501.033H1475.88V545.47H1431.44V501.033ZM1476.99 501.033H1521.43V545.47H1476.99V501.033ZM1522.54 501.033H1566.98V545.47H1522.54V501.033ZM1568.09 501.033H1612.53V545.47H1568.09V501.033ZM1613.64 501.033H1658.07V545.47H1613.64V501.033Z" fill="#070708"/>
<path d="M1659.19 501.033H1703.62V545.47H1659.19V501.033Z" fill="#0E0E10"/>
<path d="M1704.73 501.033H1749.17V545.47H1704.73V501.033ZM1750.28 501.033H1794.72V545.47H1750.28V501.033ZM1795.83 501.033H1840.27V545.47H1795.83V501.033ZM1841.38 501.033H1885.82V545.47H1841.38V501.033ZM1886.93 501.033H1931.36V545.47H1886.93V501.033ZM1932.48 501.033H1976.91V545.47H1932.48V501.033ZM1978.02 501.033H2022.46V545.47H1978.02V501.033ZM2023.57 501.033H2068.01V545.47H2023.57V501.033ZM2069.12 501.033H2113.56V545.47H2069.12V501.033ZM19.4414 546.581H63.8789V591.019H19.4414V546.581ZM64.9898 546.581H109.427V591.019H64.9898V546.581ZM110.538 546.581H154.976V591.019H110.538V546.581ZM156.087 546.581H200.524V591.019H156.087V546.581ZM201.635 546.581H246.073V591.019H201.635V546.581ZM247.184 546.581H291.621V591.019H247.184V546.581ZM292.732 546.581H337.17V591.019H292.732V546.581ZM338.28 546.581H382.718V591.019H338.28V546.581ZM383.829 546.581H428.266V591.019H383.829V546.581ZM429.377 546.581H473.815V591.019H429.377V546.581ZM474.926 546.581H519.363V591.019H474.926V546.581ZM520.474 546.581H564.912V591.019H520.474V546.581ZM566.023 546.581H610.46V591.019H566.023V546.581ZM611.571 546.581H656.009V591.019H611.571V546.581ZM657.12 546.581H701.557V591.019H657.12V546.581ZM702.668 546.581H747.105V591.019H702.668V546.581ZM748.216 546.581H792.654V591.019H748.216V546.581ZM793.765 546.581H838.202V591.019H793.765V546.581ZM839.313 546.581H883.751V591.019H839.313V546.581ZM884.862 546.581H929.299V591.019H884.862V546.581Z" fill="#070708"/>
<path d="M930.41 546.581H974.848V591.019H930.41V546.581Z" fill="#0E0E10"/>
<path d="M975.959 546.581H1020.4V591.019H975.959V546.581ZM1021.51 546.581H1065.94V591.019H1021.51V546.581ZM1067.06 546.581H1111.49V591.019H1067.06V546.581ZM1112.6 546.581H1157.04V591.019H1112.6V546.581ZM1158.15 546.581H1202.59V591.019H1158.15V546.581ZM1203.7 546.581H1248.14V591.019H1203.7V546.581ZM1249.25 546.581H1293.69V591.019H1249.25V546.581ZM1294.8 546.581H1339.24V591.019H1294.8V546.581ZM1340.35 546.581H1384.78V591.019H1340.35V546.581ZM1385.89 546.581H1430.33V591.019H1385.89V546.581ZM1431.44 546.581H1475.88V591.019H1431.44V546.581ZM1476.99 546.581H1521.43V591.019H1476.99V546.581ZM1522.54 546.581H1566.98V591.019H1522.54V546.581ZM1568.09 546.581H1612.53V591.019H1568.09V546.581ZM1613.64 546.581H1658.07V591.019H1613.64V546.581ZM1659.19 546.581H1703.62V591.019H1659.19V546.581ZM1704.73 546.581H1749.17V591.019H1704.73V546.581ZM1750.28 546.581H1794.72V591.019H1750.28V546.581ZM1795.83 546.581H1840.27V591.019H1795.83V546.581ZM1841.38 546.581H1885.82V591.019H1841.38V546.581ZM1886.93 546.581H1931.36V591.019H1886.93V546.581ZM1932.48 546.581H1976.91V591.019H1932.48V546.581ZM1978.02 546.581H2022.46V591.019H1978.02V546.581ZM2023.57 546.581H2068.01V591.019H2023.57V546.581ZM2069.12 546.581H2113.56V591.019H2069.12V546.581ZM19.4414 592.13H63.8789V636.567H19.4414V592.13ZM64.9898 592.13H109.427V636.567H64.9898V592.13ZM110.538 592.13H154.976V636.567H110.538V592.13Z" fill="#070708"/>
<path d="M156.087 592.13H200.524V636.567H156.087V592.13Z" fill="#0E0E10"/>
<path d="M201.635 592.13H246.072V636.567H201.635V592.13ZM247.183 592.13H291.621V636.567H247.183V592.13ZM292.732 592.13H337.169V636.567H292.732V592.13ZM338.28 592.13H382.718V636.567H338.28V592.13ZM383.829 592.13H428.266V636.567H383.829V592.13ZM429.377 592.13H473.814V636.567H429.377V592.13ZM474.925 592.13H519.363V636.567H474.925V592.13ZM520.474 592.13H564.911V636.567H520.474V592.13ZM566.022 592.13H610.46V636.567H566.022V592.13ZM611.571 592.13H656.008V636.567H611.571V592.13ZM657.119 592.13H701.557V636.567H657.119V592.13ZM702.668 592.13H747.105V636.567H702.668V592.13ZM748.216 592.13H792.654V636.567H748.216V592.13ZM793.764 592.13H838.202V636.567H793.764V592.13ZM839.313 592.13H883.75V636.567H839.313V592.13ZM884.861 592.13H929.299V636.567H884.861V592.13ZM930.41 592.13H974.847V636.567H930.41V592.13ZM975.958 592.13H1020.4V636.567H975.958V592.13ZM1021.51 592.13H1065.94V636.567H1021.51V592.13ZM1067.06 592.13H1111.49V636.567H1067.06V592.13ZM1112.6 592.13H1157.04V636.567H1112.6V592.13ZM1158.15 592.13H1202.59V636.567H1158.15V592.13ZM1203.7 592.13H1248.14V636.567H1203.7V592.13ZM1249.25 592.13H1293.69V636.567H1249.25V592.13ZM1294.8 592.13H1339.23V636.567H1294.8V592.13Z" fill="#070708"/>
<path d="M1340.35 592.13H1384.78V636.567H1340.35V592.13Z" fill="#0E0E10"/>
<path d="M1385.89 592.13H1430.33V636.567H1385.89V592.13ZM1431.44 592.13H1475.88V636.567H1431.44V592.13ZM1476.99 592.13H1521.43V636.567H1476.99V592.13ZM1522.54 592.13H1566.98V636.567H1522.54V592.13ZM1568.09 592.13H1612.53V636.567H1568.09V592.13ZM1613.64 592.13H1658.07V636.567H1613.64V592.13ZM1659.19 592.13H1703.62V636.567H1659.19V592.13ZM1704.73 592.13H1749.17V636.567H1704.73V592.13ZM1750.28 592.13H1794.72V636.567H1750.28V592.13ZM1795.83 592.13H1840.27V636.567H1795.83V592.13ZM1841.38 592.13H1885.82V636.567H1841.38V592.13ZM1886.93 592.13H1931.36V636.567H1886.93V592.13ZM1932.48 592.13H1976.91V636.567H1932.48V592.13ZM1978.02 592.13H2022.46V636.567H1978.02V592.13ZM2023.57 592.13H2068.01V636.567H2023.57V592.13ZM2069.12 592.13H2113.56V636.567H2069.12V592.13ZM19.4414 637.678H63.8789V682.116H19.4414V637.678ZM64.9898 637.678H109.427V682.116H64.9898V637.678ZM110.538 637.678H154.976V682.116H110.538V637.678ZM156.087 637.678H200.524V682.116H156.087V637.678ZM201.635 637.678H246.073V682.116H201.635V637.678ZM247.184 637.678H291.621V682.116H247.184V637.678ZM292.732 637.678H337.17V682.116H292.732V637.678ZM338.28 637.678H382.718V682.116H338.28V637.678ZM383.829 637.678H428.266V682.116H383.829V637.678ZM429.377 637.678H473.815V682.116H429.377V637.678ZM474.926 637.678H519.363V682.116H474.926V637.678ZM520.474 637.678H564.912V682.116H520.474V637.678Z" fill="#070708"/>
<path d="M566.022 637.678H610.46V682.116H566.022V637.678Z" fill="#0E0E10"/>
<path d="M611.571 637.678H656.009V682.116H611.571V637.678ZM657.12 637.678H701.557V682.116H657.12V637.678ZM702.668 637.678H747.105V682.116H702.668V637.678ZM748.216 637.678H792.654V682.116H748.216V637.678ZM793.765 637.678H838.202V682.116H793.765V637.678ZM839.313 637.678H883.751V682.116H839.313V637.678ZM884.862 637.678H929.299V682.116H884.862V637.678ZM930.41 637.678H974.848V682.116H930.41V637.678ZM975.959 637.678H1020.4V682.116H975.959V637.678ZM1021.51 637.678H1065.94V682.116H1021.51V637.678ZM1067.06 637.678H1111.49V682.116H1067.06V637.678ZM1112.6 637.678H1157.04V682.116H1112.6V637.678ZM1158.15 637.678H1202.59V682.116H1158.15V637.678ZM1203.7 637.678H1248.14V682.116H1203.7V637.678ZM1249.25 637.678H1293.69V682.116H1249.25V637.678ZM1294.8 637.678H1339.24V682.116H1294.8V637.678ZM1340.35 637.678H1384.78V682.116H1340.35V637.678ZM1385.89 637.678H1430.33V682.116H1385.89V637.678ZM1431.44 637.678H1475.88V682.116H1431.44V637.678ZM1476.99 637.678H1521.43V682.116H1476.99V637.678ZM1522.54 637.678H1566.98V682.116H1522.54V637.678ZM1568.09 637.678H1612.53V682.116H1568.09V637.678ZM1613.64 637.678H1658.07V682.116H1613.64V637.678ZM1659.19 637.678H1703.62V682.116H1659.19V637.678ZM1704.73 637.678H1749.17V682.116H1704.73V637.678ZM1750.28 637.678H1794.72V682.116H1750.28V637.678ZM1795.83 637.678H1840.27V682.116H1795.83V637.678ZM1841.38 637.678H1885.82V682.116H1841.38V637.678ZM1886.93 637.678H1931.36V682.116H1886.93V637.678ZM1932.48 637.678H1976.91V682.116H1932.48V637.678ZM1978.02 637.678H2022.46V682.116H1978.02V637.678ZM2023.57 637.678H2068.01V682.116H2023.57V637.678ZM2069.12 637.678H2113.56V682.116H2069.12V637.678ZM19.4414 683.227H63.8789V727.664H19.4414V683.227ZM64.9898 683.227H109.427V727.664H64.9898V683.227ZM110.538 683.227H154.976V727.664H110.538V683.227ZM156.087 683.227H200.524V727.664H156.087V683.227ZM201.635 683.227H246.073V727.664H201.635V683.227ZM247.184 683.227H291.621V727.664H247.184V683.227ZM292.732 683.227H337.17V727.664H292.732V683.227ZM338.28 683.227H382.718V727.664H338.28V683.227ZM383.829 683.227H428.266V727.664H383.829V683.227ZM429.377 683.227H473.815V727.664H429.377V683.227ZM474.926 683.227H519.363V727.664H474.926V683.227ZM520.474 683.227H564.912V727.664H520.474V683.227ZM566.023 683.227H610.46V727.664H566.023V683.227ZM611.571 683.227H656.009V727.664H611.571V683.227ZM657.12 683.227H701.557V727.664H657.12V683.227ZM702.668 683.227H747.105V727.664H702.668V683.227ZM748.216 683.227H792.654V727.664H748.216V683.227ZM793.765 683.227H838.202V727.664H793.765V683.227ZM839.313 683.227H883.751V727.664H839.313V683.227ZM884.862 683.227H929.299V727.664H884.862V683.227ZM930.41 683.227H974.848V727.664H930.41V683.227ZM975.959 683.227H1020.4V727.664H975.959V683.227ZM1021.51 683.227H1065.94V727.664H1021.51V683.227ZM1067.06 683.227H1111.49V727.664H1067.06V683.227ZM1112.6 683.227H1157.04V727.664H1112.6V683.227ZM1158.15 683.227H1202.59V727.664H1158.15V683.227ZM1203.7 683.227H1248.14V727.664H1203.7V683.227ZM1249.25 683.227H1293.69V727.664H1249.25V683.227ZM1294.8 683.227H1339.24V727.664H1294.8V683.227ZM1340.35 683.227H1384.78V727.664H1340.35V683.227ZM1385.89 683.227H1430.33V727.664H1385.89V683.227ZM1431.44 683.227H1475.88V727.664H1431.44V683.227ZM1476.99 683.227H1521.43V727.664H1476.99V683.227ZM1522.54 683.227H1566.98V727.664H1522.54V683.227ZM1568.09 683.227H1612.53V727.664H1568.09V683.227ZM1613.64 683.227H1658.07V727.664H1613.64V683.227ZM1659.19 683.227H1703.62V727.664H1659.19V683.227ZM1704.73 683.227H1749.17V727.664H1704.73V683.227ZM1750.28 683.227H1794.72V727.664H1750.28V683.227ZM1795.83 683.227H1840.27V727.664H1795.83V683.227ZM1841.38 683.227H1885.82V727.664H1841.38V683.227ZM1886.93 683.227H1931.36V727.664H1886.93V683.227ZM1932.48 683.227H1976.91V727.664H1932.48V683.227ZM1978.02 683.227H2022.46V727.664H1978.02V683.227ZM2023.57 683.227H2068.01V727.664H2023.57V683.227ZM2069.12 683.227H2113.56V727.664H2069.12V683.227ZM19.4414 728.775H63.8789V773.212H19.4414V728.775ZM64.9898 728.775H109.427V773.212H64.9898V728.775ZM110.538 728.775H154.976V773.212H110.538V728.775ZM156.087 728.775H200.524V773.212H156.087V728.775ZM201.635 728.775H246.073V773.212H201.635V728.775ZM247.184 728.775H291.621V773.212H247.184V728.775ZM292.732 728.775H337.17V773.212H292.732V728.775ZM338.28 728.775H382.718V773.212H338.28V728.775ZM383.829 728.775H428.266V773.212H383.829V728.775ZM429.377 728.775H473.815V773.212H429.377V728.775ZM474.926 728.775H519.363V773.212H474.926V728.775ZM520.474 728.775H564.912V773.212H520.474V728.775ZM566.023 728.775H610.46V773.212H566.023V728.775ZM611.571 728.775H656.009V773.212H611.571V728.775ZM657.12 728.775H701.557V773.212H657.12V728.775ZM702.668 728.775H747.105V773.212H702.668V728.775ZM748.216 728.775H792.654V773.212H748.216V728.775ZM793.765 728.775H838.202V773.212H793.765V728.775ZM839.313 728.775H883.751V773.212H839.313V728.775ZM884.862 728.775H929.299V773.212H884.862V728.775ZM930.41 728.775H974.848V773.212H930.41V728.775ZM975.959 728.775H1020.4V773.212H975.959V728.775ZM1021.51 728.775H1065.94V773.212H1021.51V728.775ZM1067.06 728.775H1111.49V773.212H1067.06V728.775ZM1112.6 728.775H1157.04V773.212H1112.6V728.775Z" fill="#070708"/>
<path d="M1158.15 728.775H1202.59V773.212H1158.15V728.775Z" fill="#0E0E10"/>
<path d="M1203.7 728.775H1248.14V773.212H1203.7V728.775ZM1249.25 728.775H1293.69V773.212H1249.25V728.775ZM1294.8 728.775H1339.24V773.212H1294.8V728.775ZM1340.35 728.775H1384.78V773.212H1340.35V728.775ZM1385.89 728.775H1430.33V773.212H1385.89V728.775ZM1431.44 728.775H1475.88V773.212H1431.44V728.775ZM1476.99 728.775H1521.43V773.212H1476.99V728.775ZM1522.54 728.775H1566.98V773.212H1522.54V728.775ZM1568.09 728.775H1612.53V773.212H1568.09V728.775Z" fill="#070708"/>
<path d="M1613.64 728.775H1658.07V773.212H1613.64V728.775Z" fill="#0E0E10"/>
<path d="M1659.19 728.775H1703.62V773.212H1659.19V728.775ZM1704.73 728.775H1749.17V773.212H1704.73V728.775ZM1750.28 728.775H1794.72V773.212H1750.28V728.775ZM1795.83 728.775H1840.27V773.212H1795.83V728.775ZM1841.38 728.775H1885.82V773.212H1841.38V728.775ZM1886.93 728.775H1931.37V773.212H1886.93V728.775Z" fill="#070708"/>
<path d="M1932.48 728.775H1976.91V773.212H1932.48V728.775Z" fill="#0E0E10"/>
<path d="M1978.02 728.775H2022.46V773.212H1978.02V728.775ZM2023.57 728.775H2068.01V773.212H2023.57V728.775ZM2069.12 728.775H2113.56V773.212H2069.12V728.775ZM19.4414 774.323H63.8789V818.761H19.4414V774.323ZM64.9898 774.323H109.427V818.761H64.9898V774.323Z" fill="#070708"/>
<path d="M110.538 774.323H154.976V818.761H110.538V774.323Z" fill="#0E0E10"/>
<path d="M156.087 774.323H200.524V818.761H156.087V774.323ZM201.635 774.323H246.073V818.761H201.635V774.323ZM247.184 774.323H291.621V818.761H247.184V774.323ZM292.732 774.323H337.17V818.761H292.732V774.323ZM338.28 774.323H382.718V818.761H338.28V774.323ZM383.829 774.323H428.266V818.761H383.829V774.323ZM429.377 774.323H473.815V818.761H429.377V774.323ZM474.926 774.323H519.363V818.761H474.926V774.323ZM520.474 774.323H564.912V818.761H520.474V774.323ZM566.023 774.323H610.46V818.761H566.023V774.323ZM611.571 774.323H656.009V818.761H611.571V774.323ZM657.12 774.323H701.557V818.761H657.12V774.323ZM702.668 774.323H747.105V818.761H702.668V774.323ZM748.216 774.323H792.654V818.761H748.216V774.323ZM793.765 774.323H838.202V818.761H793.765V774.323ZM839.313 774.323H883.751V818.761H839.313V774.323ZM884.862 774.323H929.299V818.761H884.862V774.323ZM930.41 774.323H974.848V818.761H930.41V774.323ZM975.959 774.323H1020.4V818.761H975.959V774.323ZM1021.51 774.323H1065.94V818.761H1021.51V774.323ZM1067.06 774.323H1111.49V818.761H1067.06V774.323ZM1112.6 774.323H1157.04V818.761H1112.6V774.323ZM1158.15 774.323H1202.59V818.761H1158.15V774.323ZM1203.7 774.323H1248.14V818.761H1203.7V774.323ZM1249.25 774.323H1293.69V818.761H1249.25V774.323ZM1294.8 774.323H1339.24V818.761H1294.8V774.323ZM1340.35 774.323H1384.78V818.761H1340.35V774.323ZM1385.89 774.323H1430.33V818.761H1385.89V774.323ZM1431.44 774.323H1475.88V818.761H1431.44V774.323ZM1476.99 774.323H1521.43V818.761H1476.99V774.323ZM1522.54 774.323H1566.98V818.761H1522.54V774.323ZM1568.09 774.323H1612.53V818.761H1568.09V774.323ZM1613.64 774.323H1658.07V818.761H1613.64V774.323ZM1659.19 774.323H1703.62V818.761H1659.19V774.323ZM1704.73 774.323H1749.17V818.761H1704.73V774.323ZM1750.28 774.323H1794.72V818.761H1750.28V774.323ZM1795.83 774.323H1840.27V818.761H1795.83V774.323ZM1841.38 774.323H1885.82V818.761H1841.38V774.323ZM1886.93 774.323H1931.36V818.761H1886.93V774.323ZM1932.48 774.323H1976.91V818.761H1932.48V774.323ZM1978.02 774.323H2022.46V818.761H1978.02V774.323ZM2023.57 774.323H2068.01V818.761H2023.57V774.323ZM2069.12 774.323H2113.56V818.761H2069.12V774.323ZM19.4414 819.872H63.8789V864.309H19.4414V819.872ZM64.9898 819.872H109.427V864.309H64.9898V819.872ZM110.538 819.872H154.976V864.309H110.538V819.872ZM156.087 819.872H200.524V864.309H156.087V819.872ZM201.635 819.872H246.073V864.309H201.635V819.872ZM247.184 819.872H291.621V864.309H247.184V819.872ZM292.732 819.872H337.17V864.309H292.732V819.872ZM338.28 819.872H382.718V864.309H338.28V819.872ZM383.829 819.872H428.266V864.309H383.829V819.872ZM429.377 819.872H473.815V864.309H429.377V819.872ZM474.926 819.872H519.363V864.309H474.926V819.872ZM520.474 819.872H564.912V864.309H520.474V819.872ZM566.023 819.872H610.46V864.309H566.023V819.872ZM611.571 819.872H656.009V864.309H611.571V819.872ZM657.12 819.872H701.557V864.309H657.12V819.872ZM702.668 819.872H747.105V864.309H702.668V819.872ZM748.216 819.872H792.654V864.309H748.216V819.872ZM793.765 819.872H838.202V864.309H793.765V819.872ZM839.313 819.872H883.751V864.309H839.313V819.872ZM884.862 819.872H929.299V864.309H884.862V819.872ZM930.41 819.872H974.848V864.309H930.41V819.872ZM975.959 819.872H1020.4V864.309H975.959V819.872ZM1021.51 819.872H1065.94V864.309H1021.51V819.872ZM1067.06 819.872H1111.49V864.309H1067.06V819.872ZM1112.6 819.872H1157.04V864.309H1112.6V819.872ZM1158.15 819.872H1202.59V864.309H1158.15V819.872ZM1203.7 819.872H1248.14V864.309H1203.7V819.872ZM1249.25 819.872H1293.69V864.309H1249.25V819.872ZM1294.8 819.872H1339.24V864.309H1294.8V819.872ZM1340.35 819.872H1384.78V864.309H1340.35V819.872ZM1385.89 819.872H1430.33V864.309H1385.89V819.872ZM1431.44 819.872H1475.88V864.309H1431.44V819.872ZM1476.99 819.872H1521.43V864.309H1476.99V819.872ZM1522.54 819.872H1566.98V864.309H1522.54V819.872ZM1568.09 819.872H1612.53V864.309H1568.09V819.872ZM1613.64 819.872H1658.07V864.309H1613.64V819.872ZM1659.19 819.872H1703.62V864.309H1659.19V819.872ZM1704.73 819.872H1749.17V864.309H1704.73V819.872ZM1750.28 819.872H1794.72V864.309H1750.28V819.872ZM1795.83 819.872H1840.27V864.309H1795.83V819.872ZM1841.38 819.872H1885.82V864.309H1841.38V819.872ZM1886.93 819.872H1931.36V864.309H1886.93V819.872ZM1932.48 819.872H1976.91V864.309H1932.48V819.872ZM1978.02 819.872H2022.46V864.309H1978.02V819.872ZM2023.57 819.872H2068.01V864.309H2023.57V819.872ZM2069.12 819.872H2113.56V864.309H2069.12V819.872ZM19.4414 865.42H63.8789V909.858H19.4414V865.42ZM64.9898 865.42H109.427V909.858H64.9898V865.42ZM110.538 865.42H154.976V909.858H110.538V865.42ZM156.087 865.42H200.524V909.858H156.087V865.42ZM201.635 865.42H246.073V909.858H201.635V865.42ZM247.184 865.42H291.621V909.858H247.184V865.42ZM292.732 865.42H337.17V909.858H292.732V865.42ZM338.28 865.42H382.718V909.858H338.28V865.42ZM383.829 865.42H428.266V909.858H383.829V865.42ZM429.377 865.42H473.815V909.858H429.377V865.42ZM474.926 865.42H519.363V909.858H474.926V865.42ZM520.474 865.42H564.912V909.858H520.474V865.42ZM566.023 865.42H610.46V909.858H566.023V865.42ZM611.571 865.42H656.009V909.858H611.571V865.42ZM657.12 865.42H701.557V909.858H657.12V865.42ZM702.668 865.42H747.105V909.858H702.668V865.42ZM748.216 865.42H792.654V909.858H748.216V865.42Z" fill="#070708"/>
<path d="M793.765 865.42H838.202V909.858H793.765V865.42Z" fill="#0E0E10"/>
<path d="M839.313 865.42H883.751V909.858H839.313V865.42ZM884.862 865.42H929.299V909.858H884.862V865.42ZM930.41 865.42H974.848V909.858H930.41V865.42ZM975.959 865.42H1020.4V909.858H975.959V865.42ZM1021.51 865.42H1065.94V909.858H1021.51V865.42ZM1067.06 865.42H1111.49V909.858H1067.06V865.42ZM1112.6 865.42H1157.04V909.858H1112.6V865.42ZM1158.15 865.42H1202.59V909.858H1158.15V865.42ZM1203.7 865.42H1248.14V909.858H1203.7V865.42ZM1249.25 865.42H1293.69V909.858H1249.25V865.42ZM1294.8 865.42H1339.24V909.858H1294.8V865.42ZM1340.35 865.42H1384.78V909.858H1340.35V865.42ZM1385.89 865.42H1430.33V909.858H1385.89V865.42ZM1431.44 865.42H1475.88V909.858H1431.44V865.42ZM1476.99 865.42H1521.43V909.858H1476.99V865.42ZM1522.54 865.42H1566.98V909.858H1522.54V865.42ZM1568.09 865.42H1612.53V909.858H1568.09V865.42ZM1613.64 865.42H1658.07V909.858H1613.64V865.42ZM1659.19 865.42H1703.62V909.858H1659.19V865.42ZM1704.73 865.42H1749.17V909.858H1704.73V865.42ZM1750.28 865.42H1794.72V909.858H1750.28V865.42ZM1795.83 865.42H1840.27V909.858H1795.83V865.42ZM1841.38 865.42H1885.82V909.858H1841.38V865.42ZM1886.93 865.42H1931.36V909.858H1886.93V865.42ZM1932.48 865.42H1976.91V909.858H1932.48V865.42ZM1978.02 865.42H2022.46V909.858H1978.02V865.42ZM2023.57 865.42H2068.01V909.858H2023.57V865.42ZM2069.12 865.42H2113.56V909.858H2069.12V865.42ZM19.4414 910.969H63.8789V955.406H19.4414V910.969ZM64.9898 910.969H109.427V955.406H64.9898V910.969ZM110.538 910.969H154.976V955.406H110.538V910.969ZM156.087 910.969H200.524V955.406H156.087V910.969ZM201.635 910.969H246.073V955.406H201.635V910.969ZM247.184 910.969H291.621V955.406H247.184V910.969ZM292.732 910.969H337.17V955.406H292.732V910.969Z" fill="#070708"/>
<path d="M338.28 910.969H382.718V955.406H338.28V910.969Z" fill="#0E0E10"/>
<path d="M383.829 910.969H428.267V955.406H383.829V910.969ZM429.378 910.969H473.815V955.406H429.378V910.969ZM474.926 910.969H519.363V955.406H474.926V910.969ZM520.474 910.969H564.912V955.406H520.474V910.969ZM566.023 910.969H610.46V955.406H566.023V910.969ZM611.571 910.969H656.009V955.406H611.571V910.969ZM657.12 910.969H701.557V955.406H657.12V910.969ZM702.668 910.969H747.106V955.406H702.668V910.969ZM748.217 910.969H792.654V955.406H748.217V910.969ZM793.765 910.969H838.203V955.406H793.765V910.969ZM839.313 910.969H883.751V955.406H839.313V910.969ZM884.862 910.969H929.299V955.406H884.862V910.969ZM930.41 910.969H974.848V955.406H930.41V910.969ZM975.959 910.969H1020.4V955.406H975.959V910.969ZM1021.51 910.969H1065.94V955.406H1021.51V910.969ZM1067.06 910.969H1111.49V955.406H1067.06V910.969ZM1112.6 910.969H1157.04V955.406H1112.6V910.969ZM1158.15 910.969H1202.59V955.406H1158.15V910.969ZM1203.7 910.969H1248.14V955.406H1203.7V910.969Z" fill="#070708"/>
<path d="M1249.25 910.969H1293.69V955.406H1249.25V910.969Z" fill="#0E0E10"/>
<path d="M1294.8 910.969H1339.24V955.406H1294.8V910.969ZM1340.35 910.969H1384.78V955.406H1340.35V910.969ZM1385.89 910.969H1430.33V955.406H1385.89V910.969ZM1431.44 910.969H1475.88V955.406H1431.44V910.969ZM1476.99 910.969H1521.43V955.406H1476.99V910.969ZM1522.54 910.969H1566.98V955.406H1522.54V910.969ZM1568.09 910.969H1612.53V955.406H1568.09V910.969ZM1613.64 910.969H1658.07V955.406H1613.64V910.969ZM1659.19 910.969H1703.62V955.406H1659.19V910.969ZM1704.73 910.969H1749.17V955.406H1704.73V910.969ZM1750.28 910.969H1794.72V955.406H1750.28V910.969ZM1795.83 910.969H1840.27V955.406H1795.83V910.969ZM1841.38 910.969H1885.82V955.406H1841.38V910.969ZM1886.93 910.969H1931.36V955.406H1886.93V910.969ZM1932.48 910.969H1976.91V955.406H1932.48V910.969ZM1978.02 910.969H2022.46V955.406H1978.02V910.969ZM2023.57 910.969H2068.01V955.406H2023.57V910.969ZM2069.12 910.969H2113.56V955.406H2069.12V910.969ZM19.4414 956.517H63.8789V1000.95H19.4414V956.517ZM64.9898 956.517H109.427V1000.95H64.9898V956.517ZM110.538 956.517H154.976V1000.95H110.538V956.517ZM156.087 956.517H200.524V1000.95H156.087V956.517ZM201.635 956.517H246.073V1000.95H201.635V956.517ZM247.184 956.517H291.621V1000.95H247.184V956.517ZM292.732 956.517H337.17V1000.95H292.732V956.517ZM338.28 956.517H382.718V1000.95H338.28V956.517ZM383.829 956.517H428.266V1000.95H383.829V956.517ZM429.377 956.517H473.815V1000.95H429.377V956.517ZM474.926 956.517H519.363V1000.95H474.926V956.517ZM520.474 956.517H564.912V1000.95H520.474V956.517ZM566.023 956.517H610.46V1000.95H566.023V956.517ZM611.571 956.517H656.009V1000.95H611.571V956.517ZM657.12 956.517H701.557V1000.95H657.12V956.517ZM702.668 956.517H747.105V1000.95H702.668V956.517ZM748.216 956.517H792.654V1000.95H748.216V956.517ZM793.765 956.517H838.202V1000.95H793.765V956.517ZM839.313 956.517H883.751V1000.95H839.313V956.517ZM884.862 956.517H929.299V1000.95H884.862V956.517ZM930.41 956.517H974.848V1000.95H930.41V956.517ZM975.959 956.517H1020.4V1000.95H975.959V956.517Z" fill="#070708"/>
<path d="M1021.51 956.517H1065.94V1000.95H1021.51V956.517Z" fill="#0E0E10"/>
<path d="M1067.06 956.517H1111.49V1000.95H1067.06V956.517ZM1112.6 956.517H1157.04V1000.95H1112.6V956.517ZM1158.15 956.517H1202.59V1000.95H1158.15V956.517ZM1203.7 956.517H1248.14V1000.95H1203.7V956.517ZM1249.25 956.517H1293.69V1000.95H1249.25V956.517ZM1294.8 956.517H1339.24V1000.95H1294.8V956.517ZM1340.35 956.517H1384.78V1000.95H1340.35V956.517ZM1385.89 956.517H1430.33V1000.95H1385.89V956.517ZM1431.44 956.517H1475.88V1000.95H1431.44V956.517ZM1476.99 956.517H1521.43V1000.95H1476.99V956.517ZM1522.54 956.517H1566.98V1000.95H1522.54V956.517ZM1568.09 956.517H1612.53V1000.95H1568.09V956.517ZM1613.64 956.517H1658.07V1000.95H1613.64V956.517ZM1659.19 956.517H1703.62V1000.95H1659.19V956.517ZM1704.73 956.517H1749.17V1000.95H1704.73V956.517ZM1750.28 956.517H1794.72V1000.95H1750.28V956.517ZM1795.83 956.517H1840.27V1000.95H1795.83V956.517ZM1841.38 956.517H1885.82V1000.95H1841.38V956.517ZM1886.93 956.517H1931.36V1000.95H1886.93V956.517ZM1932.48 956.517H1976.91V1000.95H1932.48V956.517ZM1978.02 956.517H2022.46V1000.95H1978.02V956.517ZM2023.57 956.517H2068.01V1000.95H2023.57V956.517ZM2069.12 956.517H2113.56V1000.95H2069.12V956.517ZM19.4414 1002.07H63.8789V1046.5H19.4414V1002.07ZM64.9898 1002.07H109.427V1046.5H64.9898V1002.07ZM110.538 1002.07H154.976V1046.5H110.538V1002.07ZM156.087 1002.07H200.524V1046.5H156.087V1002.07ZM201.635 1002.07H246.073V1046.5H201.635V1002.07ZM247.184 1002.07H291.621V1046.5H247.184V1002.07ZM292.732 1002.07H337.17V1046.5H292.732V1002.07ZM338.28 1002.07H382.718V1046.5H338.28V1002.07ZM383.829 1002.07H428.266V1046.5H383.829V1002.07ZM429.377 1002.07H473.815V1046.5H429.377V1002.07ZM474.926 1002.07H519.363V1046.5H474.926V1002.07ZM520.474 1002.07H564.912V1046.5H520.474V1002.07ZM566.023 1002.07H610.46V1046.5H566.023V1002.07ZM611.571 1002.07H656.009V1046.5H611.571V1002.07ZM657.12 1002.07H701.557V1046.5H657.12V1002.07ZM702.668 1002.07H747.105V1046.5H702.668V1002.07ZM748.216 1002.07H792.654V1046.5H748.216V1002.07ZM793.765 1002.07H838.202V1046.5H793.765V1002.07ZM839.313 1002.07H883.751V1046.5H839.313V1002.07ZM884.862 1002.07H929.299V1046.5H884.862V1002.07ZM930.41 1002.07H974.848V1046.5H930.41V1002.07ZM975.959 1002.07H1020.4V1046.5H975.959V1002.07ZM1021.51 1002.07H1065.94V1046.5H1021.51V1002.07ZM1067.06 1002.07H1111.49V1046.5H1067.06V1002.07ZM1112.6 1002.07H1157.04V1046.5H1112.6V1002.07ZM1158.15 1002.07H1202.59V1046.5H1158.15V1002.07ZM1203.7 1002.07H1248.14V1046.5H1203.7V1002.07ZM1249.25 1002.07H1293.69V1046.5H1249.25V1002.07ZM1294.8 1002.07H1339.24V1046.5H1294.8V1002.07ZM1340.35 1002.07H1384.78V1046.5H1340.35V1002.07ZM1385.89 1002.07H1430.33V1046.5H1385.89V1002.07ZM1431.44 1002.07H1475.88V1046.5H1431.44V1002.07ZM1476.99 1002.07H1521.43V1046.5H1476.99V1002.07ZM1522.54 1002.07H1566.98V1046.5H1522.54V1002.07ZM1568.09 1002.07H1612.53V1046.5H1568.09V1002.07ZM1613.64 1002.07H1658.07V1046.5H1613.64V1002.07ZM1659.19 1002.07H1703.62V1046.5H1659.19V1002.07ZM1704.73 1002.07H1749.17V1046.5H1704.73V1002.07ZM1750.28 1002.07H1794.72V1046.5H1750.28V1002.07ZM1795.83 1002.07H1840.27V1046.5H1795.83V1002.07ZM1841.38 1002.07H1885.82V1046.5H1841.38V1002.07ZM1886.93 1002.07H1931.36V1046.5H1886.93V1002.07ZM1932.48 1002.07H1976.91V1046.5H1932.48V1002.07ZM1978.02 1002.07H2022.46V1046.5H1978.02V1002.07ZM2023.57 1002.07H2068.01V1046.5H2023.57V1002.07ZM2069.12 1002.07H2113.56V1046.5H2069.12V1002.07ZM19.4414 1047.61H63.8789V1092.05H19.4414V1047.61ZM64.9898 1047.61H109.427V1092.05H64.9898V1047.61ZM110.538 1047.61H154.976V1092.05H110.538V1047.61ZM156.087 1047.61H200.524V1092.05H156.087V1047.61ZM201.635 1047.61H246.073V1092.05H201.635V1047.61ZM247.184 1047.61H291.621V1092.05H247.184V1047.61ZM292.732 1047.61H337.17V1092.05H292.732V1047.61ZM338.28 1047.61H382.718V1092.05H338.28V1047.61ZM383.829 1047.61H428.266V1092.05H383.829V1047.61ZM429.377 1047.61H473.815V1092.05H429.377V1047.61ZM474.926 1047.61H519.363V1092.05H474.926V1047.61ZM520.474 1047.61H564.912V1092.05H520.474V1047.61ZM566.023 1047.61H610.46V1092.05H566.023V1047.61ZM611.571 1047.61H656.009V1092.05H611.571V1047.61ZM657.12 1047.61H701.557V1092.05H657.12V1047.61ZM702.668 1047.61H747.105V1092.05H702.668V1047.61ZM748.216 1047.61H792.654V1092.05H748.216V1047.61ZM793.765 1047.61H838.202V1092.05H793.765V1047.61ZM839.313 1047.61H883.751V1092.05H839.313V1047.61ZM884.862 1047.61H929.299V1092.05H884.862V1047.61ZM930.41 1047.61H974.848V1092.05H930.41V1047.61ZM975.959 1047.61H1020.4V1092.05H975.959V1047.61ZM1021.51 1047.61H1065.94V1092.05H1021.51V1047.61ZM1067.06 1047.61H1111.49V1092.05H1067.06V1047.61ZM1112.6 1047.61H1157.04V1092.05H1112.6V1047.61ZM1158.15 1047.61H1202.59V1092.05H1158.15V1047.61ZM1203.7 1047.61H1248.14V1092.05H1203.7V1047.61ZM1249.25 1047.61H1293.69V1092.05H1249.25V1047.61ZM1294.8 1047.61H1339.24V1092.05H1294.8V1047.61ZM1340.35 1047.61H1384.78V1092.05H1340.35V1047.61ZM1385.89 1047.61H1430.33V1092.05H1385.89V1047.61ZM1431.44 1047.61H1475.88V1092.05H1431.44V1047.61ZM1476.99 1047.61H1521.43V1092.05H1476.99V1047.61ZM1522.54 1047.61H1566.98V1092.05H1522.54V1047.61ZM1568.09 1047.61H1612.53V1092.05H1568.09V1047.61ZM1613.64 1047.61H1658.07V1092.05H1613.64V1047.61ZM1659.19 1047.61H1703.62V1092.05H1659.19V1047.61ZM1704.73 1047.61H1749.17V1092.05H1704.73V1047.61ZM1750.28 1047.61H1794.72V1092.05H1750.28V1047.61ZM1795.83 1047.61H1840.27V1092.05H1795.83V1047.61ZM1841.38 1047.61H1885.82V1092.05H1841.38V1047.61ZM1886.93 1047.61H1931.36V1092.05H1886.93V1047.61ZM1932.48 1047.61H1976.91V1092.05H1932.48V1047.61ZM1978.02 1047.61H2022.46V1092.05H1978.02V1047.61ZM2023.57 1047.61H2068.01V1092.05H2023.57V1047.61ZM2069.12 1047.61H2113.56V1092.05H2069.12V1047.61ZM19.4414 1093.16H63.8789V1137.6H19.4414V1093.16ZM64.9898 1093.16H109.427V1137.6H64.9898V1093.16ZM110.538 1093.16H154.976V1137.6H110.538V1093.16ZM156.087 1093.16H200.524V1137.6H156.087V1093.16ZM201.635 1093.16H246.073V1137.6H201.635V1093.16ZM247.184 1093.16H291.621V1137.6H247.184V1093.16ZM292.732 1093.16H337.17V1137.6H292.732V1093.16ZM338.28 1093.16H382.718V1137.6H338.28V1093.16ZM383.829 1093.16H428.266V1137.6H383.829V1093.16ZM429.377 1093.16H473.815V1137.6H429.377V1093.16ZM474.926 1093.16H519.363V1137.6H474.926V1093.16ZM520.474 1093.16H564.912V1137.6H520.474V1093.16ZM566.023 1093.16H610.46V1137.6H566.023V1093.16Z" fill="#070708"/>
<path d="M611.571 1093.16H656.009V1137.6H611.571V1093.16Z" fill="#0E0E10"/>
<path d="M657.119 1093.16H701.557V1137.6H657.119V1093.16ZM702.668 1093.16H747.105V1137.6H702.668V1093.16ZM748.216 1093.16H792.654V1137.6H748.216V1093.16ZM793.764 1093.16H838.202V1137.6H793.764V1093.16ZM839.313 1093.16H883.75V1137.6H839.313V1093.16ZM884.861 1093.16H929.299V1137.6H884.861V1093.16ZM930.41 1093.16H974.847V1137.6H930.41V1093.16ZM975.958 1093.16H1020.4V1137.6H975.958V1093.16ZM1021.51 1093.16H1065.94V1137.6H1021.51V1093.16ZM1067.06 1093.16H1111.49V1137.6H1067.06V1093.16ZM1112.6 1093.16H1157.04V1137.6H1112.6V1093.16ZM1158.15 1093.16H1202.59V1137.6H1158.15V1093.16ZM1203.7 1093.16H1248.14V1137.6H1203.7V1093.16ZM1249.25 1093.16H1293.69V1137.6H1249.25V1093.16ZM1294.8 1093.16H1339.23V1137.6H1294.8V1093.16ZM1340.35 1093.16H1384.78V1137.6H1340.35V1093.16ZM1385.89 1093.16H1430.33V1137.6H1385.89V1093.16ZM1431.44 1093.16H1475.88V1137.6H1431.44V1093.16ZM1476.99 1093.16H1521.43V1137.6H1476.99V1093.16Z" fill="#070708"/>
<path d="M1522.54 1093.16H1566.98V1137.6H1522.54V1093.16Z" fill="#0E0E10"/>
<path d="M1568.09 1093.16H1612.53V1137.6H1568.09V1093.16ZM1613.64 1093.16H1658.07V1137.6H1613.64V1093.16ZM1659.18 1093.16H1703.62V1137.6H1659.18V1093.16ZM1704.73 1093.16H1749.17V1137.6H1704.73V1093.16Z" fill="#070708"/>
<path d="M1750.28 1093.16H1794.72V1137.6H1750.28V1093.16Z" fill="#0E0E10"/>
<path d="M1795.83 1093.16H1840.27V1137.6H1795.83V1093.16ZM1841.38 1093.16H1885.82V1137.6H1841.38V1093.16ZM1886.93 1093.16H1931.36V1137.6H1886.93V1093.16ZM1932.48 1093.16H1976.91V1137.6H1932.48V1093.16ZM1978.02 1093.16H2022.46V1137.6H1978.02V1093.16ZM2023.57 1093.16H2068.01V1137.6H2023.57V1093.16ZM2069.12 1093.16H2113.56V1137.6H2069.12V1093.16ZM19.4414 1138.71H63.8789V1183.15H19.4414V1138.71ZM64.9898 1138.71H109.427V1183.15H64.9898V1138.71ZM110.538 1138.71H154.976V1183.15H110.538V1138.71Z" fill="#070708"/>
<path d="M156.087 1138.71H200.524V1183.15H156.087V1138.71Z" fill="#0E0E10"/>
<path d="M201.635 1138.71H246.072V1183.15H201.635V1138.71ZM247.183 1138.71H291.621V1183.15H247.183V1138.71ZM292.732 1138.71H337.169V1183.15H292.732V1138.71ZM338.28 1138.71H382.718V1183.15H338.28V1138.71ZM383.829 1138.71H428.266V1183.15H383.829V1138.71ZM429.377 1138.71H473.814V1183.15H429.377V1138.71ZM474.925 1138.71H519.363V1183.15H474.925V1138.71ZM520.474 1138.71H564.911V1183.15H520.474V1138.71ZM566.022 1138.71H610.46V1183.15H566.022V1138.71ZM611.571 1138.71H656.008V1183.15H611.571V1138.71ZM657.119 1138.71H701.557V1183.15H657.119V1138.71ZM702.668 1138.71H747.105V1183.15H702.668V1138.71ZM748.216 1138.71H792.654V1183.15H748.216V1138.71ZM793.764 1138.71H838.202V1183.15H793.764V1138.71ZM839.313 1138.71H883.75V1183.15H839.313V1138.71ZM884.861 1138.71H929.299V1183.15H884.861V1138.71ZM930.41 1138.71H974.847V1183.15H930.41V1138.71ZM975.958 1138.71H1020.4V1183.15H975.958V1138.71ZM1021.51 1138.71H1065.94V1183.15H1021.51V1138.71ZM1067.06 1138.71H1111.49V1183.15H1067.06V1138.71ZM1112.6 1138.71H1157.04V1183.15H1112.6V1138.71ZM1158.15 1138.71H1202.59V1183.15H1158.15V1138.71Z" fill="#070708"/>
<path d="M1203.7 1138.71H1248.14V1183.15H1203.7V1138.71Z" fill="#0E0E10"/>
<path d="M1249.25 1138.71H1293.69V1183.15H1249.25V1138.71ZM1294.8 1138.71H1339.24V1183.15H1294.8V1138.71ZM1340.35 1138.71H1384.78V1183.15H1340.35V1138.71ZM1385.89 1138.71H1430.33V1183.15H1385.89V1138.71ZM1431.44 1138.71H1475.88V1183.15H1431.44V1138.71ZM1476.99 1138.71H1521.43V1183.15H1476.99V1138.71ZM1522.54 1138.71H1566.98V1183.15H1522.54V1138.71ZM1568.09 1138.71H1612.53V1183.15H1568.09V1138.71ZM1613.64 1138.71H1658.07V1183.15H1613.64V1138.71ZM1659.19 1138.71H1703.62V1183.15H1659.19V1138.71ZM1704.73 1138.71H1749.17V1183.15H1704.73V1138.71ZM1750.28 1138.71H1794.72V1183.15H1750.28V1138.71ZM1795.83 1138.71H1840.27V1183.15H1795.83V1138.71ZM1841.38 1138.71H1885.82V1183.15H1841.38V1138.71ZM1886.93 1138.71H1931.36V1183.15H1886.93V1138.71ZM1932.48 1138.71H1976.91V1183.15H1932.48V1138.71ZM1978.02 1138.71H2022.46V1183.15H1978.02V1138.71ZM2023.57 1138.71H2068.01V1183.15H2023.57V1138.71ZM2069.12 1138.71H2113.56V1183.15H2069.12V1138.71ZM19.4414 1184.26H63.8789V1228.7H19.4414V1184.26ZM64.9898 1184.26H109.427V1228.7H64.9898V1184.26ZM110.538 1184.26H154.976V1228.7H110.538V1184.26ZM156.087 1184.26H200.524V1228.7H156.087V1184.26ZM201.635 1184.26H246.073V1228.7H201.635V1184.26ZM247.184 1184.26H291.621V1228.7H247.184V1184.26ZM292.732 1184.26H337.17V1228.7H292.732V1184.26ZM338.28 1184.26H382.718V1228.7H338.28V1184.26ZM383.829 1184.26H428.266V1228.7H383.829V1184.26ZM429.377 1184.26H473.815V1228.7H429.377V1184.26ZM474.926 1184.26H519.363V1228.7H474.926V1184.26ZM520.474 1184.26H564.912V1228.7H520.474V1184.26ZM566.023 1184.26H610.46V1228.7H566.023V1184.26ZM611.571 1184.26H656.009V1228.7H611.571V1184.26ZM657.12 1184.26H701.557V1228.7H657.12V1184.26ZM702.668 1184.26H747.105V1228.7H702.668V1184.26ZM748.216 1184.26H792.654V1228.7H748.216V1184.26ZM793.765 1184.26H838.202V1228.7H793.765V1184.26ZM839.313 1184.26H883.751V1228.7H839.313V1184.26ZM884.862 1184.26H929.299V1228.7H884.862V1184.26ZM930.41 1184.26H974.848V1228.7H930.41V1184.26ZM975.959 1184.26H1020.4V1228.7H975.959V1184.26ZM1021.51 1184.26H1065.94V1228.7H1021.51V1184.26ZM1067.06 1184.26H1111.49V1228.7H1067.06V1184.26ZM1112.6 1184.26H1157.04V1228.7H1112.6V1184.26ZM1158.15 1184.26H1202.59V1228.7H1158.15V1184.26ZM1203.7 1184.26H1248.14V1228.7H1203.7V1184.26ZM1249.25 1184.26H1293.69V1228.7H1249.25V1184.26ZM1294.8 1184.26H1339.24V1228.7H1294.8V1184.26ZM1340.35 1184.26H1384.78V1228.7H1340.35V1184.26ZM1385.89 1184.26H1430.33V1228.7H1385.89V1184.26ZM1431.44 1184.26H1475.88V1228.7H1431.44V1184.26ZM1476.99 1184.26H1521.43V1228.7H1476.99V1184.26ZM1522.54 1184.26H1566.98V1228.7H1522.54V1184.26ZM1568.09 1184.26H1612.53V1228.7H1568.09V1184.26ZM1613.64 1184.26H1658.07V1228.7H1613.64V1184.26ZM1659.19 1184.26H1703.62V1228.7H1659.19V1184.26ZM1704.73 1184.26H1749.17V1228.7H1704.73V1184.26ZM1750.28 1184.26H1794.72V1228.7H1750.28V1184.26ZM1795.83 1184.26H1840.27V1228.7H1795.83V1184.26ZM1841.38 1184.26H1885.82V1228.7H1841.38V1184.26ZM1886.93 1184.26H1931.36V1228.7H1886.93V1184.26ZM1932.48 1184.26H1976.91V1228.7H1932.48V1184.26ZM1978.02 1184.26H2022.46V1228.7H1978.02V1184.26ZM2023.57 1184.26H2068.01V1228.7H2023.57V1184.26ZM2069.12 1184.26H2113.56V1228.7H2069.12V1184.26ZM19.4414 1229.81H63.8789V1274.25H19.4414V1229.81ZM64.9898 1229.81H109.427V1274.25H64.9898V1229.81ZM110.538 1229.81H154.976V1274.25H110.538V1229.81ZM156.087 1229.81H200.524V1274.25H156.087V1229.81ZM201.635 1229.81H246.073V1274.25H201.635V1229.81ZM247.184 1229.81H291.621V1274.25H247.184V1229.81ZM292.732 1229.81H337.17V1274.25H292.732V1229.81ZM338.28 1229.81H382.718V1274.25H338.28V1229.81ZM383.829 1229.81H428.266V1274.25H383.829V1229.81ZM429.377 1229.81H473.815V1274.25H429.377V1229.81ZM474.926 1229.81H519.363V1274.25H474.926V1229.81ZM520.474 1229.81H564.912V1274.25H520.474V1229.81ZM566.023 1229.81H610.46V1274.25H566.023V1229.81ZM611.571 1229.81H656.009V1274.25H611.571V1229.81ZM657.12 1229.81H701.557V1274.25H657.12V1229.81ZM702.668 1229.81H747.105V1274.25H702.668V1229.81ZM748.216 1229.81H792.654V1274.25H748.216V1229.81ZM793.765 1229.81H838.202V1274.25H793.765V1229.81ZM839.313 1229.81H883.751V1274.25H839.313V1229.81ZM884.862 1229.81H929.299V1274.25H884.862V1229.81ZM930.41 1229.81H974.848V1274.25H930.41V1229.81ZM975.959 1229.81H1020.4V1274.25H975.959V1229.81ZM1021.51 1229.81H1065.94V1274.25H1021.51V1229.81ZM1067.06 1229.81H1111.49V1274.25H1067.06V1229.81ZM1112.6 1229.81H1157.04V1274.25H1112.6V1229.81ZM1158.15 1229.81H1202.59V1274.25H1158.15V1229.81ZM1203.7 1229.81H1248.14V1274.25H1203.7V1229.81ZM1249.25 1229.81H1293.69V1274.25H1249.25V1229.81ZM1294.8 1229.81H1339.24V1274.25H1294.8V1229.81ZM1340.35 1229.81H1384.78V1274.25H1340.35V1229.81ZM1385.89 1229.81H1430.33V1274.25H1385.89V1229.81ZM1431.44 1229.81H1475.88V1274.25H1431.44V1229.81ZM1476.99 1229.81H1521.43V1274.25H1476.99V1229.81ZM1522.54 1229.81H1566.98V1274.25H1522.54V1229.81ZM1568.09 1229.81H1612.53V1274.25H1568.09V1229.81ZM1613.64 1229.81H1658.07V1274.25H1613.64V1229.81ZM1659.19 1229.81H1703.62V1274.25H1659.19V1229.81ZM1704.73 1229.81H1749.17V1274.25H1704.73V1229.81ZM1750.28 1229.81H1794.72V1274.25H1750.28V1229.81ZM1795.83 1229.81H1840.27V1274.25H1795.83V1229.81ZM1841.38 1229.81H1885.82V1274.25H1841.38V1229.81ZM1886.93 1229.81H1931.36V1274.25H1886.93V1229.81ZM1932.48 1229.81H1976.91V1274.25H1932.48V1229.81ZM1978.02 1229.81H2022.46V1274.25H1978.02V1229.81ZM2023.57 1229.81H2068.01V1274.25H2023.57V1229.81ZM2069.12 1229.81H2113.56V1274.25H2069.12V1229.81ZM19.4414 1275.36H63.8789V1319.79H19.4414V1275.36ZM64.9898 1275.36H109.427V1319.79H64.9898V1275.36ZM110.538 1275.36H154.976V1319.79H110.538V1275.36ZM156.087 1275.36H200.524V1319.79H156.087V1275.36ZM201.635 1275.36H246.073V1319.79H201.635V1275.36Z" fill="#070708"/>
<path d="M247.184 1275.36H291.621V1319.79H247.184V1275.36Z" fill="#0E0E10"/>
<path d="M292.732 1275.36H337.17V1319.79H292.732V1275.36ZM338.281 1275.36H382.718V1319.79H338.281V1275.36ZM383.829 1275.36H428.267V1319.79H383.829V1275.36ZM429.378 1275.36H473.815V1319.79H429.378V1275.36ZM474.926 1275.36H519.364V1319.79H474.926V1275.36ZM520.475 1275.36H564.912V1319.79H520.475V1275.36ZM566.023 1275.36H610.461V1319.79H566.023V1275.36ZM611.571 1275.36H656.009V1319.79H611.571V1275.36ZM657.12 1275.36H701.557V1319.79H657.12V1275.36ZM702.668 1275.36H747.106V1319.79H702.668V1275.36ZM748.217 1275.36H792.654V1319.79H748.217V1275.36ZM793.765 1275.36H838.203V1319.79H793.765V1275.36ZM839.314 1275.36H883.751V1319.79H839.314V1275.36ZM884.862 1275.36H929.3V1319.79H884.862V1275.36Z" fill="#070708"/>
<path d="M930.41 1275.36H974.848V1319.79H930.41V1275.36Z" fill="#0E0E10"/>
<path d="M975.959 1275.36H1020.4V1319.79H975.959V1275.36ZM1021.51 1275.36H1065.94V1319.79H1021.51V1275.36ZM1067.06 1275.36H1111.49V1319.79H1067.06V1275.36ZM1112.6 1275.36H1157.04V1319.79H1112.6V1275.36ZM1158.15 1275.36H1202.59V1319.79H1158.15V1275.36ZM1203.7 1275.36H1248.14V1319.79H1203.7V1275.36ZM1249.25 1275.36H1293.69V1319.79H1249.25V1275.36ZM1294.8 1275.36H1339.24V1319.79H1294.8V1275.36ZM1340.35 1275.36H1384.78V1319.79H1340.35V1275.36ZM1385.89 1275.36H1430.33V1319.79H1385.89V1275.36ZM1431.44 1275.36H1475.88V1319.79H1431.44V1275.36ZM1476.99 1275.36H1521.43V1319.79H1476.99V1275.36ZM1522.54 1275.36H1566.98V1319.79H1522.54V1275.36ZM1568.09 1275.36H1612.53V1319.79H1568.09V1275.36ZM1613.64 1275.36H1658.07V1319.79H1613.64V1275.36ZM1659.19 1275.36H1703.62V1319.79H1659.19V1275.36ZM1704.73 1275.36H1749.17V1319.79H1704.73V1275.36ZM1750.28 1275.36H1794.72V1319.79H1750.28V1275.36ZM1795.83 1275.36H1840.27V1319.79H1795.83V1275.36ZM1841.38 1275.36H1885.82V1319.79H1841.38V1275.36ZM1886.93 1275.36H1931.37V1319.79H1886.93V1275.36ZM1932.48 1275.36H1976.91V1319.79H1932.48V1275.36Z" fill="#070708"/>
<path d="M1978.02 1275.36H2022.46V1319.79H1978.02V1275.36Z" fill="#0E0E10"/>
<path d="M2023.57 1275.36H2068.01V1319.79H2023.57V1275.36ZM2069.12 1275.36H2113.56V1319.79H2069.12V1275.36ZM19.4414 1320.9H63.8789V1365.34H19.4414V1320.9ZM64.9898 1320.9H109.427V1365.34H64.9898V1320.9ZM110.538 1320.9H154.976V1365.34H110.538V1320.9ZM156.087 1320.9H200.524V1365.34H156.087V1320.9ZM201.635 1320.9H246.073V1365.34H201.635V1320.9ZM247.184 1320.9H291.621V1365.34H247.184V1320.9ZM292.732 1320.9H337.17V1365.34H292.732V1320.9ZM338.28 1320.9H382.718V1365.34H338.28V1320.9ZM383.829 1320.9H428.266V1365.34H383.829V1320.9ZM429.377 1320.9H473.815V1365.34H429.377V1320.9ZM474.926 1320.9H519.363V1365.34H474.926V1320.9ZM520.474 1320.9H564.912V1365.34H520.474V1320.9ZM566.023 1320.9H610.46V1365.34H566.023V1320.9ZM611.571 1320.9H656.009V1365.34H611.571V1320.9ZM657.12 1320.9H701.557V1365.34H657.12V1320.9ZM702.668 1320.9H747.105V1365.34H702.668V1320.9ZM748.216 1320.9H792.654V1365.34H748.216V1320.9ZM793.765 1320.9H838.202V1365.34H793.765V1320.9ZM839.313 1320.9H883.751V1365.34H839.313V1320.9ZM884.862 1320.9H929.299V1365.34H884.862V1320.9ZM930.41 1320.9H974.848V1365.34H930.41V1320.9ZM975.959 1320.9H1020.4V1365.34H975.959V1320.9ZM1021.51 1320.9H1065.94V1365.34H1021.51V1320.9ZM1067.06 1320.9H1111.49V1365.34H1067.06V1320.9ZM1112.6 1320.9H1157.04V1365.34H1112.6V1320.9ZM1158.15 1320.9H1202.59V1365.34H1158.15V1320.9ZM1203.7 1320.9H1248.14V1365.34H1203.7V1320.9ZM1249.25 1320.9H1293.69V1365.34H1249.25V1320.9ZM1294.8 1320.9H1339.24V1365.34H1294.8V1320.9ZM1340.35 1320.9H1384.78V1365.34H1340.35V1320.9ZM1385.89 1320.9H1430.33V1365.34H1385.89V1320.9ZM1431.44 1320.9H1475.88V1365.34H1431.44V1320.9ZM1476.99 1320.9H1521.43V1365.34H1476.99V1320.9ZM1522.54 1320.9H1566.98V1365.34H1522.54V1320.9ZM1568.09 1320.9H1612.53V1365.34H1568.09V1320.9ZM1613.64 1320.9H1658.07V1365.34H1613.64V1320.9ZM1659.19 1320.9H1703.62V1365.34H1659.19V1320.9ZM1704.73 1320.9H1749.17V1365.34H1704.73V1320.9ZM1750.28 1320.9H1794.72V1365.34H1750.28V1320.9ZM1795.83 1320.9H1840.27V1365.34H1795.83V1320.9ZM1841.38 1320.9H1885.82V1365.34H1841.38V1320.9ZM1886.93 1320.9H1931.36V1365.34H1886.93V1320.9ZM1932.48 1320.9H1976.91V1365.34H1932.48V1320.9ZM1978.02 1320.9H2022.46V1365.34H1978.02V1320.9ZM2023.57 1320.9H2068.01V1365.34H2023.57V1320.9ZM2069.12 1320.9H2113.56V1365.34H2069.12V1320.9ZM19.4414 1366.45H63.8789V1410.89H19.4414V1366.45ZM64.9898 1366.45H109.427V1410.89H64.9898V1366.45ZM110.538 1366.45H154.976V1410.89H110.538V1366.45ZM156.087 1366.45H200.524V1410.89H156.087V1366.45ZM201.635 1366.45H246.073V1410.89H201.635V1366.45ZM247.184 1366.45H291.621V1410.89H247.184V1366.45ZM292.732 1366.45H337.17V1410.89H292.732V1366.45ZM338.28 1366.45H382.718V1410.89H338.28V1366.45ZM383.829 1366.45H428.266V1410.89H383.829V1366.45ZM429.377 1366.45H473.815V1410.89H429.377V1366.45ZM474.926 1366.45H519.363V1410.89H474.926V1366.45ZM520.474 1366.45H564.912V1410.89H520.474V1366.45ZM566.023 1366.45H610.46V1410.89H566.023V1366.45ZM611.571 1366.45H656.009V1410.89H611.571V1366.45ZM657.12 1366.45H701.557V1410.89H657.12V1366.45ZM702.668 1366.45H747.105V1410.89H702.668V1366.45ZM748.216 1366.45H792.654V1410.89H748.216V1366.45ZM793.765 1366.45H838.202V1410.89H793.765V1366.45ZM839.313 1366.45H883.751V1410.89H839.313V1366.45ZM884.862 1366.45H929.299V1410.89H884.862V1366.45ZM930.41 1366.45H974.848V1410.89H930.41V1366.45ZM975.959 1366.45H1020.4V1410.89H975.959V1366.45ZM1021.51 1366.45H1065.94V1410.89H1021.51V1366.45ZM1067.06 1366.45H1111.49V1410.89H1067.06V1366.45ZM1112.6 1366.45H1157.04V1410.89H1112.6V1366.45ZM1158.15 1366.45H1202.59V1410.89H1158.15V1366.45ZM1203.7 1366.45H1248.14V1410.89H1203.7V1366.45ZM1249.25 1366.45H1293.69V1410.89H1249.25V1366.45ZM1294.8 1366.45H1339.24V1410.89H1294.8V1366.45ZM1340.35 1366.45H1384.78V1410.89H1340.35V1366.45ZM1385.89 1366.45H1430.33V1410.89H1385.89V1366.45ZM1431.44 1366.45H1475.88V1410.89H1431.44V1366.45ZM1476.99 1366.45H1521.43V1410.89H1476.99V1366.45ZM1522.54 1366.45H1566.98V1410.89H1522.54V1366.45ZM1568.09 1366.45H1612.53V1410.89H1568.09V1366.45ZM1613.64 1366.45H1658.07V1410.89H1613.64V1366.45ZM1659.19 1366.45H1703.62V1410.89H1659.19V1366.45Z" fill="#070708"/>
<path d="M1704.73 1366.45H1749.17V1410.89H1704.73V1366.45Z" fill="#0E0E10"/>
<path d="M1750.28 1366.45H1794.72V1410.89H1750.28V1366.45ZM1795.83 1366.45H1840.27V1410.89H1795.83V1366.45ZM1841.38 1366.45H1885.82V1410.89H1841.38V1366.45ZM1886.93 1366.45H1931.36V1410.89H1886.93V1366.45ZM1932.48 1366.45H1976.91V1410.89H1932.48V1366.45ZM1978.02 1366.45H2022.46V1410.89H1978.02V1366.45ZM2023.57 1366.45H2068.01V1410.89H2023.57V1366.45ZM2069.12 1366.45H2113.56V1410.89H2069.12V1366.45ZM19.4414 1412H63.8789V1456.44H19.4414V1412ZM64.9898 1412H109.427V1456.44H64.9898V1412ZM110.538 1412H154.976V1456.44H110.538V1412Z" fill="#070708"/>
<path d="M156.087 1412H200.524V1456.44H156.087V1412Z" fill="#0E0E10"/>
<path d="M201.635 1412H246.072V1456.44H201.635V1412ZM247.183 1412H291.621V1456.44H247.183V1412ZM292.732 1412H337.169V1456.44H292.732V1412ZM338.28 1412H382.718V1456.44H338.28V1412ZM383.829 1412H428.266V1456.44H383.829V1412ZM429.377 1412H473.814V1456.44H429.377V1412ZM474.925 1412H519.363V1456.44H474.925V1412ZM520.474 1412H564.911V1456.44H520.474V1412ZM566.022 1412H610.46V1456.44H566.022V1412ZM611.571 1412H656.008V1456.44H611.571V1412ZM657.119 1412H701.557V1456.44H657.119V1412Z" fill="#070708"/>
<path d="M702.668 1412H747.105V1456.44H702.668V1412Z" fill="#0E0E10"/>
<path d="M748.217 1412H792.654V1456.44H748.217V1412ZM793.765 1412H838.203V1456.44H793.765V1412ZM839.314 1412H883.751V1456.44H839.314V1412ZM884.862 1412H929.3V1456.44H884.862V1412ZM930.411 1412H974.848V1456.44H930.411V1412ZM975.959 1412H1020.4V1456.44H975.959V1412ZM1021.51 1412H1065.94V1456.44H1021.51V1412ZM1067.06 1412H1111.49V1456.44H1067.06V1412Z" fill="#070708"/>
<path d="M1112.6 1412H1157.04V1456.44H1112.6V1412Z" fill="#0E0E10"/>
<path d="M1158.15 1412H1202.59V1456.44H1158.15V1412ZM1203.7 1412H1248.14V1456.44H1203.7V1412ZM1249.25 1412H1293.69V1456.44H1249.25V1412ZM1294.8 1412H1339.24V1456.44H1294.8V1412ZM1340.35 1412H1384.78V1456.44H1340.35V1412ZM1385.89 1412H1430.33V1456.44H1385.89V1412ZM1431.44 1412H1475.88V1456.44H1431.44V1412ZM1476.99 1412H1521.43V1456.44H1476.99V1412ZM1522.54 1412H1566.98V1456.44H1522.54V1412ZM1568.09 1412H1612.53V1456.44H1568.09V1412ZM1613.64 1412H1658.07V1456.44H1613.64V1412ZM1659.19 1412H1703.62V1456.44H1659.19V1412ZM1704.73 1412H1749.17V1456.44H1704.73V1412ZM1750.28 1412H1794.72V1456.44H1750.28V1412ZM1795.83 1412H1840.27V1456.44H1795.83V1412ZM1841.38 1412H1885.82V1456.44H1841.38V1412ZM1886.93 1412H1931.36V1456.44H1886.93V1412ZM1932.48 1412H1976.91V1456.44H1932.48V1412ZM1978.02 1412H2022.46V1456.44H1978.02V1412ZM2023.57 1412H2068.01V1456.44H2023.57V1412ZM2069.12 1412H2113.56V1456.44H2069.12V1412ZM19.4414 1457.55H63.8789V1501.99H19.4414V1457.55ZM64.9898 1457.55H109.427V1501.99H64.9898V1457.55ZM110.538 1457.55H154.976V1501.99H110.538V1457.55ZM156.087 1457.55H200.524V1501.99H156.087V1457.55ZM201.635 1457.55H246.073V1501.99H201.635V1457.55ZM247.184 1457.55H291.621V1501.99H247.184V1457.55ZM292.732 1457.55H337.17V1501.99H292.732V1457.55ZM338.28 1457.55H382.718V1501.99H338.28V1457.55ZM383.829 1457.55H428.266V1501.99H383.829V1457.55ZM429.377 1457.55H473.815V1501.99H429.377V1457.55ZM474.926 1457.55H519.363V1501.99H474.926V1457.55ZM520.474 1457.55H564.912V1501.99H520.474V1457.55ZM566.023 1457.55H610.46V1501.99H566.023V1457.55ZM611.571 1457.55H656.009V1501.99H611.571V1457.55ZM657.12 1457.55H701.557V1501.99H657.12V1457.55ZM702.668 1457.55H747.105V1501.99H702.668V1457.55ZM748.216 1457.55H792.654V1501.99H748.216V1457.55ZM793.765 1457.55H838.202V1501.99H793.765V1457.55ZM839.313 1457.55H883.751V1501.99H839.313V1457.55ZM884.862 1457.55H929.299V1501.99H884.862V1457.55ZM930.41 1457.55H974.848V1501.99H930.41V1457.55ZM975.959 1457.55H1020.4V1501.99H975.959V1457.55ZM1021.51 1457.55H1065.94V1501.99H1021.51V1457.55ZM1067.06 1457.55H1111.49V1501.99H1067.06V1457.55ZM1112.6 1457.55H1157.04V1501.99H1112.6V1457.55ZM1158.15 1457.55H1202.59V1501.99H1158.15V1457.55ZM1203.7 1457.55H1248.14V1501.99H1203.7V1457.55ZM1249.25 1457.55H1293.69V1501.99H1249.25V1457.55ZM1294.8 1457.55H1339.24V1501.99H1294.8V1457.55ZM1340.35 1457.55H1384.78V1501.99H1340.35V1457.55ZM1385.89 1457.55H1430.33V1501.99H1385.89V1457.55Z" fill="#070708"/>
<path d="M1431.44 1457.55H1475.88V1501.99H1431.44V1457.55Z" fill="#0E0E10"/>
<path d="M1476.99 1457.55H1521.43V1501.99H1476.99V1457.55ZM1522.54 1457.55H1566.98V1501.99H1522.54V1457.55ZM1568.09 1457.55H1612.53V1501.99H1568.09V1457.55ZM1613.64 1457.55H1658.07V1501.99H1613.64V1457.55ZM1659.19 1457.55H1703.62V1501.99H1659.19V1457.55ZM1704.73 1457.55H1749.17V1501.99H1704.73V1457.55ZM1750.28 1457.55H1794.72V1501.99H1750.28V1457.55ZM1795.83 1457.55H1840.27V1501.99H1795.83V1457.55ZM1841.38 1457.55H1885.82V1501.99H1841.38V1457.55ZM1886.93 1457.55H1931.36V1501.99H1886.93V1457.55ZM1932.48 1457.55H1976.91V1501.99H1932.48V1457.55ZM1978.02 1457.55H2022.46V1501.99H1978.02V1457.55ZM2023.57 1457.55H2068.01V1501.99H2023.57V1457.55ZM2069.12 1457.55H2113.56V1501.99H2069.12V1457.55ZM19.4414 1503.1H63.8789V1547.54H19.4414V1503.1ZM64.9898 1503.1H109.427V1547.54H64.9898V1503.1ZM110.538 1503.1H154.976V1547.54H110.538V1503.1ZM156.087 1503.1H200.524V1547.54H156.087V1503.1ZM201.635 1503.1H246.073V1547.54H201.635V1503.1ZM247.184 1503.1H291.621V1547.54H247.184V1503.1ZM292.732 1503.1H337.17V1547.54H292.732V1503.1ZM338.28 1503.1H382.718V1547.54H338.28V1503.1ZM383.829 1503.1H428.266V1547.54H383.829V1503.1ZM429.377 1503.1H473.815V1547.54H429.377V1503.1ZM474.926 1503.1H519.363V1547.54H474.926V1503.1ZM520.474 1503.1H564.912V1547.54H520.474V1503.1ZM566.023 1503.1H610.46V1547.54H566.023V1503.1ZM611.571 1503.1H656.009V1547.54H611.571V1503.1ZM657.12 1503.1H701.557V1547.54H657.12V1503.1ZM702.668 1503.1H747.105V1547.54H702.668V1503.1ZM748.216 1503.1H792.654V1547.54H748.216V1503.1ZM793.765 1503.1H838.202V1547.54H793.765V1503.1ZM839.313 1503.1H883.751V1547.54H839.313V1503.1ZM884.862 1503.1H929.299V1547.54H884.862V1503.1ZM930.41 1503.1H974.848V1547.54H930.41V1503.1ZM975.959 1503.1H1020.4V1547.54H975.959V1503.1ZM1021.51 1503.1H1065.94V1547.54H1021.51V1503.1ZM1067.06 1503.1H1111.49V1547.54H1067.06V1503.1ZM1112.6 1503.1H1157.04V1547.54H1112.6V1503.1ZM1158.15 1503.1H1202.59V1547.54H1158.15V1503.1ZM1203.7 1503.1H1248.14V1547.54H1203.7V1503.1ZM1249.25 1503.1H1293.69V1547.54H1249.25V1503.1ZM1294.8 1503.1H1339.24V1547.54H1294.8V1503.1ZM1340.35 1503.1H1384.78V1547.54H1340.35V1503.1ZM1385.89 1503.1H1430.33V1547.54H1385.89V1503.1ZM1431.44 1503.1H1475.88V1547.54H1431.44V1503.1ZM1476.99 1503.1H1521.43V1547.54H1476.99V1503.1ZM1522.54 1503.1H1566.98V1547.54H1522.54V1503.1ZM1568.09 1503.1H1612.53V1547.54H1568.09V1503.1ZM1613.64 1503.1H1658.07V1547.54H1613.64V1503.1ZM1659.19 1503.1H1703.62V1547.54H1659.19V1503.1ZM1704.73 1503.1H1749.17V1547.54H1704.73V1503.1ZM1750.28 1503.1H1794.72V1547.54H1750.28V1503.1ZM1795.83 1503.1H1840.27V1547.54H1795.83V1503.1ZM1841.38 1503.1H1885.82V1547.54H1841.38V1503.1ZM1886.93 1503.1H1931.36V1547.54H1886.93V1503.1ZM1932.48 1503.1H1976.91V1547.54H1932.48V1503.1ZM1978.02 1503.1H2022.46V1547.54H1978.02V1503.1ZM2023.57 1503.1H2068.01V1547.54H2023.57V1503.1ZM2069.12 1503.1H2113.56V1547.54H2069.12V1503.1Z" fill="#070708"/>
</g>
<defs>
<clipPath id="clip0_72_1750">
<rect width="2133" height="1547.54" fill="white"/>
</clipPath>
</defs>
</svg>
