<svg width="48" height="48" viewBox="0 0 48 48" fill="none" xmlns="http://www.w3.org/2000/svg">
<rect width="48" height="48" rx="8" fill="#B34424" fill-opacity="0.1"/>
<path fill-rule="evenodd" clip-rule="evenodd" d="M31.3281 34.7188H16.6719C16.0156 34.7188 15.5234 34.1719 15.5234 33.5156V25.3125H32.5859V33.5156C32.5312 34.1719 31.9844 34.7188 31.3281 34.7188ZM15.4688 22.6875V14.5391C15.4688 13.8828 16.0156 13.3906 16.6719 13.3906H27.6641V16.8906C27.6641 17.6016 28.2656 18.2031 28.9766 18.2031H32.5312V22.6875H15.4688ZM28.4844 13.6094L32.2578 17.3828H28.9766C28.7031 17.3828 28.4844 17.1641 28.4844 16.8906V13.6094ZM25.5312 21.8125H18.2578C18.0391 21.8125 17.875 21.6484 17.875 21.4297C17.875 21.2109 18.0391 20.9922 18.2578 20.9922H25.5312C25.75 20.9922 25.9141 21.2109 25.9141 21.4297C25.9141 21.6484 25.75 21.8125 25.5312 21.8125ZM29.5234 21.8125H27.3359C27.1172 21.8125 26.8984 21.6484 26.8984 21.4297C26.8984 21.2109 27.1172 20.9922 27.3359 20.9922H29.5234C29.7422 20.9922 29.9062 21.2109 29.9062 21.4297C29.9062 21.6484 29.7422 21.8125 29.5234 21.8125ZM25.5312 19.2422H18.2578C18.0391 19.2422 17.875 19.0781 17.875 18.8594C17.875 18.6406 18.0391 18.4219 18.2578 18.4219H25.5312C25.75 18.4219 25.9141 18.6406 25.9141 18.8594C25.9141 19.0781 25.75 19.2422 25.5312 19.2422ZM25.5312 16.6172H18.2578C18.0391 16.6172 17.875 16.4531 17.875 16.2344C17.875 16.0156 18.0391 15.7969 18.2578 15.7969H25.5312C25.75 15.7969 25.9141 16.0156 25.9141 16.2344C25.9141 16.4531 25.75 16.6172 25.5312 16.6172ZM25.5312 27.0078H18.2578C18.0391 27.0078 17.875 26.8438 17.875 26.625C17.875 26.3516 18.0391 26.1875 18.2578 26.1875H25.5312C25.75 26.1875 25.9141 26.3516 25.9141 26.625C25.9141 26.8438 25.75 27.0078 25.5312 27.0078ZM29.5234 27.0078H27.3359C27.1172 27.0078 26.8984 26.8438 26.8984 26.625C26.8984 26.3516 27.1172 26.1875 27.3359 26.1875H29.5234C29.7422 26.1875 29.9062 26.3516 29.9062 26.625C29.9062 26.8438 29.7422 27.0078 29.5234 27.0078ZM25.5312 29.6328H18.2578C18.0391 29.6328 17.875 29.4688 17.875 29.1953C17.875 28.9766 18.0391 28.8125 18.2578 28.8125H25.5312C25.75 28.8125 25.9141 28.9766 25.9141 29.1953C25.9141 29.4688 25.75 29.6328 25.5312 29.6328ZM29.5234 29.6328H27.3359C27.1172 29.6328 26.8984 29.4688 26.8984 29.1953C26.8984 28.9766 27.1172 28.8125 27.3359 28.8125H29.5234C29.7422 28.8125 29.9062 28.9766 29.9062 29.1953C29.9062 29.4688 29.7422 29.6328 29.5234 29.6328ZM25.5312 32.2031H18.2578C18.0391 32.2031 17.875 32.0391 17.875 31.8203C17.875 31.6016 18.0391 31.3828 18.2578 31.3828H25.5312C25.75 31.3828 25.9141 31.6016 25.9141 31.8203C25.9141 32.0391 25.75 32.2031 25.5312 32.2031ZM29.5234 32.2031H27.3359C27.1172 32.2031 26.8984 32.0391 26.8984 31.8203C26.8984 31.6016 27.1172 31.3828 27.3359 31.3828H29.5234C29.7422 31.3828 29.9062 31.6016 29.9062 31.8203C29.9062 32.0391 29.7422 32.2031 29.5234 32.2031Z" fill="url(#paint0_linear_65_813)"/>
<path fill-rule="evenodd" clip-rule="evenodd" d="M35.375 38H30.2344C30.0156 38 29.8516 37.8359 29.8516 37.6172C29.8516 37.3438 30.0156 37.1797 30.2344 37.1797H34.9375V32.5312C34.9375 32.3125 35.1016 32.1484 35.375 32.1484C35.5938 32.1484 35.7578 32.3125 35.7578 32.5312V37.6172C35.7578 37.8359 35.5938 38 35.375 38ZM17.7656 38H12.625C12.4062 38 12.2422 37.8359 12.2422 37.6172V32.5312C12.2422 32.3125 12.4062 32.1484 12.625 32.1484C12.8984 32.1484 13.0625 32.3125 13.0625 32.5312V37.2344H17.7656C17.9844 37.2344 18.1484 37.3984 18.1484 37.6172C18.1484 37.8906 17.9844 38 17.7656 38ZM35.375 15.9062C35.1016 15.9062 34.9375 15.7422 34.9375 15.5234V10.8203H30.2344C30.0156 10.8203 29.8516 10.6562 29.8516 10.3828C29.8516 10.1641 30.0156 10 30.2344 10H35.375C35.5938 10 35.7578 10.1641 35.7578 10.3828V15.5234C35.7578 15.7422 35.5938 15.9062 35.375 15.9062ZM12.625 15.9062C12.4062 15.9062 12.2422 15.7422 12.2422 15.5234V10.4375C12.2422 10.2188 12.4062 10.0547 12.625 10.0547H17.7656C17.9844 10.0547 18.1484 10.2188 18.1484 10.4375C18.1484 10.6562 17.9844 10.875 17.7656 10.875H13.0625V15.5234C13.0625 15.7422 12.8984 15.9062 12.625 15.9062Z" fill="url(#paint1_linear_65_813)"/>
<path fill-rule="evenodd" clip-rule="evenodd" d="M35.375 24.6016H12.625C12.4062 24.6016 12.2422 24.4922 12.2422 24.3828V23.6172C12.2422 23.5078 12.4062 23.3984 12.625 23.3984H35.3203C35.5391 23.3984 35.7578 23.5078 35.7578 23.6172V24.3828C35.7578 24.4922 35.5938 24.6016 35.375 24.6016Z" fill="url(#paint2_linear_65_813)"/>
<defs>
<linearGradient id="paint0_linear_65_813" x1="24.0273" y1="13.3906" x2="24.0273" y2="34.7188" gradientUnits="userSpaceOnUse">
<stop stop-color="white"/>
<stop offset="1" stop-color="#999999"/>
</linearGradient>
<linearGradient id="paint1_linear_65_813" x1="24" y1="10" x2="24" y2="38" gradientUnits="userSpaceOnUse">
<stop stop-color="white"/>
<stop offset="1" stop-color="#999999"/>
</linearGradient>
<linearGradient id="paint2_linear_65_813" x1="24" y1="23.3984" x2="24" y2="24.6016" gradientUnits="userSpaceOnUse">
<stop stop-color="white"/>
<stop offset="1" stop-color="#999999"/>
</linearGradient>
</defs>
</svg>
