<svg width="78" height="78" viewBox="0 0 78 78" fill="none" xmlns="http://www.w3.org/2000/svg">
<circle cx="39" cy="39" r="34.125" fill="#4B4B4B"/>
<path d="M43.875 17.0625H39V21.9375H43.875V17.0625Z" fill="url(#paint0_linear_72_1871)"/>
<path d="M24.375 24.375H29.25V29.25H24.375V24.375Z" fill="url(#paint1_linear_72_1871)"/>
<path d="M14.6288 41.2947C15.0453 48.3666 19.2569 58.5 34.125 58.5C50.7 58.5 58.0937 46.3126 59.7187 40.2188C61.75 40.2188 66.3 39.0001 68.25 34.1251C67.0312 32.9062 62.1562 32.9062 59.7187 34.1251C59.7187 32.1751 58.5 28.0312 56.0625 26.8125C54.4375 28.4375 51.9187 32.6625 54.8437 36.5625C53.625 38.9999 50.3751 39 48.7501 39H16.9233C15.6327 39 14.5529 40.0063 14.6288 41.2947Z" fill="url(#paint2_linear_72_1871)"/>
<path d="M21.9375 31.6875H17.0625V36.5625H21.9375V31.6875Z" fill="url(#paint3_linear_72_1871)"/>
<path d="M24.375 31.6875H29.25V36.5625H24.375V31.6875Z" fill="url(#paint4_linear_72_1871)"/>
<path d="M36.5625 31.6875H31.6875V36.5625H36.5625V31.6875Z" fill="url(#paint5_linear_72_1871)"/>
<path d="M39 31.6875H43.875V36.5625H39V31.6875Z" fill="url(#paint6_linear_72_1871)"/>
<path d="M51.1875 31.6875H46.3125V36.5625H51.1875V31.6875Z" fill="url(#paint7_linear_72_1871)"/>
<path d="M36.5625 24.375H31.6875V29.25H36.5625V24.375Z" fill="url(#paint8_linear_72_1871)"/>
<path d="M39 24.375H43.875V29.25H39V24.375Z" fill="url(#paint9_linear_72_1871)"/>
<defs>
<linearGradient id="paint0_linear_72_1871" x1="68.25" y1="37.7813" x2="14.625" y2="37.7813" gradientUnits="userSpaceOnUse">
<stop stop-color="#FFFDF8"/>
<stop offset="1" stop-color="#FFE7C7" stop-opacity="0.5"/>
</linearGradient>
<linearGradient id="paint1_linear_72_1871" x1="68.25" y1="37.7813" x2="14.625" y2="37.7813" gradientUnits="userSpaceOnUse">
<stop stop-color="#FFFDF8"/>
<stop offset="1" stop-color="#FFE7C7" stop-opacity="0.5"/>
</linearGradient>
<linearGradient id="paint2_linear_72_1871" x1="68.25" y1="37.7813" x2="14.625" y2="37.7813" gradientUnits="userSpaceOnUse">
<stop stop-color="#FFFDF8"/>
<stop offset="1" stop-color="#FFE7C7" stop-opacity="0.5"/>
</linearGradient>
<linearGradient id="paint3_linear_72_1871" x1="68.25" y1="37.7813" x2="14.625" y2="37.7813" gradientUnits="userSpaceOnUse">
<stop stop-color="#FFFDF8"/>
<stop offset="1" stop-color="#FFE7C7" stop-opacity="0.5"/>
</linearGradient>
<linearGradient id="paint4_linear_72_1871" x1="68.25" y1="37.7813" x2="14.625" y2="37.7813" gradientUnits="userSpaceOnUse">
<stop stop-color="#FFFDF8"/>
<stop offset="1" stop-color="#FFE7C7" stop-opacity="0.5"/>
</linearGradient>
<linearGradient id="paint5_linear_72_1871" x1="68.25" y1="37.7813" x2="14.625" y2="37.7813" gradientUnits="userSpaceOnUse">
<stop stop-color="#FFFDF8"/>
<stop offset="1" stop-color="#FFE7C7" stop-opacity="0.5"/>
</linearGradient>
<linearGradient id="paint6_linear_72_1871" x1="68.25" y1="37.7813" x2="14.625" y2="37.7813" gradientUnits="userSpaceOnUse">
<stop stop-color="#FFFDF8"/>
<stop offset="1" stop-color="#FFE7C7" stop-opacity="0.5"/>
</linearGradient>
<linearGradient id="paint7_linear_72_1871" x1="68.25" y1="37.7813" x2="14.625" y2="37.7813" gradientUnits="userSpaceOnUse">
<stop stop-color="#FFFDF8"/>
<stop offset="1" stop-color="#FFE7C7" stop-opacity="0.5"/>
</linearGradient>
<linearGradient id="paint8_linear_72_1871" x1="68.25" y1="37.7813" x2="14.625" y2="37.7813" gradientUnits="userSpaceOnUse">
<stop stop-color="#FFFDF8"/>
<stop offset="1" stop-color="#FFE7C7" stop-opacity="0.5"/>
</linearGradient>
<linearGradient id="paint9_linear_72_1871" x1="68.25" y1="37.7813" x2="14.625" y2="37.7813" gradientUnits="userSpaceOnUse">
<stop stop-color="#FFFDF8"/>
<stop offset="1" stop-color="#FFE7C7" stop-opacity="0.5"/>
</linearGradient>
</defs>
</svg>
