<svg width="734" height="132" viewBox="0 0 734 132" fill="none" xmlns="http://www.w3.org/2000/svg">
<path d="M86.6004 132V-5.24521e-06H115.2V132H86.6004ZM0.000391901 132V-5.24521e-06H28.8004V132H0.000391901ZM17.0004 77V53.4H98.0004V77H17.0004ZM144.532 132V-5.24521e-06H173.532V132H144.532ZM164.532 132V108.6H246.332V132H164.532ZM164.532 76V54.6H236.332V76H164.532ZM164.532 23.2V-5.24521e-06H245.932V23.2H164.532ZM268.75 132V-5.24521e-06H323.55C331.684 -5.24521e-06 338.95 0.733327 345.35 2.19999C351.75 3.53332 357.217 5.59999 361.75 8.39999C366.417 11.2 369.95 14.8667 372.35 19.4C374.884 23.8 376.15 29.0667 376.15 35.2C376.15 40.4 375.017 44.9333 372.75 48.8C370.617 52.6667 367.217 55.8 362.55 58.2C358.017 60.6 352.017 62.2667 344.55 63.2V66.2C357.217 67.1333 366.484 70.3333 372.35 75.8C378.35 81.1333 381.35 88.3333 381.35 97.4C381.35 105 379.35 111.4 375.35 116.6C371.484 121.667 365.617 125.533 357.75 128.2C349.884 130.733 340.15 132 328.55 132H268.75ZM296.15 108.8H328.15C336.684 108.8 343.017 107.533 347.15 105C351.284 102.333 353.35 98.2667 353.35 92.8C353.35 86.5333 350.75 81.8667 345.55 78.8C340.35 75.6 332.484 74 321.95 74H296.15V108.8ZM296.15 56H317.75C328.15 56 335.75 54.6 340.55 51.8C345.484 48.8667 347.95 44.6 347.95 39C347.95 33.4 345.75 29.3333 341.35 26.8C336.95 24.1333 330.217 22.8 321.15 22.8H296.15V56ZM431.711 132V-5.24521e-06H460.511V132H431.711ZM392.711 24.2V-5.24521e-06H499.511V24.2H392.711ZM553.063 132L598.263 -5.24521e-06H640.263L685.463 132H654.263L620.863 22.8H617.863L584.263 132H553.063ZM578.463 106V86.4H664.263V106H578.463ZM703.711 132V-5.24521e-06H733.111V132H703.711Z" fill="url(#paint0_linear_94_1044)"/>
<defs>
<linearGradient id="paint0_linear_94_1044" x1="366.553" y1="-34" x2="366.553" y2="166" gradientUnits="userSpaceOnUse">
<stop stop-color="#B23F18" stop-opacity="0.41"/>
<stop offset="1" stop-color="#0F0F0E" stop-opacity="0"/>
</linearGradient>
</defs>
</svg>
