<svg width="78" height="78" viewBox="0 0 78 78" fill="none" xmlns="http://www.w3.org/2000/svg">
<circle cx="39" cy="39" r="34.125" fill="#4B4B4B"/>
<path d="M39.0004 13C24.2721 13 12.3428 24.9293 12.3428 39.6576C12.3428 51.4536 19.9735 61.4169 30.5699 64.9491C31.9028 65.1823 32.4026 64.3826 32.4026 63.6828C32.4026 63.0497 32.3693 60.9504 32.3693 58.7178C25.6716 59.9508 23.9388 57.0851 23.4057 55.5856C23.1058 54.8192 21.8062 52.4533 20.6733 51.8202C19.7403 51.3204 18.4074 50.0874 20.64 50.0541C22.7393 50.0208 24.2387 51.9868 24.7386 52.7865C27.1378 56.8185 30.9698 55.6855 32.5026 54.9858C32.7359 53.253 33.4356 52.0868 34.202 51.4203C28.2707 50.7539 22.0728 48.4547 22.0728 38.2581C22.0728 35.3591 23.1058 32.9599 24.8052 31.0939C24.5386 30.4274 23.6056 27.695 25.0718 24.0296C25.0718 24.0296 27.3044 23.3298 32.4026 26.762C34.5353 26.1622 36.8012 25.8623 39.0671 25.8623C41.333 25.8623 43.5989 26.1622 45.7315 26.762C50.8297 23.2965 53.0623 24.0296 53.0623 24.0296C54.5285 27.695 53.5955 30.4274 53.3289 31.0939C55.0283 32.9599 56.0613 35.3258 56.0613 38.2581C56.0613 48.488 49.8301 50.7539 43.8988 51.4203C44.8651 52.2534 45.6981 53.8528 45.6981 56.352C45.6981 59.9174 45.6648 62.7831 45.6648 63.6828C45.6648 64.3826 46.1647 65.2156 47.4975 64.9491C52.7896 63.1625 57.3881 59.7614 60.6459 55.2244C63.9037 50.6875 65.6566 45.2431 65.6581 39.6576C65.6581 24.9293 53.7288 13 39.0004 13Z" fill="url(#paint0_linear_72_1893)"/>
<defs>
<linearGradient id="paint0_linear_72_1893" x1="65.6581" y1="39" x2="12.3428" y2="39" gradientUnits="userSpaceOnUse">
<stop stop-color="#FFFDF8"/>
<stop offset="1" stop-color="#FFE7C7" stop-opacity="0.5"/>
</linearGradient>
</defs>
</svg>
