<svg width="78" height="78" viewBox="0 0 78 78" fill="none" xmlns="http://www.w3.org/2000/svg">
<circle cx="39" cy="39" r="34.125" fill="white"/>
<path d="M37.5105 27.0811C36.0892 32.9181 36.1802 32.6061 34.891 37.9447C34.8629 38.4366 34.4555 38.8244 33.9594 38.8244C33.9052 38.8244 33.851 38.8201 33.799 38.8114H33.8055H32.343C32.2997 38.8201 32.2477 38.8244 32.1979 38.8244C31.758 38.8244 31.3962 38.4972 31.3399 38.0747V38.0704C30.0897 34.0707 28.4149 28.5154 27.2882 24.7996C26.8722 23.4281 27.1452 23.4606 28.2329 23.4887C28.6099 23.4996 28.9739 23.4887 29.3487 23.4887C29.3747 23.4866 29.405 23.4844 29.4375 23.4844C29.8622 23.4844 30.2132 23.7986 30.2717 24.2059V24.2102C30.6379 25.5211 30.8805 26.5264 32.9714 34.7836C33.0104 34.9461 33.0624 35.0999 33.1144 35.2494H33.2249C33.2747 35.0457 33.3354 34.8551 33.3874 34.6492C34.1789 31.3082 34.9676 27.9643 35.7534 24.6176C35.9982 23.5776 36.4337 23.4801 37.4867 23.4801H38.258C38.9514 23.4909 39.1724 23.6317 39.3457 24.3229C39.9545 26.6997 41.7334 34.6579 42.0562 35.5332C42.5762 33.6742 41.8742 36.3349 44.9509 24.4659C45.1632 23.6447 45.3669 23.4822 46.201 23.4822H47.4815C48.0297 23.4931 48.1922 23.6642 48.06 24.2037C47.8152 25.1701 47.7654 25.2091 43.8675 37.6977C43.5512 38.7031 43.4407 38.7941 42.3855 38.7941H41.3087C40.5677 38.7941 40.3749 38.6619 40.1929 37.9404C39.7552 36.2959 37.8269 28.2229 37.5105 27.0854V27.0811ZM23.7219 38.3716C23.8692 38.6727 24.1725 38.8764 24.5235 38.8764C24.7705 38.8764 24.9915 38.7767 25.154 38.6142L25.7932 38.1874C26.4865 37.7302 26.5342 37.5482 26.1594 36.8159C25.7564 36.0489 25.518 35.1411 25.518 34.1769C25.518 34.1444 25.518 34.1119 25.518 34.0794V34.0837C25.518 33.7674 25.5787 28.4287 25.427 27.3021C25.2927 25.4171 23.9862 23.8701 22.2399 23.3782L22.2095 23.3717C21.4447 23.1594 20.5672 23.0381 19.6594 23.0381C19.3864 23.0381 19.1134 23.0489 18.8469 23.0706L18.8815 23.0684C17.2869 23.1312 15.8049 23.5537 14.494 24.2536L14.5482 24.2276C14.351 24.3337 14.2037 24.5092 14.1344 24.7194L14.1322 24.7259C14.0759 24.9816 14.0434 25.2762 14.0434 25.5774C14.0434 25.7096 14.0499 25.8417 14.0607 25.9717L14.0585 25.9544C14.1192 26.5546 14.3229 26.6651 14.8905 26.4744C15.4105 26.3011 15.9067 26.0801 16.4245 25.9262C17.172 25.6489 18.0344 25.4886 18.9357 25.4886C19.6355 25.4886 20.3115 25.5861 20.9529 25.7659L20.9009 25.7529C21.5877 25.9587 22.1229 26.4766 22.3482 27.1374L22.3525 27.1526C22.5194 27.7116 22.6169 28.3529 22.6169 29.0181C22.6169 29.2217 22.6082 29.4254 22.5909 29.6247L22.593 29.5987C22.593 30.1577 22.5822 30.1577 22.034 30.0559C21.1024 29.8241 20.0342 29.6897 18.9335 29.6897C18.5284 29.6897 18.1254 29.7071 17.7289 29.7439L17.7809 29.7396C16.2079 29.8544 14.8342 30.6192 13.909 31.7611L13.9004 31.7719C13.337 32.5519 12.999 33.5291 12.999 34.5842C12.999 35.0111 13.0532 35.4227 13.1572 35.8171L13.1507 35.7824C13.376 37.2601 14.4247 38.4431 15.8049 38.8634L15.8309 38.8699C16.4375 39.0866 17.1374 39.2122 17.8675 39.2122C19.3127 39.2122 20.6452 38.7204 21.7025 37.8949L21.6895 37.9057C22.0752 37.6219 22.4219 37.2774 22.8162 36.9394C23.1325 37.4464 23.4055 37.9231 23.7197 38.3607L23.7219 38.3716ZM22.1619 32.1164H22.1727C22.4132 32.1164 22.6082 32.3114 22.6082 32.5519C22.6082 32.5822 22.606 32.6104 22.5995 32.6407V32.6386C22.5779 33.0242 22.6104 33.4099 22.5692 33.7956C22.4609 34.9287 21.7524 35.8734 20.7709 36.3176L20.7514 36.3262C20.1144 36.6599 19.3625 36.8571 18.563 36.8571C18.4005 36.8571 18.2402 36.8484 18.082 36.8332L18.1015 36.8354C16.9554 36.7682 16.0519 35.8236 16.0519 34.6666C16.0519 34.4889 16.0735 34.3156 16.1147 34.1487L16.1125 34.1639C16.1689 32.9766 17.1092 32.0254 18.2879 31.9517H18.2944C18.7494 31.8781 19.2737 31.8369 19.8067 31.8369C20.6474 31.8369 21.4664 31.9409 22.2464 32.1359L22.177 32.1207L22.1619 32.1164ZM57.5782 38.7269C59.3657 38.1267 60.6288 36.4671 60.6288 34.5127C60.6288 34.2072 60.5985 33.9082 60.54 33.6201L60.5444 33.6482C60.3125 32.2334 59.3223 31.0981 58.0115 30.6604L57.9855 30.6517C56.0095 30.0321 54.391 29.4059 52.8224 28.6909L53.1019 28.8057C52.649 28.5782 52.3414 28.1232 52.3305 27.5946C52.3175 27.5144 52.311 27.4212 52.311 27.3281C52.311 26.4202 53 25.6749 53.884 25.5839H53.8905C54.3477 25.4756 54.872 25.4149 55.4115 25.4149C55.8817 25.4149 56.3432 25.4626 56.7874 25.5514L56.744 25.5449C57.485 25.6879 58.1957 25.9717 58.9172 26.1841C59.201 26.2751 59.5174 26.3964 59.7102 26.0216C59.8099 25.8114 59.8684 25.5644 59.8684 25.3066C59.8684 24.6609 59.5087 24.0997 58.9779 23.8137L58.9692 23.8094C57.8989 23.2981 56.6422 23.0012 55.3162 23.0012C54.1332 23.0012 53.0065 23.2396 51.9795 23.6686L52.0359 23.6469C50.465 24.2709 49.3752 25.7789 49.3752 27.5404C49.3752 29.2282 50.3762 30.6842 51.817 31.3429L51.843 31.3537C52.6252 31.7307 53.4767 31.9539 54.3 32.2572C55.1234 32.5606 55.9445 32.8466 56.7484 33.1802C57.303 33.4879 57.6735 34.0707 57.6735 34.7402C57.6735 35.3599 57.3572 35.9037 56.8762 36.2222L56.8697 36.2266C54.0574 37.7866 50.283 35.9817 49.8432 35.8409C49.5095 35.7304 49.3059 35.8626 49.204 36.2179C49.1217 36.4107 49.074 36.6361 49.074 36.8722C49.074 37.6717 49.6265 38.3434 50.3719 38.5211L50.3827 38.5232C51.5332 38.9847 52.8657 39.2512 54.261 39.2512C55.444 39.2512 56.5837 39.0584 57.6475 38.7031L57.5717 38.7247L57.5782 38.7269Z" fill="#273140"/>
<path d="M43.07 55.7064C48.4823 55.1257 53.3963 53.4271 57.7231 50.8444L57.5585 50.9354C58.371 50.4587 59.1315 49.8954 59.9028 49.3407C60.6438 48.8207 60.2278 47.4731 58.7545 48.1014C53.6758 50.3309 47.7781 51.7566 41.5836 52.0469L41.4731 52.0512C40.8231 52.0837 40.0626 52.1011 39.2978 52.1011C36.8018 52.1011 34.3491 51.9104 31.955 51.5421L32.2215 51.5767C25.468 50.6039 19.3861 48.4177 13.9586 45.2349L14.1948 45.3627C14.0041 45.2349 13.7853 45.1309 13.5513 45.0616L13.534 45.0572C13.0356 44.9467 12.7518 45.5339 13.2891 46.0409C19.9386 52.1899 28.8653 55.9599 38.6738 55.9599H38.7041H38.702C40.1645 55.8776 41.627 55.8689 43.0678 55.7064H43.07ZM60.8085 46.3464C62.3121 46.4287 62.778 46.9466 62.4031 48.3961C62.0175 49.8997 61.4585 51.3622 60.9926 52.8442C60.9016 53.1389 60.5658 53.4834 60.9103 53.7391C61.2873 54.0034 61.5711 53.6372 61.8246 53.4054C62.8105 52.4672 63.5861 51.3211 64.0866 50.0362L64.1083 49.9734C64.6673 48.7514 64.9923 47.3214 64.9923 45.8156C64.9923 45.7809 64.9923 45.7484 64.9923 45.7137V45.7181C64.9706 45.0897 64.8103 44.8232 64.1993 44.6521C63.714 44.5026 63.1441 44.3877 62.5591 44.3314L62.5245 44.3292C62.128 44.2794 61.6708 44.2512 61.205 44.2512C59.3936 44.2512 57.682 44.6781 56.1631 45.4342L56.2281 45.4039C55.8923 45.5859 55.602 45.7852 55.3355 46.0106L55.3441 46.0041C55.2336 46.0951 55.0191 46.5414 55.589 46.6237C55.641 46.6281 55.7038 46.6302 55.7645 46.6302C55.914 46.6302 56.0613 46.6172 56.2021 46.5912L56.187 46.5934C57.3266 46.4309 58.644 46.3377 59.9808 46.3377C60.2711 46.3377 60.5593 46.3421 60.8475 46.3507H60.8063L60.8085 46.3464Z" fill="#FF9900"/>
</svg>
