<svg width="160" height="160" viewBox="0 0 160 160" fill="none" xmlns="http://www.w3.org/2000/svg">
<g filter="url(#filter0_i_310_2147)">
<rect width="160" height="160" rx="40" fill="url(#paint0_linear_310_2147)"/>
<rect width="160" height="160" rx="40" fill="url(#paint1_linear_310_2147)"/>
<g clip-path="url(#clip0_310_2147)">
<g filter="url(#filter1_d_310_2147)">
<path d="M129.19 39.479L123.822 54.5186C123.783 54.6187 123.664 54.6438 123.585 54.5812L118.812 50.6742L116.657 52.9032C116.564 52.9908 116.405 52.9407 116.405 52.803V48.4076C116.405 48.3951 116.405 48.3825 116.405 48.37L125.25 42.1338L113.973 46.8423L108.737 44.7134C108.605 44.6633 108.618 44.488 108.763 44.4505L129.018 39.3037C129.137 39.2787 129.23 39.3788 129.19 39.479Z" fill="white"/>
<path d="M56.8432 104.483H61.7351V120.7H56.8432V114.727H52.6917V120.7H47.7998V104.483H52.6917V110.231H56.8432V104.483Z" fill="white"/>
<path d="M69.0735 116.431H75.433V120.688H64.1816V104.472H75.3008V108.692H69.0603V110.457H74.6794V114.627H69.0603V116.431H69.0735Z" fill="white"/>
<path d="M88.3884 112.335C89.856 113.124 90.5831 114.314 90.5831 115.929C90.5831 117.544 90.0675 118.571 89.0494 119.423C88.0314 120.274 86.5506 120.7 84.6071 120.7H77.375V104.483H84.1708C86.0879 104.483 87.5554 104.872 88.5735 105.661C89.5783 106.449 90.0939 107.576 90.0939 109.042C90.0939 110.507 89.5254 111.546 88.3884 112.335ZM83.8799 108.466H82.2669V110.644L84.1443 110.619C84.8451 110.532 85.202 110.169 85.202 109.555C85.202 108.941 85.0698 108.929 84.8054 108.741C84.541 108.553 84.2369 108.466 83.8799 108.466ZM84.3294 116.705C84.7261 116.705 85.0434 116.593 85.3078 116.38C85.5722 116.167 85.7044 115.891 85.7044 115.541C85.7044 114.89 85.3343 114.514 84.6071 114.401L82.2801 114.376V116.693H84.3294V116.705Z" fill="white"/>
<path d="M103.792 104.483V108.979H99.7594V120.7H94.8675V108.979H90.835V104.483H103.792Z" fill="white"/>
<path d="M66.9049 44.3242H48.3818V74.228L66.9049 66.4891V44.3242Z" fill="white"/>
<path d="M85.2553 44.3242V55.4943L79.9668 61.0293L85.2553 58.8253L87.3046 57.9738L103.792 51.0864V44.3242H85.2553Z" fill="white"/>
<path d="M85.2559 96.9687H103.792V57.2598L85.2559 70.3458V96.9687Z" fill="white"/>
<path d="M65.8076 84.0841L48.3818 96.3812V96.9697H66.9049V88.1915L71.7043 79.9141L66.9049 83.3077L65.8076 84.0841Z" fill="white"/>
</g>
</g>
</g>
<defs>
<filter id="filter0_i_310_2147" x="0" y="-16" width="160" height="176" filterUnits="userSpaceOnUse" color-interpolation-filters="sRGB">
<feFlood flood-opacity="0" result="BackgroundImageFix"/>
<feBlend mode="normal" in="SourceGraphic" in2="BackgroundImageFix" result="shape"/>
<feColorMatrix in="SourceAlpha" type="matrix" values="0 0 0 0 0 0 0 0 0 0 0 0 0 0 0 0 0 0 127 0" result="hardAlpha"/>
<feOffset dy="-16"/>
<feGaussianBlur stdDeviation="8.2"/>
<feComposite in2="hardAlpha" operator="arithmetic" k2="-1" k3="1"/>
<feColorMatrix type="matrix" values="0 0 0 0 1 0 0 0 0 0.667346 0 0 0 0 0.552885 0 0 0 0.1 0"/>
<feBlend mode="normal" in2="shape" result="effect1_innerShadow_310_2147"/>
</filter>
<filter id="filter1_d_310_2147" x="33.7998" y="25.2998" width="109.399" height="109.4" filterUnits="userSpaceOnUse" color-interpolation-filters="sRGB">
<feFlood flood-opacity="0" result="BackgroundImageFix"/>
<feColorMatrix in="SourceAlpha" type="matrix" values="0 0 0 0 0 0 0 0 0 0 0 0 0 0 0 0 0 0 127 0" result="hardAlpha"/>
<feOffset/>
<feGaussianBlur stdDeviation="7"/>
<feComposite in2="hardAlpha" operator="out"/>
<feColorMatrix type="matrix" values="0 0 0 0 0.890196 0 0 0 0 0.286275 0 0 0 0 0.0901961 0 0 0 0.08 0"/>
<feBlend mode="normal" in2="BackgroundImageFix" result="effect1_dropShadow_310_2147"/>
<feBlend mode="normal" in="SourceGraphic" in2="effect1_dropShadow_310_2147" result="shape"/>
</filter>
<linearGradient id="paint0_linear_310_2147" x1="80" y1="0" x2="80" y2="160" gradientUnits="userSpaceOnUse">
<stop stop-color="#B23F18"/>
<stop offset="1" stop-color="#4C1B0A"/>
</linearGradient>
<linearGradient id="paint1_linear_310_2147" x1="80" y1="0" x2="80" y2="160" gradientUnits="userSpaceOnUse">
<stop stop-color="#CC4327"/>
<stop offset="1" stop-color="#661E0F"/>
</linearGradient>
<clipPath id="clip0_310_2147">
<rect width="110" height="110" fill="white" transform="translate(28 25)"/>
</clipPath>
</defs>
</svg>
