<svg width="78" height="78" viewBox="0 0 78 78" fill="none" xmlns="http://www.w3.org/2000/svg">
<circle cx="39" cy="39" r="34.125" fill="#242424"/>
<path d="M39 13C24.635 13 13 24.9293 13 39.6576C13 51.4536 20.4425 61.4169 30.7775 64.9491C32.0775 65.1823 32.565 64.3826 32.565 63.6828C32.565 63.0497 32.5325 60.9504 32.5325 58.7179C26 59.9508 24.31 57.0851 23.79 55.5856C23.4975 54.8192 22.23 52.4533 21.125 51.8202C20.215 51.3204 18.915 50.0874 21.0925 50.0541C23.14 50.0208 24.6025 51.9868 25.09 52.7865C27.43 56.8185 31.1675 55.6856 32.6625 54.9858C32.89 53.253 33.5725 52.0868 34.32 51.4203C28.535 50.7539 22.49 48.4547 22.49 38.2581C22.49 35.3591 23.4975 32.9599 25.155 31.0939C24.895 30.4274 23.985 27.695 25.415 24.0296C25.415 24.0296 27.5925 23.3298 32.565 26.762C34.645 26.1622 36.855 25.8623 39.065 25.8623C41.275 25.8623 43.485 26.1622 45.565 26.762C50.5375 23.2965 52.715 24.0296 52.715 24.0296C54.145 27.695 53.235 30.4274 52.975 31.0939C54.6325 32.9599 55.64 35.3258 55.64 38.2581C55.64 48.488 49.5625 50.7539 43.7775 51.4203C44.72 52.2534 45.5325 53.8528 45.5325 56.352C45.5325 59.9174 45.5 62.7831 45.5 63.6828C45.5 64.3826 45.9875 65.2157 47.2875 64.9491C52.449 63.1625 56.9341 59.7614 60.1115 55.2244C63.2889 50.6875 64.9986 45.2431 65 39.6576C65 24.9293 53.365 13 39 13Z" fill="black"/>
</svg>
