<svg width="78" height="78" viewBox="0 0 78 78" fill="none" xmlns="http://www.w3.org/2000/svg">
<circle cx="39" cy="39" r="34.125" fill="#140A22"/>
<path d="M50.3746 18.0648C50.3746 16.6365 48.7753 16.6365 48.0645 16.815C49.0596 16.0294 50.2265 16.2199 50.6411 16.4579L60.2511 21.1696C61.1667 21.6186 61.7476 22.5527 61.7476 23.5764V54.5726C61.7476 55.61 61.1513 56.5541 60.217 56.9958L51.1743 61.2712C50.5523 61.539 49.2018 62.1996 48.0645 61.2712C49.4861 61.539 50.2561 60.5273 50.3746 59.8429V18.0648Z" fill="#2FAAEF"/>
<path d="M48.1857 16.7878C48.9401 16.6387 50.3805 16.7078 50.3805 18.0633V28.7325L21.245 50.772C20.7357 51.1573 20.019 51.0934 19.5852 50.624L16.5824 47.375C16.112 46.866 16.1449 46.0693 16.6557 45.6012L48.0703 16.8135L48.1857 16.7878Z" fill="#1279C8"/>
<path d="M50.3805 49.3446L21.245 27.3051C20.7357 26.9198 20.019 26.9838 19.5852 27.4531L16.5824 30.7021C16.112 31.2111 16.1449 32.0078 16.6557 32.4759L48.0703 61.2636C49.4919 61.5314 50.262 60.5197 50.3805 59.8353V49.3446Z" fill="#1279C8"/>
</svg>
