<svg width="20" height="20" viewBox="0 0 20 20" fill="none" xmlns="http://www.w3.org/2000/svg">
<path d="M2.08301 10.0002C2.08301 6.26821 2.08301 4.40224 3.24237 3.24286C4.40175 2.0835 6.26772 2.0835 9.99967 2.0835C13.7316 2.0835 15.5976 2.0835 16.757 3.24286C17.9163 4.40224 17.9163 6.26821 17.9163 10.0002C17.9163 13.7321 17.9163 15.5981 16.757 16.7575C15.5976 17.9168 13.7316 17.9168 9.99967 17.9168C6.26772 17.9168 4.40175 17.9168 3.24237 16.7575C2.08301 15.5981 2.08301 13.7321 2.08301 10.0002Z" stroke="url(#paint0_linear_94_999)" stroke-linejoin="round"/>
<path d="M13.75 10C13.75 12.0711 12.0711 13.75 10 13.75C7.92893 13.75 6.25 12.0711 6.25 10C6.25 7.92893 7.92893 6.25 10 6.25C12.0711 6.25 13.75 7.92893 13.75 10Z" stroke="url(#paint1_linear_94_999)"/>
<path d="M14.5895 5.4165H14.582" stroke="url(#paint2_linear_94_999)" stroke-linecap="round" stroke-linejoin="round"/>
<defs>
<linearGradient id="paint0_linear_94_999" x1="9.99967" y1="2.0835" x2="9.99967" y2="17.9168" gradientUnits="userSpaceOnUse">
<stop stop-color="white"/>
<stop offset="1" stop-color="#999999"/>
</linearGradient>
<linearGradient id="paint1_linear_94_999" x1="10" y1="6.25" x2="10" y2="13.75" gradientUnits="userSpaceOnUse">
<stop stop-color="white"/>
<stop offset="1" stop-color="#999999"/>
</linearGradient>
<linearGradient id="paint2_linear_94_999" x1="14.5858" y1="5.4165" x2="14.5858" y2="6.4165" gradientUnits="userSpaceOnUse">
<stop stop-color="white"/>
<stop offset="1" stop-color="#999999"/>
</linearGradient>
</defs>
</svg>
