<svg width="78" height="78" viewBox="0 0 78 78" fill="none" xmlns="http://www.w3.org/2000/svg">
<circle cx="39" cy="39" r="34.125" fill="#4B4B4B"/>
<g clip-path="url(#clip0_72_1853)">
<path d="M26.151 53.5604L13.5967 43.6062L19.8367 32.0176L37.7395 39.0004L26.151 53.5604Z" fill="#4B4B4B"/>
<path d="M65.0004 26.8868L64.0347 56.9725L44.0519 64.9954L32.0176 57.2696L49.6233 38.9954L41.8976 22.1325L48.8061 13.8125L65.0004 26.8868Z" fill="#4B4B4B"/>
<path d="M64.9974 26.8868L49.1745 45.6068L41.8945 22.1325L48.8031 13.8125L64.9974 26.8868Z" fill="#4B4B4B"/>
<path d="M38.0343 56.16L17.16 63.7372L20.5029 52L24.8857 37.5886L13 33.5771L20.5029 13L36.8457 15.0057L52.8914 33.3543L38.0343 56.16Z" fill="#4B4B4B"/>
<path d="M23.1836 23.0273H55.275V55.1188H23.1836V23.0273Z" fill="url(#paint0_linear_72_1853)"/>
<path d="M26.1543 49.1035H38.1886V51.1092H26.1543V49.1035Z" fill="#4B4B4B"/>
<path d="M34.8459 29.6428V27.1914H28.1602V29.6428H30.0916V38.0371H28.1602V40.4886H34.8459V38.0371H32.9887V29.6428H34.8459Z" fill="#4B4B4B"/>
<path d="M41.2412 40.7114C40.2012 40.7114 39.3098 40.4885 38.6412 40.1171C37.9726 39.7457 37.3783 39.2257 36.9326 38.7057L38.7898 36.6257C39.1612 37.0714 39.5326 37.3685 39.904 37.5914C40.2755 37.8143 40.7212 37.9628 41.1669 37.9628C41.6869 37.9628 42.1326 37.8143 42.504 37.4428C42.8012 37.0714 42.9498 36.5514 42.9498 35.7343V27.1914H45.9212V35.8828C45.9212 36.7 45.8469 37.3685 45.624 37.9628C45.4012 38.5571 45.104 39.0028 44.6583 39.4485C44.2869 39.82 43.7669 40.1914 43.1726 40.34C42.5783 40.5628 41.984 40.7114 41.2412 40.7114Z" fill="#4B4B4B"/>
</g>
<defs>
<linearGradient id="paint0_linear_72_1853" x1="55.275" y1="39.0731" x2="23.1836" y2="39.0731" gradientUnits="userSpaceOnUse">
<stop stop-color="#FFFDF8"/>
<stop offset="1" stop-color="#FFE7C7" stop-opacity="0.5"/>
</linearGradient>
<clipPath id="clip0_72_1853">
<rect width="52" height="52" fill="white" transform="translate(13 13)"/>
</clipPath>
</defs>
</svg>
