<svg width="20" height="20" viewBox="0 0 20 20" fill="none" xmlns="http://www.w3.org/2000/svg">
<path d="M5.83301 8.3335V14.1668" stroke="url(#paint0_linear_94_1003)" stroke-linecap="round" stroke-linejoin="round"/>
<path d="M9.16699 10.8335V14.1668M9.16699 10.8335C9.16699 9.45275 10.2862 8.3335 11.667 8.3335C13.0477 8.3335 14.167 9.45275 14.167 10.8335V14.1668M9.16699 10.8335V8.3335" stroke="url(#paint1_linear_94_1003)" stroke-linecap="round" stroke-linejoin="round"/>
<path d="M5.83952 5.8335H5.83203" stroke="url(#paint2_linear_94_1003)" stroke-linecap="round" stroke-linejoin="round"/>
<path d="M2.08301 10.0002C2.08301 6.26821 2.08301 4.40224 3.24237 3.24286C4.40175 2.0835 6.26772 2.0835 9.99967 2.0835C13.7316 2.0835 15.5976 2.0835 16.757 3.24286C17.9163 4.40224 17.9163 6.26821 17.9163 10.0002C17.9163 13.7321 17.9163 15.5981 16.757 16.7575C15.5976 17.9168 13.7316 17.9168 9.99967 17.9168C6.26772 17.9168 4.40175 17.9168 3.24237 16.7575C2.08301 15.5981 2.08301 13.7321 2.08301 10.0002Z" stroke="url(#paint3_linear_94_1003)" stroke-linejoin="round"/>
<defs>
<linearGradient id="paint0_linear_94_1003" x1="6.33301" y1="8.3335" x2="6.33301" y2="14.1668" gradientUnits="userSpaceOnUse">
<stop stop-color="white"/>
<stop offset="1" stop-color="#999999"/>
</linearGradient>
<linearGradient id="paint1_linear_94_1003" x1="11.667" y1="8.3335" x2="11.667" y2="14.1668" gradientUnits="userSpaceOnUse">
<stop stop-color="white"/>
<stop offset="1" stop-color="#999999"/>
</linearGradient>
<linearGradient id="paint2_linear_94_1003" x1="5.83578" y1="5.8335" x2="5.83578" y2="6.8335" gradientUnits="userSpaceOnUse">
<stop stop-color="white"/>
<stop offset="1" stop-color="#999999"/>
</linearGradient>
<linearGradient id="paint3_linear_94_1003" x1="9.99967" y1="2.0835" x2="9.99967" y2="17.9168" gradientUnits="userSpaceOnUse">
<stop stop-color="white"/>
<stop offset="1" stop-color="#999999"/>
</linearGradient>
</defs>
</svg>
