<svg width="48" height="48" viewBox="0 0 48 48" fill="none" xmlns="http://www.w3.org/2000/svg">
<rect width="48" height="48" rx="8" fill="#B34424" fill-opacity="0.1"/>
<path d="M20.1852 35.0822C21.6927 32.4887 25.1452 32.1829 27.1115 34.1647C27.5511 34.6078 27.7709 34.8295 27.9659 34.856C28.1608 34.8825 29.3841 34.1809 29.8183 33.932C30.2609 33.6782 31.4882 32.9743 31.5653 32.7902C31.6424 32.6059 31.5617 32.292 31.4002 31.6641C30.8129 29.3808 32.237 26.9778 34.5125 26.3581C35.1214 26.1922 35.4258 26.1092 35.5461 25.9507C35.6663 25.7921 35.6663 24.3977 35.6663 23.8876C35.6663 23.3775 35.6663 21.983 35.5461 21.8244C35.4258 21.6659 35.1214 21.5829 34.5125 21.4171C32.2367 20.7973 30.8114 18.3944 31.3984 16.111C31.5598 15.483 31.6405 15.169 31.5634 14.9848C31.4863 14.8007 30.2591 14.0969 29.8166 13.8431C29.3822 13.5941 28.159 12.8926 27.9641 12.9191C27.7692 12.9456 27.5494 13.1671 27.1097 13.6102C25.4071 15.3257 22.5903 15.3258 20.8879 13.6103C20.4482 13.1673 20.2283 12.9457 20.0334 12.9192C19.8385 12.8927 18.6153 13.5942 18.181 13.8432C17.7385 14.097 16.5111 14.8009 16.434 14.985C16.3569 15.1692 16.4377 15.4831 16.5992 16.1111C17.1864 18.3944 15.7623 20.7973 13.4869 21.4171C12.878 21.5829 12.5735 21.6659 12.4533 21.8245C12.333 21.983 12.333 23.3775 12.333 23.8876C12.333 24.3977 12.333 25.7921 12.4533 25.9508C12.5735 26.1094 12.8778 26.1922 13.4864 26.358C13.4936 26.36 13.5007 26.3619 13.5078 26.3638" stroke="url(#paint0_linear_65_869)" stroke-width="1.5" stroke-linecap="round"/>
<path d="M12.9034 31.2132C14.1634 29.9538 18.4474 25.7136 18.8674 25.2237C19.3114 24.7059 18.9514 24.0063 19.1656 21.8371C19.2692 20.7876 19.4951 20.0013 20.1414 19.4161C20.9114 18.6884 21.5414 18.6884 23.7114 18.6395C25.6014 18.6884 25.8254 18.4785 26.0214 18.9683C26.1614 19.3182 25.7414 19.5281 25.2374 20.0879C24.1174 21.2074 23.4594 21.7672 23.3964 22.1171C22.9414 23.6564 24.7334 24.566 25.7134 23.5864C26.084 23.216 27.7994 21.4873 27.9674 21.3474C28.0934 21.2354 28.395 21.2408 28.5414 21.4173C28.6674 21.5411 28.6814 21.5573 28.6674 22.117C28.6544 22.6352 28.6603 23.3791 28.6618 24.1462C28.6639 25.1402 28.6114 26.2453 28.1914 26.8051C27.3514 28.0645 25.9514 28.1345 24.6914 28.1905C23.5014 28.2605 22.5214 28.1345 22.2134 28.3584C21.9614 28.4844 20.6314 29.8838 19.0214 31.4931L16.1514 34.362C13.7714 36.2513 11.1534 33.3124 12.9034 31.2132Z" stroke="url(#paint1_linear_65_869)" stroke-width="1.5" stroke-linecap="round"/>
<defs>
<linearGradient id="paint0_linear_65_869" x1="23.9997" y1="12.9183" x2="23.9997" y2="35.0822" gradientUnits="userSpaceOnUse">
<stop stop-color="white"/>
<stop offset="1" stop-color="#999999"/>
</linearGradient>
<linearGradient id="paint1_linear_65_869" x1="20.5024" y1="18.6352" x2="20.5024" y2="34.9685" gradientUnits="userSpaceOnUse">
<stop stop-color="white"/>
<stop offset="1" stop-color="#999999"/>
</linearGradient>
</defs>
</svg>
