<svg width="386" height="299" viewBox="0 0 386 299" fill="none" xmlns="http://www.w3.org/2000/svg">
<circle cx="75.6282" cy="193.582" r="58.6643" transform="rotate(-18.2777 75.6282 193.582)" stroke="url(#paint0_linear_65_1111)" stroke-opacity="0.7" stroke-width="1.27058"/>
<circle cx="76.1456" cy="193.134" r="45.1055" transform="rotate(-18.2777 76.1456 193.134)" stroke="url(#paint1_linear_65_1111)" stroke-opacity="0.5" stroke-width="1.27058"/>
<circle cx="75.3443" cy="192.73" r="31.7644" transform="rotate(-18.2777 75.3443 192.73)" stroke="url(#paint2_linear_65_1111)" stroke-opacity="0.3" stroke-width="1.27058"/>
<circle cx="76.1476" cy="193.133" r="18.4234" transform="rotate(-18.2777 76.1476 193.133)" stroke="url(#paint3_linear_65_1111)" stroke-opacity="0.2" stroke-width="1.27058"/>
<path d="M62.1883 151.779C60.7483 147.419 56.0219 145.039 51.6619 146.479C47.3019 147.919 44.9225 152.646 46.3625 157.006C47.1205 159.3 48.7917 161.039 50.8367 161.97C50.8394 161.977 50.8394 161.977 50.8341 161.988C50.9393 162.041 51.0552 162.073 51.1578 162.118C51.2184 162.142 51.271 162.168 51.3289 162.184C51.5106 162.256 51.7054 162.315 51.8924 162.376C51.9608 162.397 52.0187 162.413 52.0872 162.434C52.2715 162.487 52.4611 162.53 52.6561 162.562C52.7219 162.576 52.7983 162.594 52.8641 162.608C53.0511 162.642 53.2434 162.667 53.441 162.68C53.5148 162.691 53.5886 162.702 53.6597 162.705C53.8573 162.718 54.0523 162.724 54.2447 162.722C54.3158 162.725 54.387 162.728 54.4555 162.723C54.6637 162.715 54.8693 162.7 55.0749 162.685C55.1355 162.682 55.1961 162.68 55.262 162.667C55.4993 162.641 55.7313 162.6 55.9686 162.548C56.0003 162.537 56.0345 162.535 56.0688 162.532C56.3457 162.467 56.6199 162.394 56.889 162.305C57.158 162.216 57.4218 162.111 57.6751 162.002C57.7068 161.991 57.7358 161.973 57.7648 161.954C57.9865 161.855 58.1976 161.75 58.4035 161.629C58.4562 161.603 58.5038 161.561 58.5645 161.532C58.7387 161.422 58.9235 161.317 59.0845 161.194C59.14 161.149 59.1955 161.104 59.2535 161.068C59.4067 160.947 59.5704 160.831 59.7131 160.705C59.7685 160.661 59.8214 160.608 59.8742 160.556C60.0169 160.429 60.1569 160.295 60.2943 160.153C60.3472 160.101 60.3895 160.043 60.4344 159.993C60.5613 159.846 60.6908 159.707 60.8151 159.551C60.8601 159.501 60.8945 159.446 60.9368 159.388C61.0585 159.225 61.1722 159.065 61.2755 158.899C61.3099 158.844 61.3364 158.791 61.3734 158.744C61.4369 158.644 61.5004 158.544 61.556 158.447C61.5534 158.439 61.5534 158.439 61.5429 158.433C62.6393 156.465 62.9463 154.073 62.1883 151.779ZM59.4833 157.034C56.8633 156.302 53.35 157.462 51.6654 159.616C51.393 159.96 51.197 160.324 51.0563 160.695C49.4511 159.873 48.1558 158.449 47.5495 156.614C46.3237 152.902 48.3428 148.892 52.0539 147.666C55.7651 146.44 59.7757 148.459 61.0014 152.171C61.6077 154.006 61.4154 155.922 60.6151 157.538C60.2889 157.321 59.9073 157.148 59.4833 157.034Z" fill="url(#paint4_linear_65_1111)"/>
<path d="M52.9507 150.378C51.3128 150.919 50.4225 152.687 50.9635 154.325C51.494 155.932 53.1834 156.822 54.8687 156.318C54.8924 156.31 54.9241 156.299 54.9399 156.294C54.9557 156.289 54.9795 156.281 54.9953 156.276C55.0032 156.273 55.0111 156.271 55.0111 156.271C56.5912 155.687 57.4208 153.974 56.8981 152.365C56.3571 150.727 54.5887 149.837 52.9507 150.378Z" fill="url(#paint5_linear_65_1111)"/>
<path d="M42.8056 216.595C41.9271 212.564 37.9266 209.995 33.8957 210.874C29.8648 211.752 27.2959 215.753 28.1744 219.784C28.6367 221.905 29.9673 223.615 31.7075 224.638C31.7091 224.646 31.7091 224.646 31.7034 224.654C31.7925 224.712 31.8931 224.751 31.9806 224.801C32.0324 224.828 32.077 224.857 32.1272 224.876C32.2828 224.957 32.4515 225.028 32.6128 225.1C32.672 225.125 32.7222 225.145 32.7814 225.17C32.9411 225.235 33.1066 225.291 33.2778 225.338C33.3353 225.356 33.4018 225.38 33.4594 225.398C33.6233 225.447 33.7928 225.486 33.9681 225.517C34.033 225.534 34.0979 225.55 34.1612 225.559C34.3365 225.59 34.5102 225.614 34.6823 225.63C34.7457 225.639 34.809 225.648 34.8707 225.65C35.0574 225.663 35.2425 225.669 35.4277 225.674C35.4821 225.678 35.5365 225.681 35.5966 225.676C35.811 225.675 36.0222 225.66 36.2392 225.635C36.2684 225.629 36.2993 225.63 36.3301 225.631C36.5836 225.599 36.8356 225.559 37.0843 225.505C37.333 225.451 37.5786 225.382 37.8152 225.307C37.8445 225.301 37.8721 225.287 37.8998 225.273C38.1072 225.205 38.3056 225.131 38.5009 225.043C38.5505 225.024 38.5969 224.991 38.6539 224.971C38.8199 224.889 38.9948 224.813 39.1503 224.717C39.204 224.683 39.2578 224.648 39.3131 224.621C39.4613 224.527 39.6184 224.439 39.7577 224.34C39.8114 224.305 39.8636 224.263 39.9157 224.221C40.055 224.122 40.1927 224.015 40.3288 223.901C40.3809 223.859 40.4242 223.811 40.469 223.771C40.5962 223.651 40.725 223.539 40.8505 223.412C40.8954 223.372 40.9313 223.325 40.9745 223.278C41.0985 223.143 41.2152 223.011 41.323 222.872C41.3589 222.826 41.3875 222.782 41.425 222.743C41.4911 222.659 41.5573 222.576 41.6161 222.494C41.6145 222.487 41.6145 222.487 41.6056 222.481C42.7696 220.825 43.268 218.716 42.8056 216.595ZM39.8963 221.037C37.6236 220.138 34.3754 220.846 32.6684 222.613C32.3928 222.895 32.1836 223.201 32.0232 223.52C30.6657 222.635 29.6416 221.242 29.2717 219.544C28.524 216.113 30.7038 212.719 34.1348 211.971C37.5659 211.223 40.9605 213.403 41.7083 216.834C42.0781 218.531 41.7269 220.225 40.8604 221.594C40.5893 221.369 40.2644 221.179 39.8963 221.037Z" fill="url(#paint6_linear_65_1111)"/>
<path d="M34.6809 214.481C33.1665 214.811 32.2053 216.308 32.5354 217.822C32.859 219.308 34.2852 220.261 35.8384 219.969C35.8604 219.964 35.8896 219.957 35.9043 219.954C35.9189 219.951 35.9408 219.946 35.9555 219.943C35.9628 219.942 35.9701 219.94 35.9701 219.94C37.4367 219.567 38.3384 218.113 38.0221 216.627C37.6921 215.112 36.1952 214.151 34.6809 214.481Z" fill="url(#paint7_linear_65_1111)"/>
<path d="M109.818 227.572C108.94 223.541 104.939 220.972 100.908 221.851C96.8775 222.729 94.3086 226.73 95.1871 230.761C95.6494 232.882 96.98 234.592 98.7202 235.616C98.7218 235.623 98.7218 235.623 98.7161 235.632C98.8052 235.689 98.9058 235.728 98.9933 235.778C99.0451 235.805 99.0897 235.834 99.1399 235.854C99.2955 235.935 99.4642 236.005 99.6255 236.077C99.6847 236.103 99.7349 236.122 99.7941 236.148C99.9538 236.213 100.119 236.268 100.29 236.315C100.348 236.334 100.415 236.357 100.472 236.376C100.636 236.424 100.806 236.464 100.981 236.495C101.046 236.511 101.111 236.528 101.174 236.537C101.349 236.568 101.523 236.591 101.695 236.607C101.758 236.616 101.822 236.625 101.883 236.627C102.07 236.64 102.255 236.646 102.44 236.652C102.495 236.655 102.549 236.659 102.609 236.653C102.824 236.652 103.035 236.637 103.252 236.613C103.281 236.606 103.312 236.607 103.343 236.608C103.596 236.576 103.848 236.536 104.097 236.482C104.346 236.428 104.591 236.359 104.828 236.285C104.857 236.278 104.885 236.264 104.912 236.251C105.12 236.183 105.318 236.109 105.514 236.02C105.563 236.002 105.61 235.969 105.667 235.948C105.833 235.866 106.007 235.79 106.163 235.695C106.217 235.66 106.27 235.625 106.326 235.598C106.474 235.504 106.631 235.416 106.77 235.317C106.824 235.282 106.876 235.24 106.928 235.198C107.068 235.099 107.205 234.992 107.341 234.878C107.394 234.836 107.437 234.789 107.482 234.748C107.609 234.629 107.738 234.516 107.863 234.389C107.908 234.349 107.944 234.303 107.987 234.255C108.111 234.121 108.228 233.988 108.336 233.85C108.372 233.803 108.4 233.759 108.438 233.72C108.504 233.637 108.57 233.553 108.629 233.471C108.627 233.464 108.627 233.464 108.618 233.458C109.782 231.802 110.281 229.694 109.818 227.572ZM106.909 232.015C104.636 231.115 101.388 231.823 99.6811 233.59C99.4055 233.872 99.1963 234.178 99.0359 234.497C97.6784 233.613 96.6543 232.219 96.2844 230.522C95.5367 227.091 97.7165 223.696 101.148 222.948C104.579 222.201 107.973 224.38 108.721 227.811C109.091 229.509 108.74 231.202 107.873 232.571C107.602 232.347 107.277 232.157 106.909 232.015Z" fill="url(#paint8_linear_65_1111)"/>
<path d="M101.696 225.456C100.181 225.786 99.22 227.283 99.55 228.798C99.8737 230.283 101.3 231.236 102.853 230.944C102.875 230.939 102.904 230.933 102.919 230.929C102.934 230.926 102.955 230.922 102.97 230.918C102.977 230.917 102.985 230.915 102.985 230.915C104.451 230.542 105.353 229.089 105.037 227.602C104.707 226.088 103.21 225.126 101.696 225.456Z" fill="url(#paint9_linear_65_1111)"/>
<path d="M126.763 173.091C125.785 168.604 121.333 165.745 116.846 166.723C112.36 167.7 109.501 172.153 110.479 176.639C110.993 179.001 112.474 180.904 114.411 182.043C114.413 182.051 114.413 182.051 114.406 182.061C114.506 182.124 114.617 182.168 114.715 182.224C114.773 182.254 114.822 182.286 114.878 182.308C115.051 182.398 115.239 182.476 115.418 182.557C115.484 182.585 115.54 182.607 115.606 182.635C115.784 182.707 115.968 182.769 116.159 182.822C116.223 182.842 116.297 182.868 116.361 182.889C116.543 182.943 116.732 182.987 116.927 183.021C116.999 183.039 117.071 183.058 117.142 183.068C117.337 183.102 117.53 183.128 117.722 183.146C117.792 183.157 117.863 183.167 117.931 183.169C118.139 183.183 118.345 183.19 118.551 183.196C118.612 183.2 118.673 183.204 118.739 183.197C118.978 183.197 119.213 183.18 119.455 183.152C119.487 183.145 119.521 183.146 119.556 183.147C119.838 183.112 120.118 183.068 120.395 183.007C120.672 182.947 120.945 182.87 121.209 182.787C121.241 182.78 121.272 182.765 121.303 182.75C121.534 182.674 121.755 182.592 121.972 182.493C122.027 182.472 122.079 182.436 122.142 182.413C122.327 182.322 122.522 182.237 122.695 182.131C122.754 182.092 122.814 182.054 122.876 182.023C123.041 181.919 123.216 181.821 123.371 181.711C123.431 181.672 123.489 181.625 123.547 181.578C123.702 181.468 123.855 181.349 124.006 181.222C124.064 181.176 124.112 181.122 124.162 181.077C124.304 180.944 124.447 180.819 124.587 180.678C124.637 180.633 124.677 180.582 124.725 180.528C124.863 180.379 124.993 180.231 125.113 180.077C125.153 180.026 125.185 179.976 125.226 179.933C125.3 179.84 125.374 179.747 125.439 179.656C125.437 179.648 125.437 179.648 125.427 179.642C126.723 177.799 127.278 175.452 126.763 173.091ZM123.525 178.035C120.995 177.034 117.38 177.822 115.48 179.788C115.174 180.102 114.941 180.443 114.762 180.798C113.251 179.813 112.112 178.262 111.7 176.373C110.868 172.555 113.294 168.776 117.112 167.944C120.931 167.112 124.709 169.538 125.542 173.357C125.953 175.246 125.562 177.13 124.598 178.654C124.296 178.404 123.935 178.193 123.525 178.035Z" fill="url(#paint10_linear_65_1111)"/>
<path d="M117.723 170.736C116.038 171.103 114.968 172.769 115.335 174.455C115.696 176.108 117.283 177.169 119.012 176.843C119.036 176.838 119.069 176.831 119.085 176.827C119.101 176.824 119.126 176.819 119.142 176.815C119.15 176.813 119.158 176.811 119.158 176.811C120.79 176.396 121.794 174.779 121.442 173.124C121.075 171.438 119.409 170.369 117.723 170.736Z" fill="url(#paint11_linear_65_1111)"/>
<path d="M155.943 160.786L109.225 193.326C97.0275 201.821 81.1399 202.899 67.9072 196.129L46.4072 187.129L5.40709 170.084C3.56427 169.318 1.4714 170.37 0.98672 172.306C0.918386 172.579 0.885623 172.859 0.889246 173.141L2.45247 294.551C2.4794 296.643 4.18274 298.324 6.27466 298.324H378.245C380.924 298.324 383.097 296.152 383.097 293.472V168.26V153.31V150.075C383.097 148.775 382.28 147.615 381.056 147.177L346.022 134.642C338.101 131.808 329.301 132.955 322.37 137.724L302.997 151.055L302.997 151.055C290.652 159.55 284.48 163.797 277.718 165.816C271.735 167.602 265.444 168.116 259.249 167.327C252.249 166.434 245.468 163.247 231.907 156.872L227.366 154.738C213.72 148.323 206.897 145.116 199.857 144.23C193.627 143.447 187.303 143.983 181.294 145.802C174.502 147.859 168.316 152.168 155.943 160.786Z" fill="url(#paint12_linear_65_1111)"/>
<path d="M2.50098 166.295L55.2783 188.943C68.6971 194.701 75.4064 197.58 82.2687 198.266C88.3419 198.874 94.4753 198.233 100.292 196.384C106.864 194.295 112.834 190.092 124.774 181.685L157.102 158.923C169.72 150.039 176.028 145.598 182.963 143.508C189.097 141.659 195.556 141.148 201.905 142.009C209.082 142.983 216.01 146.378 229.868 153.168L231.869 154.148C245.017 160.59 251.591 163.811 258.383 164.845C265.144 165.874 272.05 165.341 278.573 163.287C285.127 161.223 291.128 157.031 303.132 148.648C313.817 141.185 319.16 137.454 325.01 135.419C330.837 133.392 337.019 132.591 343.169 133.067C349.345 133.544 355.462 135.791 367.696 140.285L383.097 145.942" stroke="url(#paint13_linear_65_1111)" stroke-width="5" stroke-linecap="round"/>
<circle cx="318.762" cy="59.0369" r="45.1055" stroke="url(#paint14_linear_65_1111)" stroke-opacity="0.29" stroke-width="1.27058"/>
<circle cx="318.13" cy="58.4002" r="31.7644" stroke="url(#paint15_linear_65_1111)" stroke-opacity="0.29" stroke-width="1.27058"/>
<circle cx="318.766" cy="59.0353" r="18.4234" stroke="url(#paint16_linear_65_1111)" stroke-opacity="0.5" stroke-width="1.27058"/>
<path d="M318.49 15.3891C318.49 10.7975 314.748 7.05579 310.157 7.05579C305.565 7.05579 301.823 10.7975 301.823 15.3891C301.823 17.8058 302.865 19.9808 304.515 21.5058C304.515 21.5141 304.515 21.5141 304.507 21.5225C304.59 21.6058 304.69 21.6725 304.773 21.7475C304.823 21.7891 304.865 21.8308 304.915 21.8641C305.065 21.9891 305.232 22.1058 305.39 22.2225C305.448 22.2641 305.498 22.2975 305.557 22.3391C305.715 22.4475 305.882 22.5475 306.057 22.6391C306.115 22.6725 306.182 22.7141 306.24 22.7475C306.407 22.8391 306.582 22.9225 306.765 22.9975C306.832 23.0308 306.898 23.0641 306.965 23.0891C307.148 23.1641 307.332 23.2308 307.515 23.2891C307.582 23.3141 307.648 23.3391 307.715 23.3558C307.915 23.4141 308.115 23.4641 308.315 23.5141C308.373 23.5308 308.432 23.5475 308.498 23.5558C308.732 23.6058 308.965 23.6391 309.207 23.6641C309.24 23.6641 309.273 23.6725 309.307 23.6808C309.59 23.7058 309.873 23.7225 310.157 23.7225C310.44 23.7225 310.723 23.7058 310.998 23.6808C311.032 23.6808 311.065 23.6725 311.098 23.6641C311.34 23.6391 311.573 23.6058 311.807 23.5558C311.865 23.5475 311.923 23.5225 311.99 23.5141C312.19 23.4641 312.398 23.4225 312.59 23.3558C312.657 23.3308 312.723 23.3058 312.79 23.2891C312.973 23.2225 313.165 23.1641 313.34 23.0891C313.407 23.0641 313.473 23.0308 313.54 22.9975C313.715 22.9225 313.89 22.8391 314.065 22.7475C314.132 22.7141 314.19 22.6725 314.248 22.6391C314.415 22.5391 314.582 22.4475 314.748 22.3391C314.807 22.3058 314.857 22.2641 314.915 22.2225C315.082 22.1058 315.24 21.9891 315.39 21.8641C315.44 21.8225 315.482 21.7808 315.532 21.7475C315.623 21.6725 315.715 21.5975 315.798 21.5225C315.798 21.5141 315.798 21.5141 315.79 21.5058C317.448 19.9808 318.49 17.8058 318.49 15.3891ZM314.273 19.5308C312.015 18.0141 308.315 18.0141 306.04 19.5308C305.673 19.7725 305.373 20.0558 305.123 20.3641C303.857 19.0808 303.073 17.3225 303.073 15.3891C303.073 11.4808 306.248 8.30579 310.157 8.30579C314.065 8.30579 317.24 11.4808 317.24 15.3891C317.24 17.3225 316.457 19.0808 315.19 20.3641C314.948 20.0558 314.64 19.7725 314.273 19.5308Z" fill="url(#paint17_linear_65_1111)"/>
<path d="M310.147 11.1686C308.422 11.1686 307.022 12.5686 307.022 14.2936C307.022 15.9852 308.347 17.3602 310.106 17.4102C310.131 17.4102 310.164 17.4102 310.181 17.4102C310.197 17.4102 310.222 17.4102 310.239 17.4102C310.247 17.4102 310.256 17.4102 310.256 17.4102C311.939 17.3519 313.264 15.9852 313.272 14.2936C313.272 12.5686 311.872 11.1686 310.147 11.1686Z" fill="url(#paint18_linear_65_1111)"/>
<path d="M280.959 71.41C281.264 66.9836 277.906 63.1279 273.48 62.8226C269.053 62.5173 265.198 65.8756 264.892 70.302C264.732 72.6317 265.591 74.7976 267.08 76.3774C267.08 76.3855 267.08 76.3855 267.071 76.393C267.146 76.4788 267.238 76.5498 267.313 76.6276C267.359 76.6711 267.396 76.714 267.442 76.7495C267.578 76.88 267.731 77.0035 267.876 77.1265C267.93 77.1705 267.976 77.206 268.029 77.25C268.175 77.365 268.329 77.4725 268.491 77.5725C268.545 77.6085 268.607 77.6531 268.661 77.6891C268.815 77.7886 268.978 77.8805 269.15 77.965C269.212 78.0016 269.274 78.0382 269.337 78.0667C269.509 78.1512 269.681 78.2276 269.854 78.2961C269.916 78.3246 269.979 78.3531 270.042 78.3736C270.231 78.4431 270.421 78.5046 270.61 78.5661C270.665 78.5861 270.72 78.606 270.784 78.6185C271.006 78.6822 271.228 78.7299 271.46 78.77C271.492 78.7722 271.523 78.7825 271.555 78.7927C271.826 78.8357 272.099 78.8706 272.372 78.8894C272.645 78.9083 272.919 78.911 273.186 78.9052C273.218 78.9074 273.251 78.9016 273.283 78.8958C273.518 78.8878 273.745 78.8711 273.973 78.8384C274.03 78.8343 274.088 78.8141 274.153 78.8105C274.349 78.7756 274.553 78.7492 274.742 78.6977C274.808 78.6781 274.874 78.6584 274.939 78.6468C275.12 78.5947 275.309 78.5512 275.483 78.4905C275.548 78.4709 275.615 78.4431 275.681 78.4154C275.855 78.3548 276.029 78.2861 276.204 78.2093C276.271 78.1816 276.33 78.1454 276.388 78.1171C276.555 78.0318 276.722 77.9545 276.89 77.8611C276.948 77.8329 276.999 77.796 277.058 77.7598C277.227 77.6584 277.387 77.5564 277.54 77.4459C277.591 77.4091 277.634 77.3717 277.684 77.3428C277.778 77.2766 277.871 77.2104 277.957 77.1437C277.957 77.1356 277.957 77.1356 277.95 77.1271C279.65 75.7672 280.798 73.7397 280.959 71.41ZM276.619 75.1223C274.543 73.5101 270.976 73.2641 268.682 74.5749C268.312 74.7835 268.004 75.0367 267.743 75.3173C266.607 73.996 265.969 72.2488 266.097 70.3851C266.357 66.6174 269.629 63.7678 273.397 64.0276C277.164 64.2874 280.014 67.5593 279.754 71.3269C279.626 73.1907 278.753 74.8337 277.447 75.9866C277.235 75.6733 276.956 75.3796 276.619 75.1223Z" fill="url(#paint19_linear_65_1111)"/>
<path d="M273.206 66.7825C271.543 66.6678 270.1 67.9243 269.986 69.5872C269.873 71.218 271.059 72.6316 272.751 72.7967C272.775 72.7984 272.807 72.8006 272.823 72.8017C272.839 72.8028 272.863 72.8045 272.879 72.8056C272.887 72.8061 272.895 72.8067 272.895 72.8067C274.522 72.8624 275.89 71.633 276.011 70.0028C276.125 68.3398 274.869 66.8972 273.206 66.7825Z" fill="url(#paint20_linear_65_1111)"/>
<path d="M341.685 103.505C342.163 98.9379 338.832 94.8266 334.265 94.3479C329.699 93.8693 325.588 97.2005 325.109 101.767C324.857 104.171 325.666 106.442 327.148 108.131C327.147 108.139 327.147 108.139 327.138 108.147C327.212 108.238 327.305 108.315 327.38 108.398C327.425 108.445 327.462 108.491 327.509 108.529C327.645 108.669 327.798 108.803 327.944 108.935C327.997 108.983 328.044 109.021 328.097 109.068C328.244 109.193 328.399 109.31 328.563 109.419C328.618 109.458 328.68 109.507 328.734 109.546C328.891 109.654 329.056 109.755 329.231 109.849C329.293 109.889 329.356 109.929 329.42 109.961C329.594 110.055 329.77 110.14 329.946 110.217C330.01 110.249 330.073 110.281 330.138 110.305C330.331 110.383 330.525 110.454 330.718 110.525C330.774 110.547 330.831 110.57 330.896 110.585C331.123 110.659 331.352 110.717 331.589 110.767C331.623 110.77 331.655 110.782 331.687 110.794C331.966 110.848 332.246 110.894 332.528 110.924C332.81 110.953 333.093 110.966 333.37 110.97C333.403 110.974 333.437 110.969 333.471 110.964C333.714 110.964 333.949 110.955 334.187 110.93C334.245 110.928 334.306 110.909 334.373 110.908C334.577 110.879 334.789 110.859 334.986 110.813C335.055 110.795 335.124 110.777 335.192 110.767C335.382 110.72 335.578 110.682 335.76 110.626C335.829 110.608 335.899 110.582 335.969 110.555C336.15 110.499 336.333 110.434 336.517 110.362C336.587 110.335 336.649 110.3 336.71 110.273C336.887 110.191 337.062 110.117 337.239 110.027C337.3 110 337.355 109.963 337.417 109.928C337.595 109.829 337.764 109.73 337.927 109.621C337.981 109.585 338.027 109.548 338.08 109.52C338.179 109.455 338.278 109.39 338.368 109.324C338.369 109.316 338.369 109.316 338.362 109.306C340.17 107.963 341.433 105.908 341.685 103.505ZM337.059 107.184C334.971 105.44 331.292 105.055 328.871 106.326C328.481 106.528 328.153 106.778 327.872 107.059C326.746 105.651 326.151 103.82 326.352 101.897C326.759 98.0104 330.248 95.1837 334.135 95.5911C338.022 95.9985 340.849 99.4872 340.442 103.374C340.24 105.297 339.278 106.964 337.884 108.108C337.676 107.777 337.399 107.463 337.059 107.184Z" fill="url(#paint21_linear_65_1111)"/>
<path d="M333.833 98.4309C332.117 98.251 330.579 99.4975 330.399 101.213C330.223 102.896 331.397 104.401 333.141 104.634C333.165 104.637 333.199 104.64 333.215 104.642C333.232 104.644 333.257 104.646 333.273 104.648C333.281 104.649 333.29 104.65 333.29 104.65C334.97 104.767 336.43 103.546 336.615 101.865C336.795 100.149 335.548 98.6107 333.833 98.4309Z" fill="url(#paint22_linear_65_1111)"/>
<path d="M372.688 55.3971C372.4 50.9695 368.558 47.5962 364.13 47.8843C359.703 48.1723 356.329 52.0149 356.617 56.4425C356.769 58.7728 357.91 60.8047 359.597 62.1717C359.597 62.1798 359.597 62.1798 359.59 62.1883C359.675 62.2634 359.776 62.3215 359.861 62.3886C359.912 62.4256 359.954 62.4632 360.005 62.4922C360.157 62.6033 360.325 62.7053 360.485 62.8079C360.544 62.8444 360.594 62.8734 360.653 62.9099C360.813 63.0045 360.98 63.0904 361.154 63.1679C361.213 63.1963 361.279 63.2323 361.338 63.2608C361.504 63.3388 361.678 63.4081 361.86 63.4689C361.926 63.4969 361.992 63.5249 362.058 63.5448C362.24 63.6056 362.421 63.6584 362.601 63.7031C362.667 63.7231 362.733 63.743 362.798 63.7549C362.995 63.7986 363.191 63.8343 363.387 63.8699C363.444 63.8823 363.501 63.8947 363.566 63.8986C363.794 63.9322 364.021 63.9497 364.256 63.9586C364.288 63.9565 364.321 63.9625 364.353 63.9684C364.628 63.9748 364.902 63.9731 365.176 63.9553C365.449 63.9375 365.721 63.9037 365.985 63.8623C366.017 63.8602 366.048 63.8501 366.08 63.84C366.311 63.8007 366.534 63.7539 366.756 63.6911C366.812 63.6794 366.867 63.6516 366.93 63.6394C367.12 63.5786 367.318 63.5254 367.499 63.4491C367.562 63.4208 367.624 63.3925 367.688 63.3723C367.86 63.2965 368.041 63.2282 368.206 63.1449C368.268 63.1166 368.33 63.0803 368.393 63.044C368.557 62.9607 368.72 62.8694 368.883 62.77C368.945 62.7337 368.999 62.6898 369.053 62.654C369.208 62.5471 369.363 62.4483 369.516 62.3334C369.571 62.2976 369.616 62.2543 369.67 62.2104C369.823 62.0875 369.969 61.965 370.105 61.8351C370.151 61.7918 370.189 61.749 370.235 61.7137C370.318 61.6357 370.402 61.5576 370.478 61.48C370.477 61.472 370.477 61.472 370.469 61.4645C371.972 59.89 372.84 57.7274 372.688 55.3971ZM368.882 59.6552C366.61 58.3344 363.042 58.5665 360.943 60.1717C360.605 60.4277 360.333 60.7197 360.112 61.0327C358.81 59.8747 357.944 58.2283 357.823 56.3641C357.578 52.5954 360.44 49.3347 364.209 49.0896C367.977 48.8444 371.238 51.7068 371.483 55.4755C371.604 57.3397 370.959 59.0843 369.818 60.4013C369.566 60.1191 369.251 59.8652 368.882 59.6552Z" fill="url(#paint23_linear_65_1111)"/>
<path d="M364.393 51.8449C362.73 51.9531 361.468 53.3909 361.576 55.0542C361.682 56.6854 363.046 57.9282 364.745 57.8661C364.769 57.8645 364.801 57.8624 364.817 57.8614C364.833 57.8603 364.857 57.8588 364.873 57.8577C364.881 57.8572 364.889 57.8567 364.889 57.8567C366.509 57.6948 367.701 56.2939 367.603 54.6622C367.494 52.9988 366.057 51.7367 364.393 51.8449Z" fill="url(#paint24_linear_65_1111)"/>
<defs>
<linearGradient id="paint0_linear_65_1111" x1="75.6282" y1="134.282" x2="75.6282" y2="252.882" gradientUnits="userSpaceOnUse">
<stop stop-color="#1F1E1E"/>
<stop offset="1" stop-color="#FFCAB8"/>
</linearGradient>
<linearGradient id="paint1_linear_65_1111" x1="76.1456" y1="147.393" x2="76.1456" y2="238.875" gradientUnits="userSpaceOnUse">
<stop stop-color="#1F1E1E"/>
<stop offset="1" stop-color="#858383"/>
</linearGradient>
<linearGradient id="paint2_linear_65_1111" x1="75.3443" y1="160.331" x2="75.3443" y2="225.13" gradientUnits="userSpaceOnUse">
<stop stop-color="#1F1E1E"/>
<stop offset="1" stop-color="#858383"/>
</linearGradient>
<linearGradient id="paint3_linear_65_1111" x1="76.1476" y1="174.074" x2="76.1476" y2="212.192" gradientUnits="userSpaceOnUse">
<stop stop-color="#1F1E1E"/>
<stop offset="1" stop-color="#FFCAB8"/>
</linearGradient>
<linearGradient id="paint4_linear_65_1111" x1="51.6619" y1="146.479" x2="56.889" y2="162.305" gradientUnits="userSpaceOnUse">
<stop stop-color="#FF8D28"/>
<stop offset="1" stop-color="#995518"/>
</linearGradient>
<linearGradient id="paint5_linear_65_1111" x1="52.9507" y1="150.378" x2="54.9083" y2="156.305" gradientUnits="userSpaceOnUse">
<stop stop-color="#FF8D28"/>
<stop offset="1" stop-color="#995518"/>
</linearGradient>
<linearGradient id="paint6_linear_65_1111" x1="33.8957" y1="210.874" x2="37.0843" y2="225.505" gradientUnits="userSpaceOnUse">
<stop stop-color="#34C759"/>
<stop offset="1" stop-color="#19612B"/>
</linearGradient>
<linearGradient id="paint7_linear_65_1111" x1="34.6809" y1="214.481" x2="35.875" y2="219.961" gradientUnits="userSpaceOnUse">
<stop stop-color="#34C759"/>
<stop offset="1" stop-color="#19612B"/>
</linearGradient>
<linearGradient id="paint8_linear_65_1111" x1="100.908" y1="221.851" x2="104.097" y2="236.482" gradientUnits="userSpaceOnUse">
<stop stop-color="#6155F5"/>
<stop offset="1" stop-color="#39328F"/>
</linearGradient>
<linearGradient id="paint9_linear_65_1111" x1="101.696" y1="225.456" x2="102.89" y2="230.936" gradientUnits="userSpaceOnUse">
<stop stop-color="#6155F5"/>
<stop offset="1" stop-color="#39328F"/>
</linearGradient>
<linearGradient id="paint10_linear_65_1111" x1="116.846" y1="166.723" x2="120.395" y2="183.007" gradientUnits="userSpaceOnUse">
<stop stop-color="#B23F18"/>
<stop offset="1" stop-color="#4C1B0A"/>
</linearGradient>
<linearGradient id="paint11_linear_65_1111" x1="117.723" y1="170.736" x2="119.052" y2="176.834" gradientUnits="userSpaceOnUse">
<stop stop-color="#B23F18"/>
<stop offset="1" stop-color="#4C1B0A"/>
</linearGradient>
<linearGradient id="paint12_linear_65_1111" x1="191.907" y1="147.629" x2="191.907" y2="298.629" gradientUnits="userSpaceOnUse">
<stop stop-color="#441E00"/>
<stop offset="0.671473" stop-color="#1E0900"/>
<stop offset="1" stop-color="#1E0800" stop-opacity="0"/>
</linearGradient>
<linearGradient id="paint13_linear_65_1111" x1="192.799" y1="127.625" x2="192.799" y2="204.723" gradientUnits="userSpaceOnUse">
<stop stop-color="#D24516"/>
<stop offset="1" stop-color="#6E240B"/>
</linearGradient>
<linearGradient id="paint14_linear_65_1111" x1="318.762" y1="13.2961" x2="318.762" y2="104.778" gradientUnits="userSpaceOnUse">
<stop stop-color="#1F1E1E"/>
<stop offset="1" stop-color="#FFCAB8" stop-opacity="0.4"/>
</linearGradient>
<linearGradient id="paint15_linear_65_1111" x1="318.13" y1="26.0005" x2="318.13" y2="90.7999" gradientUnits="userSpaceOnUse">
<stop stop-color="#1F1E1E"/>
<stop offset="1" stop-color="#FFCAB8" stop-opacity="0.3"/>
</linearGradient>
<linearGradient id="paint16_linear_65_1111" x1="318.766" y1="39.9767" x2="318.766" y2="78.094" gradientUnits="userSpaceOnUse">
<stop stop-color="#1F1E1E"/>
<stop offset="1" stop-color="#FFCAB8" stop-opacity="0.2"/>
</linearGradient>
<linearGradient id="paint17_linear_65_1111" x1="310.157" y1="7.05579" x2="310.157" y2="23.7225" gradientUnits="userSpaceOnUse">
<stop stop-color="#FF8D28"/>
<stop offset="1" stop-color="#995518"/>
</linearGradient>
<linearGradient id="paint18_linear_65_1111" x1="310.147" y1="11.1686" x2="310.147" y2="17.4102" gradientUnits="userSpaceOnUse">
<stop stop-color="#FF8D28"/>
<stop offset="1" stop-color="#995518"/>
</linearGradient>
<linearGradient id="paint19_linear_65_1111" x1="273.48" y1="62.8226" x2="272.372" y2="78.8894" gradientUnits="userSpaceOnUse">
<stop stop-color="#2DBF52"/>
<stop offset="1" stop-color="#19612B"/>
</linearGradient>
<linearGradient id="paint20_linear_65_1111" x1="273.206" y1="66.7825" x2="272.791" y2="72.7995" gradientUnits="userSpaceOnUse">
<stop stop-color="#2DBF52"/>
<stop offset="1" stop-color="#19612B"/>
</linearGradient>
<linearGradient id="paint21_linear_65_1111" x1="334.265" y1="94.3479" x2="332.528" y2="110.924" gradientUnits="userSpaceOnUse">
<stop stop-color="#6155F5"/>
<stop offset="1" stop-color="#39328F"/>
</linearGradient>
<linearGradient id="paint22_linear_65_1111" x1="333.833" y1="98.4309" x2="333.182" y2="104.639" gradientUnits="userSpaceOnUse">
<stop stop-color="#6155F5"/>
<stop offset="1" stop-color="#39328F"/>
</linearGradient>
<linearGradient id="paint23_linear_65_1111" x1="364.13" y1="47.8843" x2="365.176" y2="63.9553" gradientUnits="userSpaceOnUse">
<stop stop-color="#B23F18"/>
<stop offset="1" stop-color="#4C1B0A"/>
</linearGradient>
<linearGradient id="paint24_linear_65_1111" x1="364.393" y1="51.8449" x2="364.785" y2="57.8635" gradientUnits="userSpaceOnUse">
<stop stop-color="#B23F18"/>
<stop offset="1" stop-color="#4C1B0A"/>
</linearGradient>
</defs>
</svg>
