<svg width="370" height="224" viewBox="0 0 370 224" fill="none" xmlns="http://www.w3.org/2000/svg">
<path d="M8.12487 213.662C1.28015 206.154 0.596559 194.204 0.201051 184.571C-1.15344 156.839 4.35144 129.197 16.2489 103.99C36.6747 60.9692 73.7147 27.6338 119.239 11.3009C166.797 -5.61035 219.256 -3.47231 265.212 17.2498C308.444 36.8929 342.064 72.3562 358.834 116.007C368.8 142.588 371.638 173.764 366.905 201.764C366.525 204.014 365.039 207.268 364.061 209.333C354.9 224.261 342.981 223.315 327.455 223.303L306.126 223.295L226.012 223.293L93.9784 223.292L51.3539 223.3C47.346 223.301 43.1781 223.197 39.1835 223.299C27.5316 223.597 16.1918 223.441 8.12487 213.662Z" fill="#0A0A0B"/>
<path d="M4.26925 202.548C4.14767 203.229 4.18283 203.291 3.84493 203.881L3.49972 203.56C-0.247348 193.939 0.69894 167.628 1.88644 156.843C8.64815 95.4361 49.7668 42.4032 106.861 16.9675C182.209 -16.6005 274.959 2.61507 328.039 65.3016C351.881 93.4591 366.654 128.07 368.008 164.715C368.236 171.469 368.714 180.447 367.98 187.119C367.997 190.794 366.941 201.686 365.055 204.442L364.615 204.654L364.085 204.368L363.439 204.321C359.513 210.16 357.968 214.74 350.851 218.11C344.983 220.889 340.854 221.272 334.285 221.348C325.739 221.446 317.164 221.381 308.604 221.387L260.254 221.423L108.665 221.45L51.4059 221.444C47.132 221.443 26.5119 221.754 24.0095 220.934C21.1897 221.419 15.3952 218.927 13.2893 216.963C11.3054 215.114 5.07345 209.926 5.21212 207.317C8.5046 210.291 7.44942 209.409 9.90108 212.409C9.74288 211.649 5.78634 205.136 5.05294 203.735C4.61202 203.386 4.54416 203.079 4.26925 202.548Z" fill="#1F1C1B"/>
<path d="M4.26925 202.548C4.14767 203.229 4.18283 203.291 3.84493 203.881L3.49972 203.56C-0.247348 193.939 0.69894 167.628 1.88644 156.843C8.64815 95.4361 49.7668 42.4032 106.861 16.9675C182.209 -16.6005 274.959 2.61507 328.039 65.3016C351.881 93.4591 366.654 128.07 368.008 164.715C368.236 171.469 368.714 180.447 367.98 187.119C367.997 190.794 366.941 201.686 365.055 204.442L364.615 204.654L364.085 204.368C364.055 202.559 365.049 196.839 365.288 194.622C365.847 189.434 365.685 183.795 366.248 178.752C366.23 168.026 364.775 147.506 361.693 137.143C360.735 136.291 358.032 125.109 357.216 122.657C355.895 118.687 354.154 114.881 352.77 110.95C351.208 106.515 348.696 101.979 346.426 97.8278C339.098 84.4283 332.023 74.4804 321.756 63.1908C317.476 58.4839 313.742 54.5226 308.85 50.3984C307.877 49.5778 307.317 48.4032 306.239 47.6977C302.343 45.1493 298.94 41.7909 295.16 39.0643C293.297 37.7207 291.152 36.848 289.224 35.6118C288.027 34.8442 286.824 33.4871 285.51 33.051C285.108 32.9177 284.882 32.8155 284.566 32.526C284.461 32.4295 284.359 32.3288 284.255 32.2299C283.074 31.6906 281.353 31.115 280.115 30.7076C280.376 31.1442 293.622 39.413 295.861 41.1336C307.978 50.4438 319.364 60.7308 328.699 72.7804C329.147 73.3603 329.579 73.697 329.499 74.2521C326.722 71.9144 325.542 69.7348 323.153 67.1043C319.284 62.7776 315.222 58.6195 310.978 54.6425C294.561 39.0018 271.411 25.0152 249.781 17.1681C244.97 15.4223 240.113 13.5947 235.148 12.3045C234.277 11.5617 228.921 10.3881 227.549 10.0681C209.839 5.79058 191.569 4.15983 173.36 5.23219C129.668 7.78484 88.381 25.6615 57.0724 55.5835C54.197 58.3597 50.0363 63.0967 47.3278 66.1466C26.8142 89.2909 13.0671 117.423 7.53683 147.574C6.8923 151.17 5.19455 158.942 5.66818 162.467C5.25314 165.678 5.51779 166.72 4.47385 169.996C4.24875 170.084 4.0217 170.168 3.79318 170.25C3.79953 175.19 3.76535 180.123 3.89865 185.077C4.05001 190.717 4.86886 196.437 4.65744 202.07C4.61935 203.082 5.06564 202.858 5.05294 203.734C4.61202 203.386 4.54416 203.079 4.26925 202.548Z" fill="url(#paint0_linear_65_884)"/>
<path d="M116.298 15.8514C121.849 13.1975 134.401 9.55861 140.54 8.13994C175.751 -0.0467844 212.624 1.81421 246.788 13.5017C256.54 16.7886 265.959 20.9543 274.924 25.9445C276.282 26.6954 279.861 28.6485 281.057 29.5303C281.393 30.7421 283.265 30.8133 284.255 32.2291C283.074 31.6898 281.352 31.1143 280.115 30.7068C280.375 31.1434 293.622 39.4123 295.861 41.1328C307.978 50.443 319.364 60.73 328.699 72.7796C329.147 73.3595 329.579 73.6963 329.498 74.2513C326.722 71.9136 325.541 69.734 323.153 67.1035C319.284 62.7768 315.222 58.6188 310.978 54.6417C294.561 39.001 271.411 25.0145 249.781 17.1674C244.97 15.4215 240.113 13.5939 235.147 12.3038C234.277 11.561 228.921 10.3874 227.549 10.0673C209.839 5.78982 191.569 4.15907 173.36 5.23143C129.668 7.78408 88.3809 25.6607 57.0723 55.5827C54.1968 58.3589 50.0362 63.0959 47.3277 66.1458C26.814 89.2902 13.067 117.422 7.5367 147.573C6.89217 151.169 5.19442 158.942 5.66805 162.467C5.25302 165.677 5.51766 166.719 4.47372 169.995C4.24862 170.083 4.02157 170.168 3.79306 170.249C3.7994 175.189 3.76522 180.122 3.89852 185.076C4.04989 190.716 4.86873 196.436 4.65731 202.07C4.61922 203.081 5.06551 202.857 5.05282 203.734C4.6119 203.386 4.54403 203.078 4.26913 202.548C4.36092 195.118 3.35848 186.892 3.24862 179.236C3.0079 159.155 6.30428 139.183 12.9928 120.196C25.5997 85.5596 49.0069 55.6706 79.9102 34.7469C84.3116 31.7844 89.9507 27.9535 94.7373 25.6798C99.4058 22.9118 111.366 17.3322 116.298 15.8514Z" fill="url(#paint1_linear_65_884)" fill-opacity="0.3"/>
<path d="M116.299 15.8529L116.328 16.3143C114.961 17.0561 113.626 17.3848 112.219 17.9957C106.742 20.3726 101.303 22.8034 96.0191 25.571C95.6108 25.785 95.1777 25.765 94.7383 25.6814C99.4067 22.9133 111.367 17.3337 116.299 15.8529Z" fill="#657385"/>
<path d="M281.057 29.5312C284.128 30.9289 292.089 36.4522 294.904 38.4326C322.812 58.4067 344.059 86.0091 355.972 117.767C357.764 122.568 360.913 132.152 361.693 137.143C360.734 136.292 358.032 125.109 357.216 122.658C355.894 118.688 354.154 114.881 352.769 110.95C351.207 106.515 348.696 101.979 346.425 97.828C339.098 84.4285 332.022 74.4806 321.755 63.191C317.475 58.484 313.742 54.5227 308.85 50.3986C307.876 49.5779 307.316 48.4034 306.238 47.6979C302.343 45.1495 298.939 41.791 295.159 39.0645C293.297 37.7208 291.152 36.8481 289.224 35.6119C288.027 34.8443 286.824 33.4873 285.51 33.0512C285.108 32.9179 284.882 32.8157 284.566 32.5262C284.46 32.4297 284.359 32.3289 284.255 32.2301C283.264 30.8143 281.393 30.7431 281.057 29.5312Z" fill="#53565B"/>
<path d="M364.087 204.369C364.056 202.559 365.05 196.84 365.289 194.622C365.848 189.434 365.686 183.796 366.249 178.752C366.483 182.364 366.481 185.985 366.244 189.596C366.136 191.064 365.545 193.496 365.612 194.853C366.04 194.551 365.964 194.543 366.283 194.086L366.604 194.237L366.889 195.162C367.06 193.41 367.368 188.376 367.981 187.12C367.998 190.794 366.943 201.687 365.056 204.443L364.616 204.654L364.087 204.369Z" fill="#C33D10"/>
<path d="M31.9541 207.808C44.4956 208.166 57.8091 207.927 70.415 207.923L136.374 207.937L335.429 207.975C334.151 208.403 333.698 208.58 332.331 208.702C325.297 208.81 318.262 208.825 311.227 208.745C299.175 208.287 284.334 208.682 272.054 208.725L210.729 208.991C205.118 209.013 199.507 208.986 193.897 208.912C192.659 208.899 187.57 208.777 186.694 208.955C176.428 208.559 165.776 208.891 155.495 208.868L76.4463 208.871L49.3022 208.831C43.5415 208.831 37.1885 208.97 31.479 208.74C31.0132 208.564 30.749 208.443 30.3013 208.235L30.252 208.097L31.5552 208.053L31.9541 207.808Z" fill="#43403F"/>
<path d="M335.43 207.974C340.01 207.442 343.288 207.157 346.44 203.269C350.25 198.573 350.375 192.442 350.453 186.742C350.644 172.871 350.851 158.983 347.977 145.325C347.655 143.8 347.085 142.554 347.024 140.977C347.483 142.035 347.56 142.275 348.227 143.274L348.114 142.931C348.932 144.588 349.037 146.631 349.381 148.438C349.785 150.555 350.302 152.66 350.557 154.8C351.749 164.802 353.041 190.606 349.933 199.362C348.702 202.83 346.691 205.807 343.225 207.484C339.986 209.051 335.865 208.873 332.332 208.701C333.699 208.579 334.152 208.402 335.43 207.974Z" fill="#43403F"/>
<path d="M186.695 208.953C187.572 208.776 192.66 208.898 193.899 208.91C199.509 208.984 205.12 209.011 210.73 208.989L272.056 208.723C284.335 208.68 299.177 208.286 311.228 208.744C309.049 209.058 304.82 208.972 302.496 208.973L287.795 208.965L237.673 209.011C234.19 209.022 216.406 208.847 213.216 209.475C209.5 209.621 212.455 208.835 203 209.474C202.608 209.067 186.695 207.88 186.695 208.953Z" fill="#43403F"/>
<path d="M24.0106 220.934C21.1908 221.419 15.3963 218.927 13.2904 216.963C11.3065 215.114 5.07454 209.926 5.21322 207.317C8.50569 210.291 7.45052 209.409 9.90218 212.409C12.4417 217.113 19.0975 219.565 24.0106 220.934Z" fill="#1C1E22"/>
<path d="M20.314 201.529C23.3804 205.836 26.5503 207.567 31.9541 207.808L31.5552 208.053L30.252 208.097L30.3013 208.235C30.749 208.443 31.0132 208.564 31.479 208.74C25.1724 208.904 24.2168 207.15 20.0859 203.675L20.314 201.529Z" fill="#43403F"/>
<path d="M180.951 54.0442C182.176 53.9234 184.076 53.9091 185.354 53.8599C185.378 62.7196 185.35 71.5798 185.271 80.4396L184.984 80.4372C159.031 80.3703 131.9 92.2833 113.991 110.33C91.8222 132.669 83.7607 156.786 83.792 187.25L56.6152 187.369C56.7139 174.424 57.0044 166.497 59.2881 153.804C60.4277 147.732 63.8154 135.735 66.4648 130.32C70.4228 131.854 74.3501 133.463 78.2436 135.147C78.9609 133.993 79.396 133.002 79.9595 131.783C76.4101 129.999 71.8623 128.26 68.1553 126.807C78.9038 105.657 95.0356 86.3713 115.71 73.8526C119.526 78.9416 122.349 83.9533 125.296 89.5234L128.597 87.7665C125.75 81.7584 122.73 77.2359 118.933 71.7852C123.561 68.9555 128.745 66.6288 133.743 64.5018C149.419 57.8293 163.952 54.7875 180.951 54.0442Z" fill="url(#paint2_linear_65_884)"/>
<path d="M242.271 65.8397C242.436 66.6035 237.695 76.5122 236.893 78.3102L216.47 123.539L206.493 145.504C204.009 151.031 201.38 157.145 198.642 162.508C198.905 163.64 199.094 164.747 199.228 165.896C200.743 178.91 185.676 188.328 174.138 181.93C172.753 181.162 171.869 180.51 170.65 179.496C167.333 176.612 165.581 172.771 165.417 168.456C165.289 163.928 167.022 159.537 170.227 156.267C173.482 152.944 177.655 151.464 182.282 151.342C184.743 148.267 188.072 143.277 190.363 139.999L203.506 121.226L242.271 65.8397Z" fill="url(#paint3_linear_65_884)"/>
<path d="M181.117 157.002C187.156 156.304 192.62 160.55 193.293 166.462C193.966 172.374 189.589 177.691 183.541 178.31C177.551 178.922 172.178 174.69 171.512 168.834C170.845 162.977 175.135 157.693 181.117 157.002Z" fill="#242629"/>
<path d="M253.438 133.545C262.021 132.915 267.087 140.898 259.435 146.537C261.427 147.719 262.791 148.955 263.423 151.263C263.958 153.25 263.627 155.364 262.512 157.104C260.984 159.476 258.803 160.386 256.161 160.978C244.78 162.067 240.263 151.086 249.034 146.595C247.396 145.3 246.401 144.329 245.979 142.189C245.632 140.367 246.062 138.485 247.17 136.982C248.742 134.816 250.856 133.948 253.438 133.545Z" fill="url(#paint4_linear_65_884)"/>
<path d="M253.017 148.863C255.174 148.251 257.439 149.429 258.127 151.52C258.816 153.612 257.679 155.861 255.562 156.596C254.136 157.09 252.548 156.788 251.416 155.805C250.284 154.822 249.789 153.315 250.121 151.872C250.454 150.428 251.564 149.275 253.017 148.863Z" fill="#242629"/>
<path d="M253.313 137.825C254.601 137.441 256 137.769 256.971 138.681C257.942 139.593 258.333 140.947 257.994 142.221C257.654 143.495 256.636 144.49 255.333 144.822C253.375 145.32 251.37 144.196 250.82 142.291C250.271 140.387 251.379 138.402 253.313 137.825Z" fill="#242629"/>
<path d="M274.798 133.532C279.057 133.295 283.795 134.762 285.164 139.082C288.845 150.704 283.355 165.836 268.246 159.462L269.007 155.507C269.022 155.451 269.037 155.394 269.051 155.338C269.461 155.01 269.888 155.388 270.692 155.635C273.079 156.369 273.896 156.458 276.296 156.373C276.543 156.245 276.786 156.11 277.024 155.968C279.751 154.326 280.038 152.432 280.753 149.583C267.644 159.519 259.249 136.152 274.798 133.532Z" fill="url(#paint5_linear_65_884)"/>
<path d="M275.522 137.788C276.048 137.792 276.466 137.782 276.98 137.905C278.395 138.241 279.593 139.16 280.263 140.425C280.95 141.725 281.032 143.251 280.487 144.614C279.833 146.262 278.807 146.731 277.249 147.368C275.022 147.398 273.394 147.258 272.25 145.052C271.577 143.722 271.516 142.174 272.082 140.798C272.808 138.996 273.805 138.465 275.522 137.788Z" fill="#242629"/>
<path d="M307.979 170.126C311.388 170.083 317.908 169.397 319.494 172.878C320.977 176.134 319.217 178.884 316.193 180.221L320.763 187.188L317.294 187.179C315.917 185.513 314.253 181.063 312.154 180.435C310.416 179.916 310.801 186.211 310.818 187.113L307.918 187.189C307.916 181.563 307.842 175.732 307.979 170.126Z" fill="#FCFBFC"/>
<path d="M310.945 172.732C313.986 172.807 319.476 173.169 316.04 177.626C314.275 178.456 312.765 178.354 310.836 178.369C310.821 176.576 310.748 174.488 310.945 172.732Z" fill="#242629"/>
<path d="M252.629 170.09L256.395 170.067C258.06 175.527 260.393 181.744 262.307 187.199L259.333 187.177C258.872 185.998 258.372 184.225 257.688 183.303L256.96 183.208C254.946 183.263 253.027 183.229 251.017 183.193L249.842 187.217L246.775 187.164C248.386 182.738 251.552 174.384 252.629 170.09Z" fill="#FCFBFC"/>
<path d="M254.487 173.278C255.128 174.411 256.555 179.051 256.889 180.416L256.676 180.674L255.25 180.68L251.984 180.72C252.76 178.221 253.594 175.74 254.487 173.278Z" fill="#242629"/>
<path d="M294.514 134.478C295.573 134.43 296.803 134.312 297.827 134.676C301.49 135.974 302.226 140.821 300.825 143.949C300.053 145.671 298.929 146.425 297.159 147.063C291.152 147.412 289.098 143.377 290.814 137.804C291.328 136.135 292.914 135.133 294.514 134.478Z" fill="url(#paint6_linear_65_884)"/>
<path d="M295.196 137.255C299.408 137.299 299.302 142.701 296.509 144.55C292.549 144.291 292.319 139.328 295.196 137.255Z" fill="#242629"/>
<path d="M308.644 148.806C309.807 148.72 311.094 148.558 312.201 148.931C313.574 149.397 314.688 150.395 315.284 151.691C316.986 155.361 315.851 159.642 311.781 161.163C305.861 161.498 303.741 157.76 305.223 152.117C305.65 150.492 307.106 149.453 308.644 148.806Z" fill="url(#paint7_linear_65_884)"/>
<path d="M309.596 151.352C313.834 151.543 313.787 156.359 311.178 158.565C306.88 158.545 306.874 153.569 309.596 151.352Z" fill="#242629"/>
<path d="M294.411 170.13C297.432 170.113 301.087 169.951 304.053 170.286C304.409 170.326 304.289 170.346 304.551 170.73C304.504 171.883 304.67 171.519 304.081 172.418C302.443 173.297 298.489 172.849 296.296 172.803C296.4 174.306 296.343 175.724 296.306 177.228C297.925 177.259 302.954 176.94 303.942 177.603C304.016 178.5 304.09 178.564 303.718 179.406C302.031 180.843 298.119 178.964 296.368 180.082L296.332 184.539L304.795 184.486C304.788 185.359 304.874 186.295 304.505 187.062C302.639 187.351 295.753 187.186 293.5 187.173C293.524 184.936 293.22 171.362 293.818 170.253L294.411 170.13Z" fill="#FCFBFC"/>
<path d="M269.116 169.851C271.975 169.741 273.731 170.559 275.805 172.362L274.077 174.39C272.999 173.578 267.654 170.256 266.866 174.765C267.472 176.616 272.623 177.617 273.887 178.501C278.65 181.831 275.945 186.484 270.941 187.456C268.595 187.503 264.802 187.244 263.925 184.694C264.105 183.549 264.18 183.775 265.016 182.721C268.077 185.089 273.518 186.178 273.165 182.152C272.951 179.703 259.887 179.453 264.727 171.998C265.623 170.619 267.592 170.098 269.116 169.851Z" fill="#FCFBFC"/>
<path d="M55.8555 108.619C74.0322 76.605 104.369 52.8837 140.295 42.5923C152.593 39.2477 165.26 37.3748 178.019 37.0156C179.648 36.9678 183.487 36.7968 184.879 37.2196L184.84 37.5233C182.522 37.874 176.915 37.776 174.249 37.8912C168.671 38.1548 163.112 38.7285 157.601 39.6084C119.248 45.6996 88.5967 64.3945 65.6455 95.0406C62.3716 99.4934 59.312 104.093 56.477 108.826L55.8555 108.619Z" fill="#97512B"/>
<path d="M179.917 96.1142C181.636 95.9322 183.05 95.808 184.749 96.1772L184.863 96.3907C183.275 96.7342 180.901 96.7356 179.195 96.8598C176.792 97.0404 174.4 97.3341 172.027 97.7401C156.197 100.364 141.471 107.381 129.599 117.956C110.512 135.281 100.197 157.317 99.1761 182.782C99.2073 183.627 99.4529 186.285 98.7576 186.738C97.9691 184.105 98.9207 176.013 99.3626 172.986C101.813 155.037 109.679 138.21 121.955 124.656C136.654 108.014 157.497 97.7506 179.917 96.1142Z" fill="#97512B"/>
<path d="M242.895 170.139L246.518 170.086L246.552 172.852L238.818 172.846L238.836 177.628C240.676 177.584 244.564 176.867 245.805 178.136C246.049 179.021 246.07 178.606 245.82 179.427C244.56 180.537 241.213 180.114 239.347 180.098C239.208 180.208 239.069 180.317 238.93 180.427C238.73 182.285 238.86 185.247 238.888 187.19L235.912 187.173C236.073 181.701 235.956 175.669 235.953 170.155L242.895 170.139Z" fill="#FCFBFC"/>
<path d="M289.149 170.132C289.942 170.098 289.959 170.083 290.727 170.244C291.275 171.09 291.07 171.702 291.065 172.848L285.977 172.868L286.037 187.183C285.177 187.214 284.264 187.347 283.522 186.984C283.046 186.359 283.22 185.257 283.246 184.407L283.227 172.858L277.936 172.896C277.954 172.006 277.875 171.077 278.282 170.309C279.5 170.006 287.545 170.129 289.149 170.132Z" fill="#FCFBFC"/>
<path d="M309.093 135.332C309.86 135.279 311.073 135.17 311.686 135.619C311.005 137.167 309.932 138.968 309.066 140.457C305.255 147.021 301.864 153.852 298.078 160.42L295.135 160.399L303.992 144.271C305.43 141.657 307.458 137.72 309.093 135.332Z" fill="url(#paint8_linear_65_884)"/>
<path d="M54.7185 110.496L55.1613 110.96C54.4548 112.808 52.9489 115.281 52.0529 117.148C41.8811 138.356 36.5046 162.37 37.6838 185.817C37.7204 186.545 37.8513 186.459 37.508 187.183L37.1711 187.091C36.7429 185.964 36.8869 184.188 36.8679 182.935C36.4953 158.762 42.5036 131.675 54.7185 110.496Z" fill="#97512B"/>
<path d="M55.8555 108.62L56.477 108.826C57.77 110.563 60.436 110.316 60.7646 112.362C60.3559 113.146 60.6538 112.953 60.0103 113.215C58.7651 112.641 56.3105 111.385 55.1616 110.96L54.7188 110.495L55.8555 108.62Z" fill="url(#paint9_linear_65_884)"/>
<defs>
<linearGradient id="paint0_linear_65_884" x1="256.613" y1="266.882" x2="96.4672" y2="21.167" gradientUnits="userSpaceOnUse">
<stop stop-color="#C33C10"/>
<stop offset="1" stop-color="#953C1E"/>
</linearGradient>
<linearGradient id="paint1_linear_65_884" x1="156.952" y1="118.992" x2="93.0285" y2="25.9259" gradientUnits="userSpaceOnUse">
<stop stop-color="#454951"/>
<stop offset="1" stop-color="#7B7B7F"/>
</linearGradient>
<linearGradient id="paint2_linear_65_884" x1="120.989" y1="53.8599" x2="120.989" y2="187.369" gradientUnits="userSpaceOnUse">
<stop stop-color="#C3451B"/>
<stop offset="1" stop-color="#6B230B"/>
</linearGradient>
<linearGradient id="paint3_linear_65_884" x1="203.843" y1="65.8397" x2="203.843" y2="183.986" gradientUnits="userSpaceOnUse">
<stop stop-color="#C3451B"/>
<stop offset="1" stop-color="#6B230B"/>
</linearGradient>
<linearGradient id="paint4_linear_65_884" x1="254.051" y1="133.51" x2="254.051" y2="161.053" gradientUnits="userSpaceOnUse">
<stop stop-color="#C3451B"/>
<stop offset="1" stop-color="#6B230B"/>
</linearGradient>
<linearGradient id="paint5_linear_65_884" x1="276.329" y1="133.508" x2="276.329" y2="160.973" gradientUnits="userSpaceOnUse">
<stop stop-color="#C3451B"/>
<stop offset="1" stop-color="#6B230B"/>
</linearGradient>
<linearGradient id="paint6_linear_65_884" x1="295.859" y1="134.421" x2="295.859" y2="147.084" gradientUnits="userSpaceOnUse">
<stop stop-color="#C3451B"/>
<stop offset="1" stop-color="#6B230B"/>
</linearGradient>
<linearGradient id="paint7_linear_65_884" x1="310.407" y1="148.696" x2="310.407" y2="161.184" gradientUnits="userSpaceOnUse">
<stop stop-color="#C3451B"/>
<stop offset="1" stop-color="#6B230B"/>
</linearGradient>
<linearGradient id="paint8_linear_65_884" x1="303.411" y1="135.281" x2="303.411" y2="160.42" gradientUnits="userSpaceOnUse">
<stop stop-color="#C3451B"/>
<stop offset="1" stop-color="#6B230B"/>
</linearGradient>
<linearGradient id="paint9_linear_65_884" x1="57.7417" y1="108.62" x2="57.7417" y2="113.215" gradientUnits="userSpaceOnUse">
<stop stop-color="#C3451B"/>
<stop offset="1" stop-color="#6B230B"/>
</linearGradient>
</defs>
</svg>
