<svg width="78" height="78" viewBox="0 0 78 78" fill="none" xmlns="http://www.w3.org/2000/svg">
<circle cx="39" cy="39" r="34.125" fill="#4B4B4B"/>
<path fill-rule="evenodd" clip-rule="evenodd" d="M58.4946 39.1444C58.4946 38.573 58.0558 38.2435 57.5174 38.4072L20.4772 49.7122C19.9377 49.8769 19.5 50.4744 19.5 51.0447V62.5989C19.5 63.1703 19.9377 63.5008 20.4772 63.3361L57.5174 52.0322C58.0558 51.8674 58.4946 51.27 58.4946 50.6986V39.1444Z" fill="url(#paint0_linear_72_1880)"/>
<path fill-rule="evenodd" clip-rule="evenodd" d="M19.5 38.7771C19.5 39.3485 19.9377 39.9459 20.4772 40.1107L57.5228 51.4167C58.0623 51.5814 58.5 51.2509 58.5 50.6805V39.1253C58.5 38.555 58.0623 37.9575 57.5228 37.7928L20.4772 26.4868C19.9377 26.322 19.5 26.6515 19.5 27.2229V38.7771V38.7771Z" fill="url(#paint1_linear_72_1880)"/>
<path fill-rule="evenodd" clip-rule="evenodd" d="M58.4946 15.4045C58.4946 14.8331 58.0558 14.5026 57.5174 14.6674L20.4772 25.9713C19.9377 26.136 19.5 26.7335 19.5 27.3049V38.859C19.5 39.4304 19.9377 39.7599 20.4772 39.5962L57.5174 28.2913C58.0558 28.1265 58.4946 27.529 58.4946 26.9587V15.4045Z" fill="url(#paint2_linear_72_1880)"/>
<defs>
<linearGradient id="paint0_linear_72_1880" x1="58.4946" y1="50.8718" x2="19.5" y2="50.8718" gradientUnits="userSpaceOnUse">
<stop stop-color="#FFFDF8"/>
<stop offset="1" stop-color="#FFE7C7" stop-opacity="0.5"/>
</linearGradient>
<linearGradient id="paint1_linear_72_1880" x1="58.5" y1="38.9517" x2="19.5" y2="38.9517" gradientUnits="userSpaceOnUse">
<stop stop-color="#FFFDF8"/>
<stop offset="1" stop-color="#FFE7C7" stop-opacity="0.5"/>
</linearGradient>
<linearGradient id="paint2_linear_72_1880" x1="58.4946" y1="27.1316" x2="19.5" y2="27.1316" gradientUnits="userSpaceOnUse">
<stop stop-color="#FFFDF8"/>
<stop offset="1" stop-color="#FFE7C7" stop-opacity="0.5"/>
</linearGradient>
</defs>
</svg>
