<svg width="78" height="78" viewBox="0 0 78 78" fill="none" xmlns="http://www.w3.org/2000/svg">
<circle cx="39" cy="39" r="34.125" fill="#4B4B4B"/>
<path d="M54.1667 46.5833H40.625H54.1667ZM27.0833 33.0417L35.2083 39.8125L27.0833 46.5833M16.25 48.7505V28.1672C16.25 25.1336 16.25 23.6156 16.8404 22.457C17.3597 21.4377 18.1877 20.6097 19.207 20.0904C20.3656 19.5 21.8836 19.5 24.9172 19.5H56.3339C59.3675 19.5 60.8822 19.5 62.0409 20.0904C63.06 20.6097 63.8909 21.4377 64.4101 22.457C65 23.6145 65 25.1306 65 28.1583V48.7584C65 51.786 65 53.3 64.4101 54.4575C63.8909 55.4767 63.06 56.3076 62.0409 56.8268C60.8833 57.4167 59.3694 57.4167 56.3417 57.4167H24.9083C21.8806 57.4167 20.3645 57.4167 19.207 56.8268C18.1877 56.3076 17.3597 55.4767 16.8404 54.4575C16.25 53.2989 16.25 51.7841 16.25 48.7505Z" fill="url(#paint0_linear_72_1902)"/>
<path d="M54.1667 46.5833H40.625M27.0833 33.0417L35.2083 39.8125L27.0833 46.5833M16.25 48.7505V28.1672C16.25 25.1336 16.25 23.6156 16.8404 22.457C17.3597 21.4377 18.1877 20.6097 19.207 20.0904C20.3656 19.5 21.8836 19.5 24.9172 19.5H56.3339C59.3675 19.5 60.8822 19.5 62.0409 20.0904C63.06 20.6097 63.8909 21.4377 64.4101 22.457C65 23.6145 65 25.1306 65 28.1583V48.7584C65 51.786 65 53.3 64.4101 54.4575C63.8909 55.4767 63.06 56.3076 62.0409 56.8268C60.8833 57.4167 59.3694 57.4167 56.3417 57.4167H24.9083C21.8806 57.4167 20.3645 57.4167 19.207 56.8268C18.1877 56.3076 17.3597 55.4767 16.8404 54.4575C16.25 53.2989 16.25 51.7841 16.25 48.7505Z" stroke="#4B4B4B" stroke-width="4.875" stroke-linecap="round" stroke-linejoin="round"/>
<defs>
<linearGradient id="paint0_linear_72_1902" x1="65" y1="38.4583" x2="16.25" y2="38.4583" gradientUnits="userSpaceOnUse">
<stop stop-color="#FFFDF8"/>
<stop offset="1" stop-color="#FFE7C7" stop-opacity="0.5"/>
</linearGradient>
</defs>
</svg>
